CooperHewitt-Book.ufo
<glyph name="exclam" format="1">
  <advance width="216"/>
  <unicode hex="0021"/>
  <outline>
    <contour>
      <point x="65" y="780" type="line"/>
      <point x="84" y="189" type="line"/>
      <point x="132" y="189" type="line"/>
      <point x="151" y="780" type="line"/>
    </contour>
    <contour>
      <point x="153" y="90" type="line"/>
      <point x="63" y="90" type="line"/>
      <point x="63" y="0" type="line"/>
      <point x="153" y="0" type="line"/>
    </contour>
  </outline>
</glyph>
<glyph name="quotedbl" format="1">
  <advance width="338"/>
  <unicode hex="0022"/>
  <outline>
    <contour>
      <point x="69" y="780" type="line"/>
      <point x="84" y="511" type="line"/>
      <point x="133" y="511" type="line"/>
      <point x="144" y="780" type="line"/>
    </contour>
    <contour>
      <point x="195" y="780" type="line"/>
      <point x="205" y="511" type="line"/>
      <point x="255" y="511" type="line"/>
      <point x="269" y="780" type="line"/>
    </contour>
  </outline>
</glyph>
<glyph name="numbersign" format="1">
  <advance width="600"/>
  <unicode hex="0023"/>
  <outline>
    <contour>
      <point x="91" y="479" type="line"/>
      <point x="180" y="479" type="line"/>
      <point x="140" y="301" type="line"/>
      <point x="33" y="301" type="line"/>
      <point x="33" y="235" type="line"/>
      <point x="125" y="235" type="line"/>
      <point x="72" y="0" type="line"/>
      <point x="138" y="0" type="line"/>
      <point x="190" y="235" type="line"/>
      <point x="339" y="235" type="line"/>
      <point x="287" y="0" type="line"/>
      <point x="352" y="0" type="line"/>
      <point x="405" y="235" type="line"/>
      <point x="509" y="235" type="line"/>
      <point x="509" y="301" type="line"/>
      <point x="420" y="301" type="line"/>
      <point x="460" y="479" type="line"/>
      <point x="567" y="479" type="line"/>
      <point x="567" y="545" type="line"/>
      <point x="475" y="545" type="line"/>
      <point x="528" y="780" type="line"/>
      <point x="462" y="780" type="line"/>
      <point x="409" y="545" type="line"/>
      <point x="260" y="545" type="line"/>
      <point x="313" y="780" type="line"/>
      <point x="248" y="780" type="line"/>
      <point x="195" y="545" type="line"/>
      <point x="91" y="545" type="line"/>
    </contour>
    <contour>
      <point x="245" y="479" type="line"/>
      <point x="394" y="479" type="line"/>
      <point x="354" y="301" type="line"/>
      <point x="205" y="301" type="line"/>
    </contour>
  </outline>
</glyph>
<glyph name="dollar" format="1">
  <advance width="600"/>
  <unicode hex="0024"/>
  <outline>
    <contour>
      <point x="435" y="840" type="line"/>
      <point x="374" y="840" type="line"/>
      <point x="346" y="724" type="line"/>
      <point x="332" y="726"/>
      <point x="316" y="727"/>
      <point x="300" y="727" type="curve" smooth="yes"/>
      <point x="164" y="727"/>
      <point x="71" y="658"/>
      <point x="71" y="547" type="curve" smooth="yes"/>
      <point x="71" y="540" type="line" smooth="yes"/>
      <point x="71" y="453"/>
      <point x="123" y="394"/>
      <point x="262" y="372" type="curve"/>
      <point x="206" y="138" type="line"/>
      <point x="160" y="164"/>
      <point x="134" y="211"/>
      <point x="134" y="274" type="curve"/>
      <point x="63" y="274" type="line"/>
      <point x="63" y="267" type="line" smooth="yes"/>
      <point x="63" y="178"/>
      <point x="107" y="107"/>
      <point x="191" y="73" type="curve"/>
      <point x="159" y="-60" type="line"/>
      <point x="220" y="-60" type="line"/>
      <point x="248" y="57" type="line"/>
      <point x="266" y="54"/>
      <point x="286" y="53"/>
      <point x="308" y="53" type="curve" smooth="yes"/>
      <point x="451" y="53"/>
      <point x="537" y="126"/>
      <point x="537" y="241" type="curve" smooth="yes"/>
      <point x="537" y="249" type="line" smooth="yes"/>
      <point x="537" y="351"/>
      <point x="472" y="403"/>
      <point x="335" y="423" type="curve"/>
      <point x="389" y="647" type="line"/>
      <point x="437" y="622"/>
      <point x="460" y="571"/>
      <point x="460" y="496" type="curve"/>
      <point x="530" y="496" type="line"/>
      <point x="530" y="512" type="line" smooth="yes"/>
      <point x="530" y="611"/>
      <point x="490" y="682"/>
      <point x="404" y="711" type="curve"/>
    </contour>
    <contour>
      <point x="310" y="115" type="curve" smooth="yes"/>
      <point x="307" y="115" type="line" smooth="yes"/>
      <point x="291" y="115"/>
      <point x="276" y="116"/>
      <point x="262" y="119" type="curve"/>
      <point x="321" y="364" type="line"/>
      <point x="418" y="348"/>
      <point x="464" y="316"/>
      <point x="464" y="242" type="curve" smooth="yes"/>
      <point x="464" y="237" type="line" smooth="yes"/>
      <point x="464" y="160"/>
      <point x="403" y="115"/>
    </contour>
    <contour>
      <point x="143" y="547" type="curve" smooth="yes"/>
      <point x="143" y="552" type="line" smooth="yes"/>
      <point x="143" y="623"/>
      <point x="212" y="665"/>
      <point x="298" y="665" type="curve" smooth="yes"/>
      <point x="302" y="665" type="line" smooth="yes"/>
      <point x="312" y="665"/>
      <point x="322" y="664"/>
      <point x="332" y="663" type="curve"/>
      <point x="276" y="431" type="line"/>
      <point x="178" y="449"/>
      <point x="143" y="486"/>
    </contour>
  </outline>
</glyph>
<glyph name="ampersand" format="1">
  <advance width="661"/>
  <unicode hex="0026"/>
  <outline>
    <contour>
      <point x="265" y="-11" type="curve" smooth="yes"/>
      <point x="352" y="-11"/>
      <point x="430" y="17"/>
      <point x="489" y="75" type="curve"/>
      <point x="559" y="0" type="line"/>
      <point x="650" y="0" type="line"/>
      <point x="532" y="128" type="line"/>
      <point x="573" y="193"/>
      <point x="598" y="281"/>
      <point x="598" y="394" type="curve"/>
      <point x="525" y="394" type="line"/>
      <point x="525" y="391" type="line" smooth="yes"/>
      <point x="525" y="302"/>
      <point x="509" y="233"/>
      <point x="483" y="182" type="curve"/>
      <point x="270" y="413" type="line"/>
      <point x="353" y="467"/>
      <point x="440" y="521"/>
      <point x="440" y="619" type="curve" smooth="yes"/>
      <point x="440" y="629" type="line" smooth="yes"/>
      <point x="440" y="721"/>
      <point x="376" y="791"/>
      <point x="254" y="791" type="curve" smooth="yes"/>
      <point x="133" y="791"/>
      <point x="69" y="721"/>
      <point x="69" y="629" type="curve" smooth="yes"/>
      <point x="69" y="619" type="line" smooth="yes"/>
      <point x="69" y="540"/>
      <point x="106" y="491"/>
      <point x="169" y="422" type="curve"/>
      <point x="101" y="374"/>
      <point x="42" y="313"/>
      <point x="42" y="213" type="curve" smooth="yes"/>
      <point x="42" y="203" type="line" smooth="yes"/>
      <point x="42" y="68"/>
      <point x="127" y="-11"/>
    </contour>
    <contour>
      <point x="269" y="54" type="line" smooth="yes"/>
      <point x="163" y="54"/>
      <point x="114" y="116"/>
      <point x="114" y="207" type="curve" smooth="yes"/>
      <point x="114" y="216" type="line" smooth="yes"/>
      <point x="114" y="286"/>
      <point x="158" y="333"/>
      <point x="214" y="374" type="curve"/>
      <point x="443" y="125" type="line"/>
      <point x="397" y="75"/>
      <point x="336" y="54"/>
      <point x="275" y="54" type="curve" smooth="yes"/>
    </contour>
    <contour>
      <point x="141" y="628" type="line" smooth="yes"/>
      <point x="141" y="680"/>
      <point x="178" y="727"/>
      <point x="251" y="727" type="curve" smooth="yes"/>
      <point x="258" y="727" type="line" smooth="yes"/>
      <point x="331" y="727"/>
      <point x="367" y="680"/>
      <point x="367" y="628" type="curve" smooth="yes"/>
      <point x="367" y="619" type="line" smooth="yes"/>
      <point x="367" y="549"/>
      <point x="299" y="507"/>
      <point x="225" y="460" type="curve"/>
      <point x="178" y="509"/>
      <point x="141" y="556"/>
      <point x="141" y="619" type="curve" smooth="yes"/>
    </contour>
  </outline>
</glyph>
<glyph name="quotesingle" format="1">
  <advance width="217"/>
  <unicode hex="0027"/>
  <outline>
    <contour>
      <point x="69" y="780" type="line"/>
      <point x="84" y="511" type="line"/>
      <point x="133" y="511" type="line"/>
      <point x="148" y="780" type="line"/>
    </contour>
  </outline>
</glyph>
<glyph name="parenleft" format="1">
  <advance width="317"/>
  <unicode hex="0028"/>
  <outline>
    <contour>
      <point x="51" y="350" type="line" smooth="yes"/>
      <point x="51" y="118"/>
      <point x="123" y="-1"/>
      <point x="206" y="-120" type="curve"/>
      <point x="283" y="-120" type="line"/>
      <point x="191" y="9"/>
      <point x="122" y="135"/>
      <point x="122" y="350" type="curve" smooth="yes"/>
      <point x="122" y="370" type="line" smooth="yes"/>
      <point x="122" y="585"/>
      <point x="191" y="711"/>
      <point x="283" y="840" type="curve"/>
      <point x="206" y="840" type="line"/>
      <point x="123" y="721"/>
      <point x="51" y="602"/>
      <point x="51" y="370" type="curve" smooth="yes"/>
    </contour>
  </outline>
</glyph>
<glyph name="parenright" format="1">
  <advance width="317"/>
  <unicode hex="0029"/>
  <outline>
    <contour>
      <point x="266" y="370" type="line" smooth="yes"/>
      <point x="266" y="602"/>
      <point x="195" y="721"/>
      <point x="111" y="840" type="curve"/>
      <point x="34" y="840" type="line"/>
      <point x="126" y="711"/>
      <point x="195" y="585"/>
      <point x="195" y="370" type="curve" smooth="yes"/>
      <point x="195" y="350" type="line" smooth="yes"/>
      <point x="195" y="135"/>
      <point x="126" y="9"/>
      <point x="34" y="-120" type="curve"/>
      <point x="111" y="-120" type="line"/>
      <point x="195" y="-1"/>
      <point x="266" y="118"/>
      <point x="266" y="350" type="curve" smooth="yes"/>
    </contour>
  </outline>
</glyph>
<glyph name="asterisk" format="1">
  <advance width="389"/>
  <unicode hex="002A"/>
  <outline>
    <contour>
      <point x="168" y="800" type="line"/>
      <point x="173" y="654" type="line"/>
      <point x="216" y="654" type="line"/>
      <point x="221" y="800" type="line"/>
    </contour>
    <contour>
      <point x="10" y="648" type="line"/>
      <point x="151" y="608" type="line"/>
      <point x="164" y="648" type="line"/>
      <point x="27" y="698" type="line"/>
    </contour>
    <contour>
      <point x="107" y="451" type="line"/>
      <point x="188" y="572" type="line"/>
      <point x="154" y="596" type="line"/>
      <point x="64" y="482" type="line"/>
    </contour>
    <contour>
      <point x="362" y="698" type="line"/>
      <point x="225" y="648" type="line"/>
      <point x="238" y="608" type="line"/>
      <point x="378" y="648" type="line"/>
    </contour>
    <contour>
      <point x="324" y="482" type="line"/>
      <point x="235" y="596" type="line"/>
      <point x="200" y="572" type="line"/>
      <point x="282" y="451" type="line"/>
    </contour>
  </outline>
</glyph>
<glyph name="plus" format="1">
  <advance width="600"/>
  <unicode hex="002B"/>
  <outline>
    <contour>
      <point x="267" y="642" type="line"/>
      <point x="267" y="423" type="line"/>
      <point x="48" y="423" type="line"/>
      <point x="48" y="357" type="line"/>
      <point x="267" y="357" type="line"/>
      <point x="267" y="138" type="line"/>
      <point x="333" y="138" type="line"/>
      <point x="333" y="357" type="line"/>
      <point x="552" y="357" type="line"/>
      <point x="552" y="423" type="line"/>
      <point x="333" y="423" type="line"/>
      <point x="333" y="642" type="line"/>
    </contour>
  </outline>
</glyph>
<glyph name="comma" format="1">
  <advance width="216"/>
  <unicode hex="002C"/>
  <outline>
    <contour>
      <point x="153" y="90" type="line"/>
      <point x="63" y="90" type="line"/>
      <point x="63" y="0" type="line"/>
      <point x="110" y="0" type="line"/>
      <point x="106" y="-57"/>
      <point x="81" y="-76"/>
      <point x="40" y="-76" type="curve"/>
      <point x="40" y="-118" type="line"/>
      <point x="114" y="-118"/>
      <point x="153" y="-73"/>
      <point x="153" y="18" type="curve" smooth="yes"/>
    </contour>
  </outline>
</glyph>
<glyph name="slash" format="1">
  <advance width="330"/>
  <unicode hex="002F"/>
  <outline>
    <contour>
      <point x="315" y="840" type="line"/>
      <point x="245" y="840" type="line"/>
      <point x="15" y="-120" type="line"/>
      <point x="85" y="-120" type="line"/>
    </contour>
  </outline>
</glyph>
<glyph name="zero" format="1">
  <advance width="600"/>
  <unicode hex="0030"/>
  <outline>
    <contour>
      <point x="62" y="556" type="curve" smooth="yes"/>
      <point x="62" y="224" type="line" smooth="yes"/>
      <point x="62" y="89"/>
      <point x="130" y="-11"/>
      <point x="300" y="-11" type="curve" smooth="yes"/>
      <point x="470" y="-11"/>
      <point x="538" y="89"/>
      <point x="538" y="224" type="curve" smooth="yes"/>
      <point x="538" y="556" type="line" smooth="yes"/>
      <point x="538" y="691"/>
      <point x="470" y="791"/>
      <point x="300" y="791" type="curve" smooth="yes"/>
      <point x="130" y="791"/>
      <point x="62" y="691"/>
    </contour>
    <contour>
      <point x="467" y="548" type="curve" smooth="yes"/>
      <point x="467" y="232" type="line" smooth="yes"/>
      <point x="467" y="124"/>
      <point x="425" y="53"/>
      <point x="303" y="53" type="curve" smooth="yes"/>
      <point x="297" y="53" type="line" smooth="yes"/>
      <point x="175" y="53"/>
      <point x="133" y="124"/>
      <point x="133" y="232" type="curve" smooth="yes"/>
      <point x="133" y="548" type="line" smooth="yes"/>
      <point x="133" y="656"/>
      <point x="175" y="727"/>
      <point x="297" y="727" type="curve" smooth="yes"/>
      <point x="303" y="727" type="line" smooth="yes"/>
      <point x="425" y="727"/>
      <point x="467" y="656"/>
    </contour>
  </outline>
</glyph>
<glyph name="one" format="1">
  <advance width="600"/>
  <unicode hex="0031"/>
  <outline>
    <contour>
      <point x="549" y="0" type="line"/>
      <point x="549" y="65" type="line"/>
      <point x="346" y="65" type="line"/>
      <point x="346" y="784" type="line"/>
      <point x="300" y="784" type="line"/>
      <point x="55" y="618" type="line"/>
      <point x="91" y="563" type="line"/>
      <point x="275" y="688" type="line"/>
      <point x="275" y="65" type="line"/>
      <point x="71" y="65" type="line"/>
      <point x="71" y="0" type="line"/>
    </contour>
  </outline>
</glyph>
<glyph name="two" format="1">
  <advance width="600"/>
  <unicode hex="0032"/>
  <outline>
    <contour>
      <point x="240" y="65" type="line"/>
      <point x="165" y="64" type="line"/>
      <point x="453" y="370" type="line" smooth="yes"/>
      <point x="523" y="444"/>
      <point x="544" y="491"/>
      <point x="544" y="571" type="curve" smooth="yes"/>
      <point x="544" y="583" type="line" smooth="yes"/>
      <point x="544" y="706"/>
      <point x="458" y="791"/>
      <point x="300" y="791" type="curve" smooth="yes"/>
      <point x="131" y="791"/>
      <point x="56" y="701"/>
      <point x="56" y="544" type="curve" smooth="yes"/>
      <point x="56" y="520" type="line"/>
      <point x="127" y="520" type="line"/>
      <point x="127" y="667"/>
      <point x="184" y="727"/>
      <point x="297" y="727" type="curve" smooth="yes"/>
      <point x="303" y="727" type="line" smooth="yes"/>
      <point x="404" y="727"/>
      <point x="473" y="668"/>
      <point x="473" y="572" type="curve" smooth="yes"/>
      <point x="473" y="562" type="line" smooth="yes"/>
      <point x="473" y="505"/>
      <point x="453" y="465"/>
      <point x="393" y="403" type="curve" smooth="yes"/>
      <point x="56" y="45" type="line"/>
      <point x="56" y="0" type="line"/>
      <point x="544" y="0" type="line"/>
      <point x="544" y="65" type="line"/>
    </contour>
  </outline>
</glyph>
<glyph name="three" format="1">
  <advance width="600"/>
  <unicode hex="0033"/>
  <outline>
    <contour>
      <point x="122" y="250" type="curve"/>
      <point x="51" y="250" type="line"/>
      <point x="51" y="239" type="line" smooth="yes"/>
      <point x="51" y="85"/>
      <point x="130" y="-11"/>
      <point x="300" y="-11" type="curve" smooth="yes"/>
      <point x="447" y="-11"/>
      <point x="549" y="76"/>
      <point x="549" y="200" type="curve" smooth="yes"/>
      <point x="549" y="216" type="line" smooth="yes"/>
      <point x="549" y="311"/>
      <point x="497" y="371"/>
      <point x="423" y="398" type="curve"/>
      <point x="494" y="423"/>
      <point x="544" y="478"/>
      <point x="544" y="570" type="curve" smooth="yes"/>
      <point x="544" y="585" type="line" smooth="yes"/>
      <point x="544" y="706"/>
      <point x="458" y="791"/>
      <point x="300" y="791" type="curve" smooth="yes"/>
      <point x="131" y="791"/>
      <point x="56" y="701"/>
      <point x="56" y="544" type="curve" smooth="yes"/>
      <point x="56" y="520" type="line"/>
      <point x="127" y="520" type="line"/>
      <point x="127" y="667"/>
      <point x="182" y="727"/>
      <point x="295" y="727" type="curve" smooth="yes"/>
      <point x="305" y="727" type="line" smooth="yes"/>
      <point x="405" y="727"/>
      <point x="473" y="668"/>
      <point x="473" y="576" type="curve" smooth="yes"/>
      <point x="473" y="569" type="line" smooth="yes"/>
      <point x="473" y="472"/>
      <point x="401" y="430"/>
      <point x="310" y="430" type="curve" smooth="yes"/>
      <point x="200" y="430" type="line"/>
      <point x="200" y="366" type="line"/>
      <point x="314" y="366" type="line" smooth="yes"/>
      <point x="406" y="366"/>
      <point x="478" y="317"/>
      <point x="478" y="217" type="curve" smooth="yes"/>
      <point x="478" y="203" type="line" smooth="yes"/>
      <point x="478" y="101"/>
      <point x="394" y="53"/>
      <point x="305" y="53" type="curve" smooth="yes"/>
      <point x="295" y="53" type="line" smooth="yes"/>
      <point x="187" y="53"/>
      <point x="122" y="114"/>
    </contour>
  </outline>
</glyph>
<glyph name="four" format="1">
  <advance width="600"/>
  <unicode hex="0034"/>
  <outline>
    <contour>
      <point x="438" y="0" type="line"/>
      <point x="438" y="207" type="line"/>
      <point x="567" y="207" type="line"/>
      <point x="567" y="272" type="line"/>
      <point x="438" y="272" type="line"/>
      <point x="438" y="780" type="line"/>
      <point x="369" y="780" type="line"/>
      <point x="33" y="255" type="line"/>
      <point x="33" y="207" type="line"/>
      <point x="367" y="207" type="line"/>
      <point x="367" y="0" type="line"/>
    </contour>
    <contour>
      <point x="368" y="658" type="line"/>
      <point x="367" y="556" type="line"/>
      <point x="367" y="272" type="line"/>
      <point x="207" y="272" type="line"/>
      <point x="121" y="271" type="line"/>
    </contour>
  </outline>
</glyph>
<glyph name="five" format="1">
  <advance width="600"/>
  <unicode hex="0035"/>
  <outline>
    <contour>
      <point x="51" y="250" type="line"/>
      <point x="51" y="239" type="line" smooth="yes"/>
      <point x="51" y="85"/>
      <point x="130" y="-11"/>
      <point x="300" y="-11" type="curve" smooth="yes"/>
      <point x="443" y="-11"/>
      <point x="549" y="75"/>
      <point x="549" y="236" type="curve" smooth="yes"/>
      <point x="549" y="248" type="line" smooth="yes"/>
      <point x="549" y="408"/>
      <point x="443" y="494"/>
      <point x="302" y="494" type="curve" smooth="yes"/>
      <point x="233" y="494"/>
      <point x="174" y="473"/>
      <point x="132" y="438" type="curve"/>
      <point x="145" y="715" type="line"/>
      <point x="539" y="715" type="line"/>
      <point x="539" y="780" type="line"/>
      <point x="76" y="780" type="line"/>
      <point x="57" y="342" type="line"/>
      <point x="117" y="324" type="line"/>
      <point x="147" y="395"/>
      <point x="222" y="430"/>
      <point x="294" y="430" type="curve" smooth="yes"/>
      <point x="303" y="430" type="line" smooth="yes"/>
      <point x="394" y="430"/>
      <point x="478" y="377"/>
      <point x="478" y="251" type="curve" smooth="yes"/>
      <point x="478" y="233" type="line" smooth="yes"/>
      <point x="478" y="107"/>
      <point x="394" y="53"/>
      <point x="305" y="53" type="curve" smooth="yes"/>
      <point x="295" y="53" type="line" smooth="yes"/>
      <point x="187" y="53"/>
      <point x="122" y="114"/>
      <point x="122" y="250" type="curve"/>
    </contour>
  </outline>
</glyph>
<glyph name="six" format="1">
  <advance width="600"/>
  <unicode hex="0036"/>
  <outline>
    <contour>
      <point x="517" y="791" type="line"/>
      <point x="391" y="791"/>
      <point x="251" y="746"/>
      <point x="165" y="631" type="curve" smooth="yes"/>
      <point x="82" y="520"/>
      <point x="55" y="398"/>
      <point x="55" y="274" type="curve" smooth="yes"/>
      <point x="55" y="263" type="line" smooth="yes"/>
      <point x="55" y="88"/>
      <point x="160" y="-11"/>
      <point x="304" y="-11" type="curve" smooth="yes"/>
      <point x="453" y="-11"/>
      <point x="553" y="71"/>
      <point x="553" y="235" type="curve" smooth="yes"/>
      <point x="553" y="245" type="line" smooth="yes"/>
      <point x="553" y="410"/>
      <point x="453" y="490"/>
      <point x="319" y="490" type="curve" smooth="yes"/>
      <point x="245" y="490"/>
      <point x="185" y="461"/>
      <point x="143" y="418" type="curve"/>
      <point x="157" y="478"/>
      <point x="182" y="537"/>
      <point x="222" y="589" type="curve" smooth="yes"/>
      <point x="297" y="687"/>
      <point x="414" y="727"/>
      <point x="517" y="727" type="curve"/>
    </contour>
    <contour>
      <point x="306" y="426" type="curve" smooth="yes"/>
      <point x="312" y="426" type="line" smooth="yes"/>
      <point x="414" y="426"/>
      <point x="482" y="363"/>
      <point x="482" y="249" type="curve" smooth="yes"/>
      <point x="482" y="232" type="line" smooth="yes"/>
      <point x="482" y="119"/>
      <point x="413" y="53"/>
      <point x="307" y="53" type="curve" smooth="yes"/>
      <point x="301" y="53" type="line" smooth="yes"/>
      <point x="204" y="53"/>
      <point x="126" y="131"/>
      <point x="126" y="260" type="curve" smooth="yes"/>
      <point x="126" y="270" type="line" smooth="yes"/>
      <point x="126" y="285"/>
      <point x="126" y="301"/>
      <point x="127" y="316" type="curve"/>
      <point x="161" y="382"/>
      <point x="227" y="426"/>
    </contour>
  </outline>
</glyph>
<glyph name="seven" format="1">
  <advance width="600"/>
  <unicode hex="0037"/>
  <outline>
    <contour>
      <point x="58" y="500" type="line"/>
      <point x="123" y="500" type="line"/>
      <point x="123" y="715" type="line"/>
      <point x="356" y="715" type="line"/>
      <point x="466" y="716" type="line"/>
      <point x="174" y="0" type="line"/>
      <point x="251" y="0" type="line"/>
      <point x="550" y="736" type="line"/>
      <point x="550" y="780" type="line"/>
      <point x="58" y="780" type="line"/>
    </contour>
  </outline>
</glyph>
<glyph name="eight" format="1">
  <advance width="600"/>
  <unicode hex="0038"/>
  <outline>
    <contour>
      <point x="300" y="-11" type="curve" smooth="yes"/>
      <point x="447" y="-11"/>
      <point x="549" y="74"/>
      <point x="549" y="198" type="curve" smooth="yes"/>
      <point x="549" y="214" type="line" smooth="yes"/>
      <point x="549" y="310"/>
      <point x="496" y="370"/>
      <point x="422" y="398" type="curve"/>
      <point x="494" y="424"/>
      <point x="544" y="480"/>
      <point x="544" y="572" type="curve" smooth="yes"/>
      <point x="544" y="587" type="line" smooth="yes"/>
      <point x="544" y="708"/>
      <point x="458" y="791"/>
      <point x="300" y="791" type="curve" smooth="yes"/>
      <point x="142" y="791"/>
      <point x="56" y="708"/>
      <point x="56" y="587" type="curve" smooth="yes"/>
      <point x="56" y="572" type="line" smooth="yes"/>
      <point x="56" y="480"/>
      <point x="106" y="424"/>
      <point x="177" y="398" type="curve"/>
      <point x="103" y="370"/>
      <point x="51" y="310"/>
      <point x="51" y="214" type="curve" smooth="yes"/>
      <point x="51" y="198" type="line" smooth="yes"/>
      <point x="51" y="74"/>
      <point x="153" y="-11"/>
    </contour>
    <contour>
      <point x="286" y="366" type="curve" smooth="yes"/>
      <point x="314" y="366" type="line" smooth="yes"/>
      <point x="406" y="366"/>
      <point x="478" y="315"/>
      <point x="478" y="215" type="curve" smooth="yes"/>
      <point x="478" y="201" type="line" smooth="yes"/>
      <point x="478" y="98"/>
      <point x="394" y="53"/>
      <point x="305" y="53" type="curve" smooth="yes"/>
      <point x="295" y="53" type="line" smooth="yes"/>
      <point x="206" y="53"/>
      <point x="122" y="98"/>
      <point x="122" y="201" type="curve" smooth="yes"/>
      <point x="122" y="215" type="line" smooth="yes"/>
      <point x="122" y="315"/>
      <point x="194" y="366"/>
    </contour>
    <contour>
      <point x="305" y="727" type="line" smooth="yes"/>
      <point x="405" y="727"/>
      <point x="473" y="670"/>
      <point x="473" y="579" type="curve" smooth="yes"/>
      <point x="473" y="571" type="line" smooth="yes"/>
      <point x="473" y="475"/>
      <point x="401" y="430"/>
      <point x="310" y="430" type="curve" smooth="yes"/>
      <point x="290" y="430" type="line" smooth="yes"/>
      <point x="199" y="430"/>
      <point x="127" y="475"/>
      <point x="127" y="571" type="curve" smooth="yes"/>
      <point x="127" y="579" type="line" smooth="yes"/>
      <point x="127" y="670"/>
      <point x="195" y="727"/>
      <point x="295" y="727" type="curve" smooth="yes"/>
    </contour>
  </outline>
</glyph>
<glyph name="nine" format="1">
  <advance width="600"/>
  <unicode hex="0039"/>
  <outline>
    <contour>
      <point x="83" y="-11" type="line"/>
      <point x="209" y="-11"/>
      <point x="349" y="34"/>
      <point x="435" y="149" type="curve" smooth="yes"/>
      <point x="518" y="260"/>
      <point x="545" y="382"/>
      <point x="545" y="506" type="curve" smooth="yes"/>
      <point x="545" y="517" type="line" smooth="yes"/>
      <point x="545" y="692"/>
      <point x="440" y="791"/>
      <point x="296" y="791" type="curve" smooth="yes"/>
      <point x="147" y="791"/>
      <point x="47" y="709"/>
      <point x="47" y="545" type="curve" smooth="yes"/>
      <point x="47" y="535" type="line" smooth="yes"/>
      <point x="47" y="370"/>
      <point x="147" y="290"/>
      <point x="281" y="290" type="curve" smooth="yes"/>
      <point x="355" y="290"/>
      <point x="414" y="318"/>
      <point x="457" y="361" type="curve"/>
      <point x="442" y="301"/>
      <point x="418" y="243"/>
      <point x="378" y="191" type="curve" smooth="yes"/>
      <point x="303" y="93"/>
      <point x="186" y="53"/>
      <point x="83" y="53" type="curve"/>
    </contour>
    <contour>
      <point x="294" y="354" type="curve" smooth="yes"/>
      <point x="288" y="354" type="line" smooth="yes"/>
      <point x="186" y="354"/>
      <point x="118" y="417"/>
      <point x="118" y="531" type="curve" smooth="yes"/>
      <point x="118" y="548" type="line" smooth="yes"/>
      <point x="118" y="661"/>
      <point x="187" y="727"/>
      <point x="293" y="727" type="curve" smooth="yes"/>
      <point x="299" y="727" type="line" smooth="yes"/>
      <point x="396" y="727"/>
      <point x="474" y="649"/>
      <point x="474" y="520" type="curve" smooth="yes"/>
      <point x="474" y="510" type="line" smooth="yes"/>
      <point x="474" y="494"/>
      <point x="473" y="479"/>
      <point x="472" y="463" type="curve"/>
      <point x="439" y="398"/>
      <point x="372" y="354"/>
    </contour>
  </outline>
</glyph>
<glyph name="colon" format="1">
  <advance width="216"/>
  <unicode hex="003A"/>
  <outline>
    <contour>
      <point x="153" y="90" type="line"/>
      <point x="63" y="90" type="line"/>
      <point x="63" y="0" type="line"/>
      <point x="153" y="0" type="line"/>
    </contour>
    <contour>
      <point x="153" y="435" type="line"/>
      <point x="63" y="435" type="line"/>
      <point x="63" y="345" type="line"/>
      <point x="153" y="345" type="line"/>
    </contour>
  </outline>
</glyph>
<glyph name="less" format="1">
  <advance width="600"/>
  <unicode hex="003C"/>
  <outline>
    <contour>
      <point x="48" y="425" type="line"/>
      <point x="48" y="355" type="line"/>
      <point x="552" y="120" type="line"/>
      <point x="552" y="192" type="line"/>
      <point x="118" y="390" type="line"/>
      <point x="552" y="588" type="line"/>
      <point x="552" y="660" type="line"/>
    </contour>
  </outline>
</glyph>
<glyph name="equal" format="1">
  <advance width="600"/>
  <unicode hex="003D"/>
  <outline>
    <contour>
      <point x="48" y="459" type="line"/>
      <point x="552" y="459" type="line"/>
      <point x="552" y="525" type="line"/>
      <point x="48" y="525" type="line"/>
    </contour>
    <contour>
      <point x="48" y="255" type="line"/>
      <point x="552" y="255" type="line"/>
      <point x="552" y="321" type="line"/>
      <point x="48" y="321" type="line"/>
    </contour>
  </outline>
</glyph>
<glyph name="greater" format="1">
  <advance width="600"/>
  <unicode hex="003E"/>
  <outline>
    <contour>
      <point x="552" y="425" type="line"/>
      <point x="48" y="660" type="line"/>
      <point x="48" y="588" type="line"/>
      <point x="481" y="390" type="line"/>
      <point x="48" y="192" type="line"/>
      <point x="48" y="120" type="line"/>
      <point x="552" y="355" type="line"/>
    </contour>
  </outline>
</glyph>
<glyph name="question" format="1">
  <advance width="455"/>
  <unicode hex="003F"/>
  <outline>
    <contour>
      <point x="231" y="726" type="curve" smooth="yes"/>
      <point x="327" y="726"/>
      <point x="354" y="669"/>
      <point x="354" y="576" type="curve" smooth="yes"/>
      <point x="354" y="436"/>
      <point x="196" y="390"/>
      <point x="203" y="189" type="curve"/>
      <point x="250" y="189" type="line"/>
      <point x="257" y="390"/>
      <point x="427" y="384"/>
      <point x="427" y="583" type="curve" smooth="yes"/>
      <point x="427" y="708"/>
      <point x="371" y="791"/>
      <point x="231" y="791" type="curve" smooth="yes"/>
      <point x="68" y="791"/>
      <point x="26" y="672"/>
      <point x="26" y="516" type="curve" smooth="yes"/>
      <point x="26" y="504" type="line"/>
      <point x="97" y="504" type="line"/>
      <point x="97" y="641"/>
      <point x="126" y="726"/>
    </contour>
    <contour>
      <point x="271" y="90" type="line"/>
      <point x="181" y="90" type="line"/>
      <point x="181" y="0" type="line"/>
      <point x="271" y="0" type="line"/>
    </contour>
  </outline>
</glyph>
<glyph name="at" format="1">
  <advance width="961"/>
  <unicode hex="0040"/>
  <outline>
    <contour>
      <point x="501" y="-156" type="line" smooth="yes"/>
      <point x="260" y="-156"/>
      <point x="90" y="-7"/>
      <point x="90" y="270" type="curve" smooth="yes"/>
      <point x="90" y="310" type="line" smooth="yes"/>
      <point x="90" y="579"/>
      <point x="257" y="736"/>
      <point x="496" y="736" type="curve" smooth="yes"/>
      <point x="502" y="736" type="line" smooth="yes"/>
      <point x="692" y="736"/>
      <point x="869" y="638"/>
      <point x="869" y="388" type="curve" smooth="yes"/>
      <point x="869" y="358" type="line" smooth="yes"/>
      <point x="869" y="153"/>
      <point x="788" y="117"/>
      <point x="663" y="114" type="curve"/>
      <point x="663" y="383" type="line"/>
      <point x="669" y="530" type="line"/>
      <point x="615" y="530" type="line"/>
      <point x="605" y="457" type="line"/>
      <point x="578" y="502"/>
      <point x="528" y="541"/>
      <point x="450" y="541" type="curve" smooth="yes"/>
      <point x="311" y="541"/>
      <point x="254" y="429"/>
      <point x="254" y="307" type="curve" smooth="yes"/>
      <point x="254" y="283" type="line" smooth="yes"/>
      <point x="254" y="161"/>
      <point x="311" y="49"/>
      <point x="450" y="49" type="curve" smooth="yes"/>
      <point x="528" y="49"/>
      <point x="578" y="87"/>
      <point x="605" y="133" type="curve"/>
      <point x="615" y="60" type="line"/>
      <point x="661" y="60" type="line" smooth="yes"/>
      <point x="816" y="60"/>
      <point x="928" y="118"/>
      <point x="928" y="358" type="curve" smooth="yes"/>
      <point x="928" y="388" type="line" smooth="yes"/>
      <point x="928" y="662"/>
      <point x="732" y="791"/>
      <point x="499" y="791" type="curve" smooth="yes"/>
      <point x="223" y="791"/>
      <point x="33" y="613"/>
      <point x="33" y="310" type="curve" smooth="yes"/>
      <point x="33" y="270" type="line" smooth="yes"/>
      <point x="33" y="-33"/>
      <point x="227" y="-211"/>
      <point x="504" y="-211" type="curve" smooth="yes"/>
      <point x="621" y="-211"/>
      <point x="751" y="-187"/>
      <point x="868" y="-95" type="curve"/>
      <point x="836" y="-52" type="line"/>
      <point x="736" y="-126"/>
      <point x="628" y="-156"/>
      <point x="507" y="-156" type="curve" smooth="yes"/>
    </contour>
    <contour>
      <point x="465" y="109" type="curve" smooth="yes"/>
      <point x="366" y="109"/>
      <point x="323" y="184"/>
      <point x="323" y="283" type="curve" smooth="yes"/>
      <point x="323" y="307" type="line" smooth="yes"/>
      <point x="323" y="406"/>
      <point x="366" y="481"/>
      <point x="465" y="481" type="curve" smooth="yes"/>
      <point x="532" y="481"/>
      <point x="576" y="435"/>
      <point x="598" y="401" type="curve"/>
      <point x="598" y="189" type="line"/>
      <point x="576" y="155"/>
      <point x="532" y="109"/>
    </contour>
  </outline>
</glyph>
<glyph name="C" format="1">
  <advance width="618"/>
  <unicode hex="0043"/>
  <outline>
    <contour>
      <point x="131" y="370" type="curve" smooth="yes"/>
      <point x="131" y="410" type="line" smooth="yes"/>
      <point x="131" y="632"/>
      <point x="191" y="726"/>
      <point x="321" y="726" type="curve" smooth="yes"/>
      <point x="328" y="726" type="line" smooth="yes"/>
      <point x="445" y="726"/>
      <point x="494" y="657"/>
      <point x="494" y="496" type="curve"/>
      <point x="568" y="496" type="line"/>
      <point x="568" y="524" type="line" smooth="yes"/>
      <point x="568" y="700"/>
      <point x="488" y="791"/>
      <point x="322" y="791" type="curve" smooth="yes"/>
      <point x="143" y="791"/>
      <point x="57" y="680"/>
      <point x="57" y="410" type="curve" smooth="yes"/>
      <point x="57" y="370" type="line" smooth="yes"/>
      <point x="57" y="100"/>
      <point x="143" y="-11"/>
      <point x="322" y="-11" type="curve" smooth="yes"/>
      <point x="488" y="-11"/>
      <point x="568" y="80"/>
      <point x="568" y="244" type="curve" smooth="yes"/>
      <point x="568" y="254" type="line"/>
      <point x="494" y="254" type="line"/>
      <point x="494" y="125"/>
      <point x="445" y="54"/>
      <point x="328" y="54" type="curve" smooth="yes"/>
      <point x="321" y="54" type="line" smooth="yes"/>
      <point x="190" y="54"/>
      <point x="131" y="148"/>
    </contour>
  </outline>
</glyph>
<glyph name="E" format="1">
  <advance width="549"/>
  <unicode hex="0045"/>
  <outline>
    <contour>
      <point x="74" y="780" type="line"/>
      <point x="74" y="0" type="line"/>
      <point x="509" y="0" type="line"/>
      <point x="509" y="65" type="line"/>
      <point x="146" y="65" type="line"/>
      <point x="146" y="366" type="line"/>
      <point x="459" y="366" type="line"/>
      <point x="459" y="430" type="line"/>
      <point x="146" y="430" type="line"/>
      <point x="146" y="715" type="line"/>
      <point x="509" y="715" type="line"/>
      <point x="509" y="780" type="line"/>
    </contour>
  </outline>
</glyph>
<glyph name="G" format="1">
  <advance width="648"/>
  <unicode hex="0047"/>
  <outline>
    <contour>
      <point x="341" y="-11" type="curve" smooth="yes"/>
      <point x="465" y="-11"/>
      <point x="537" y="35"/>
      <point x="579" y="79" type="curve"/>
      <point x="579" y="384" type="line"/>
      <point x="373" y="384" type="line"/>
      <point x="373" y="320" type="line"/>
      <point x="507" y="320" type="line"/>
      <point x="507" y="114" type="line"/>
      <point x="479" y="84"/>
      <point x="425" y="54"/>
      <point x="346" y="54" type="curve" smooth="yes"/>
      <point x="339" y="54" type="line" smooth="yes"/>
      <point x="196" y="54"/>
      <point x="132" y="148"/>
      <point x="132" y="370" type="curve" smooth="yes"/>
      <point x="132" y="410" type="line" smooth="yes"/>
      <point x="132" y="632"/>
      <point x="199" y="726"/>
      <point x="331" y="726" type="curve" smooth="yes"/>
      <point x="337" y="726" type="line" smooth="yes"/>
      <point x="457" y="726"/>
      <point x="506" y="657"/>
      <point x="506" y="496" type="curve"/>
      <point x="579" y="496" type="line"/>
      <point x="579" y="524" type="line" smooth="yes"/>
      <point x="579" y="700"/>
      <point x="498" y="791"/>
      <point x="331" y="791" type="curve" smooth="yes"/>
      <point x="153" y="791"/>
      <point x="57" y="680"/>
      <point x="57" y="410" type="curve" smooth="yes"/>
      <point x="57" y="370" type="line" smooth="yes"/>
      <point x="57" y="100"/>
      <point x="153" y="-11"/>
    </contour>
  </outline>
</glyph>
<glyph name="K" format="1">
  <advance width="562"/>
  <unicode hex="004B"/>
  <outline>
    <contour>
      <point x="146" y="780" type="line"/>
      <point x="74" y="780" type="line"/>
      <point x="74" y="0" type="line"/>
      <point x="146" y="0" type="line"/>
      <point x="146" y="240" type="line"/>
      <point x="250" y="387" type="line"/>
      <point x="446" y="0" type="line"/>
      <point x="528" y="0" type="line"/>
      <point x="296" y="452" type="line"/>
      <point x="528" y="780" type="line"/>
      <point x="440" y="780" type="line"/>
      <point x="146" y="352" type="line"/>
    </contour>
  </outline>
</glyph>
<glyph name="L" format="1">
  <advance width="491"/>
  <unicode hex="004C"/>
  <outline>
    <contour>
      <point x="476" y="0" type="line"/>
      <point x="476" y="65" type="line"/>
      <point x="146" y="65" type="line"/>
      <point x="146" y="780" type="line"/>
      <point x="74" y="780" type="line"/>
      <point x="74" y="0" type="line"/>
    </contour>
  </outline>
</glyph>
<glyph name="M" format="1">
  <advance width="803"/>
  <unicode hex="004D"/>
  <outline>
    <contour>
      <point x="661" y="655" type="line"/>
      <point x="658" y="481" type="line"/>
      <point x="658" y="0" type="line"/>
      <point x="730" y="0" type="line"/>
      <point x="730" y="780" type="line"/>
      <point x="629" y="780" type="line"/>
      <point x="402" y="124" type="line"/>
      <point x="175" y="780" type="line"/>
      <point x="74" y="780" type="line"/>
      <point x="74" y="0" type="line"/>
      <point x="146" y="0" type="line"/>
      <point x="146" y="481" type="line"/>
      <point x="142" y="655" type="line"/>
      <point x="369" y="0" type="line"/>
      <point x="434" y="0" type="line"/>
    </contour>
  </outline>
</glyph>
<glyph name="N" format="1">
  <advance width="659"/>
  <unicode hex="004E"/>
  <outline>
    <contour>
      <point x="585" y="780" type="line"/>
      <point x="517" y="780" type="line"/>
      <point x="517" y="303" type="line"/>
      <point x="520" y="122" type="line"/>
      <point x="152" y="780" type="line"/>
      <point x="74" y="780" type="line"/>
      <point x="74" y="0" type="line"/>
      <point x="142" y="0" type="line"/>
      <point x="142" y="477" type="line"/>
      <point x="138" y="658" type="line"/>
      <point x="507" y="0" type="line"/>
      <point x="585" y="0" type="line"/>
    </contour>
  </outline>
</glyph>
<glyph name="O" format="1">
  <advance width="649"/>
  <unicode hex="004F"/>
  <outline>
    <contour>
      <point x="324" y="-11" type="curve" smooth="yes"/>
      <point x="503" y="-11"/>
      <point x="592" y="100"/>
      <point x="592" y="370" type="curve" smooth="yes"/>
      <point x="592" y="410" type="line" smooth="yes"/>
      <point x="592" y="680"/>
      <point x="503" y="791"/>
      <point x="324" y="791" type="curve" smooth="yes"/>
      <point x="146" y="791"/>
      <point x="57" y="680"/>
      <point x="57" y="410" type="curve" smooth="yes"/>
      <point x="57" y="370" type="line" smooth="yes"/>
      <point x="57" y="100"/>
      <point x="146" y="-11"/>
    </contour>
    <contour>
      <point x="321" y="54" type="line" smooth="yes"/>
      <point x="190" y="54"/>
      <point x="131" y="148"/>
      <point x="131" y="370" type="curve" smooth="yes"/>
      <point x="131" y="410" type="line" smooth="yes"/>
      <point x="131" y="632"/>
      <point x="190" y="726"/>
      <point x="321" y="726" type="curve" smooth="yes"/>
      <point x="328" y="726" type="line" smooth="yes"/>
      <point x="459" y="726"/>
      <point x="518" y="632"/>
      <point x="518" y="410" type="curve" smooth="yes"/>
      <point x="518" y="370" type="line" smooth="yes"/>
      <point x="518" y="148"/>
      <point x="459" y="54"/>
      <point x="328" y="54" type="curve" smooth="yes"/>
    </contour>
  </outline>
</glyph>
<glyph name="P" format="1">
  <advance width="573"/>
  <unicode hex="0050"/>
  <outline>
    <contour>
      <point x="146" y="317" type="line"/>
      <point x="290" y="317" type="line" smooth="yes"/>
      <point x="401" y="317"/>
      <point x="529" y="359"/>
      <point x="529" y="538" type="curve" smooth="yes"/>
      <point x="529" y="558" type="line" smooth="yes"/>
      <point x="529" y="738"/>
      <point x="401" y="780"/>
      <point x="290" y="780" type="curve" smooth="yes"/>
      <point x="74" y="780" type="line"/>
      <point x="74" y="0" type="line"/>
      <point x="146" y="0" type="line"/>
    </contour>
    <contour>
      <point x="146" y="382" type="line"/>
      <point x="146" y="715" type="line"/>
      <point x="292" y="715" type="line" smooth="yes"/>
      <point x="359" y="715"/>
      <point x="455" y="690"/>
      <point x="455" y="556" type="curve" smooth="yes"/>
      <point x="455" y="541" type="line" smooth="yes"/>
      <point x="455" y="407"/>
      <point x="359" y="382"/>
      <point x="292" y="382" type="curve" smooth="yes"/>
    </contour>
  </outline>
</glyph>
<glyph name="Q" format="1">
  <advance width="649"/>
  <unicode hex="0051"/>
  <outline>
    <contour>
      <point x="324" y="-11" type="curve" smooth="yes"/>
      <point x="343" y="-11"/>
      <point x="361" y="-9"/>
      <point x="378" y="-7" type="curve"/>
      <point x="413" y="-100" type="line"/>
      <point x="479" y="-100" type="line"/>
      <point x="437" y="9" type="line"/>
      <point x="540" y="51"/>
      <point x="592" y="164"/>
      <point x="592" y="370" type="curve" smooth="yes"/>
      <point x="592" y="410" type="line" smooth="yes"/>
      <point x="592" y="680"/>
      <point x="503" y="791"/>
      <point x="324" y="791" type="curve" smooth="yes"/>
      <point x="146" y="791"/>
      <point x="57" y="680"/>
      <point x="57" y="410" type="curve" smooth="yes"/>
      <point x="57" y="370" type="line" smooth="yes"/>
      <point x="57" y="100"/>
      <point x="146" y="-11"/>
    </contour>
    <contour>
      <point x="353" y="226" type="line"/>
      <point x="291" y="226" type="line"/>
      <point x="355" y="55" type="line"/>
      <point x="346" y="54"/>
      <point x="337" y="54"/>
      <point x="328" y="54" type="curve" smooth="yes"/>
      <point x="321" y="54" type="line" smooth="yes"/>
      <point x="190" y="54"/>
      <point x="131" y="148"/>
      <point x="131" y="370" type="curve" smooth="yes"/>
      <point x="131" y="410" type="line" smooth="yes"/>
      <point x="131" y="632"/>
      <point x="190" y="726"/>
      <point x="321" y="726" type="curve" smooth="yes"/>
      <point x="328" y="726" type="line" smooth="yes"/>
      <point x="459" y="726"/>
      <point x="518" y="632"/>
      <point x="518" y="410" type="curve" smooth="yes"/>
      <point x="518" y="370" type="line" smooth="yes"/>
      <point x="518" y="203"/>
      <point x="484" y="108"/>
      <point x="412" y="72" type="curve"/>
    </contour>
  </outline>
</glyph>
<glyph name="R" format="1">
  <advance width="584"/>
  <unicode hex="0052"/>
  <outline>
    <contour>
      <point x="146" y="317" type="line"/>
      <point x="290" y="317" type="line" smooth="yes"/>
      <point x="302" y="317"/>
      <point x="314" y="317"/>
      <point x="326" y="318" type="curve"/>
      <point x="450" y="0" type="line"/>
      <point x="529" y="0" type="line"/>
      <point x="394" y="332" type="line"/>
      <point x="468" y="356"/>
      <point x="529" y="414"/>
      <point x="529" y="538" type="curve" smooth="yes"/>
      <point x="529" y="558" type="line" smooth="yes"/>
      <point x="529" y="738"/>
      <point x="401" y="780"/>
      <point x="290" y="780" type="curve" smooth="yes"/>
      <point x="74" y="780" type="line"/>
      <point x="74" y="0" type="line"/>
      <point x="146" y="0" type="line"/>
    </contour>
    <contour>
      <point x="146" y="382" type="line"/>
      <point x="146" y="715" type="line"/>
      <point x="292" y="715" type="line" smooth="yes"/>
      <point x="359" y="715"/>
      <point x="455" y="690"/>
      <point x="455" y="556" type="curve" smooth="yes"/>
      <point x="455" y="541" type="line" smooth="yes"/>
      <point x="455" y="407"/>
      <point x="359" y="382"/>
      <point x="292" y="382" type="curve" smooth="yes"/>
    </contour>
  </outline>
</glyph>
<glyph name="T" format="1">
  <advance width="515"/>
  <unicode hex="0054"/>
  <outline>
    <contour>
      <point x="293" y="715" type="line"/>
      <point x="492" y="715" type="line"/>
      <point x="492" y="780" type="line"/>
      <point x="23" y="780" type="line"/>
      <point x="23" y="715" type="line"/>
      <point x="221" y="715" type="line"/>
      <point x="221" y="0" type="line"/>
      <point x="293" y="0" type="line"/>
    </contour>
  </outline>
</glyph>
<glyph name="V" format="1">
  <advance width="611"/>
  <unicode hex="0056"/>
  <outline>
    <contour>
      <point x="357" y="-8" type="line"/>
      <point x="582" y="780" type="line"/>
      <point x="504" y="780" type="line"/>
      <point x="305" y="71" type="line"/>
      <point x="107" y="780" type="line"/>
      <point x="29" y="780" type="line"/>
      <point x="254" y="-8" type="line"/>
    </contour>
  </outline>
</glyph>
<glyph name="W" format="1">
  <advance width="895"/>
  <unicode hex="0057"/>
  <outline>
    <contour>
      <point x="610" y="-8" type="line"/>
      <point x="709" y="-8" type="line"/>
      <point x="854" y="780" type="line"/>
      <point x="778" y="780" type="line"/>
      <point x="656" y="81" type="line"/>
      <point x="496" y="780" type="line"/>
      <point x="399" y="780" type="line"/>
      <point x="239" y="81" type="line"/>
      <point x="117" y="780" type="line"/>
      <point x="41" y="780" type="line"/>
      <point x="186" y="-8" type="line"/>
      <point x="285" y="-8" type="line"/>
      <point x="447" y="702" type="line"/>
    </contour>
  </outline>
</glyph>
<glyph name="X" format="1">
  <advance width="613"/>
  <unicode hex="0058"/>
  <outline>
    <contour>
      <point x="31" y="0" type="line"/>
      <point x="113" y="0" type="line"/>
      <point x="306" y="343" type="line"/>
      <point x="500" y="0" type="line"/>
      <point x="582" y="0" type="line"/>
      <point x="355" y="397" type="line"/>
      <point x="582" y="780" type="line"/>
      <point x="497" y="780" type="line"/>
      <point x="306" y="452" type="line"/>
      <point x="115" y="780" type="line"/>
      <point x="31" y="780" type="line"/>
      <point x="257" y="397" type="line"/>
    </contour>
  </outline>
</glyph>
<glyph name="Y" format="1">
  <advance width="577"/>
  <unicode hex="0059"/>
  <outline>
    <contour>
      <point x="325" y="236" type="line"/>
      <point x="557" y="780" type="line"/>
      <point x="478" y="780" type="line"/>
      <point x="289" y="325" type="line"/>
      <point x="99" y="780" type="line"/>
      <point x="21" y="780" type="line"/>
      <point x="253" y="236" type="line"/>
      <point x="253" y="0" type="line"/>
      <point x="325" y="0" type="line"/>
    </contour>
  </outline>
</glyph>
<glyph name="Z" format="1">
  <advance width="563"/>
  <unicode hex="005A"/>
  <outline>
    <contour>
      <point x="40" y="50" type="line"/>
      <point x="40" y="0" type="line"/>
      <point x="523" y="0" type="line"/>
      <point x="523" y="65" type="line"/>
      <point x="255" y="65" type="line"/>
      <point x="129" y="62" type="line"/>
      <point x="513" y="730" type="line"/>
      <point x="513" y="780" type="line"/>
      <point x="50" y="780" type="line"/>
      <point x="50" y="715" type="line"/>
      <point x="298" y="715" type="line"/>
      <point x="424" y="718" type="line"/>
    </contour>
  </outline>
</glyph>
<glyph name="bracketleft" format="1">
  <advance width="317"/>
  <unicode hex="005B"/>
  <outline>
    <contour>
      <point x="67" y="840" type="line"/>
      <point x="67" y="-120" type="line"/>
      <point x="275" y="-120" type="line"/>
      <point x="275" y="-54" type="line"/>
      <point x="138" y="-54" type="line"/>
      <point x="138" y="774" type="line"/>
      <point x="275" y="774" type="line"/>
      <point x="275" y="840" type="line"/>
    </contour>
  </outline>
</glyph>
<glyph name="bracketright" format="1">
  <advance width="317"/>
  <unicode hex="005D"/>
  <outline>
    <contour>
      <point x="250" y="-120" type="line"/>
      <point x="250" y="840" type="line"/>
      <point x="42" y="840" type="line"/>
      <point x="42" y="774" type="line"/>
      <point x="180" y="774" type="line"/>
      <point x="180" y="-54" type="line"/>
      <point x="42" y="-54" type="line"/>
      <point x="42" y="-120" type="line"/>
    </contour>
  </outline>
</glyph>
<glyph name="asciicircum" format="1">
  <advance width="600"/>
  <unicode hex="005E"/>
  <outline>
    <contour>
      <point x="335" y="780" type="line"/>
      <point x="265" y="780" type="line"/>
      <point x="30" y="276" type="line"/>
      <point x="102" y="276" type="line"/>
      <point x="300" y="709" type="line"/>
      <point x="498" y="276" type="line"/>
      <point x="570" y="276" type="line"/>
    </contour>
  </outline>
</glyph>
<glyph name="underscore" format="1">
  <advance width="320"/>
  <unicode hex="005F"/>
  <outline>
    <contour>
      <point x="48" y="-135" type="line"/>
      <point x="272" y="-135" type="line"/>
      <point x="272" y="-71" type="line"/>
      <point x="48" y="-71" type="line"/>
    </contour>
  </outline>
</glyph>
<glyph name="grave" format="1">
  <advance width="500"/>
  <unicode hex="0060"/>
  <outline>
    <contour>
      <point x="120" y="780" type="line"/>
      <point x="214" y="614" type="line"/>
      <point x="286" y="614" type="line"/>
      <point x="196" y="780" type="line"/>
    </contour>
  </outline>
</glyph>
<glyph name="a" format="1">
  <advance width="512"/>
  <unicode hex="0061"/>
  <outline>
    <contour>
      <point x="396" y="0" type="line"/>
      <point x="454" y="0" type="line"/>
      <point x="448" y="150" type="line"/>
      <point x="448" y="344" type="line" smooth="yes"/>
      <point x="448" y="461"/>
      <point x="403" y="541"/>
      <point x="256" y="541" type="curve" smooth="yes"/>
      <point x="100" y="541"/>
      <point x="65" y="444"/>
      <point x="65" y="364" type="curve" smooth="yes"/>
      <point x="65" y="355" type="line"/>
      <point x="132" y="355" type="line"/>
      <point x="132" y="424"/>
      <point x="155" y="482"/>
      <point x="255" y="482" type="curve" smooth="yes"/>
      <point x="349" y="482"/>
      <point x="378" y="435"/>
      <point x="378" y="344" type="curve" smooth="yes"/>
      <point x="378" y="330" type="line"/>
      <point x="218" y="305" type="line" smooth="yes"/>
      <point x="132" y="292"/>
      <point x="45" y="259"/>
      <point x="45" y="144" type="curve" smooth="yes"/>
      <point x="45" y="134" type="line" smooth="yes"/>
      <point x="45" y="49"/>
      <point x="101" y="-11"/>
      <point x="198" y="-11" type="curve" smooth="yes"/>
      <point x="290" y="-11"/>
      <point x="350" y="28"/>
      <point x="385" y="74" type="curve"/>
    </contour>
    <contour>
      <point x="216" y="50" type="curve" smooth="yes"/>
      <point x="145" y="50"/>
      <point x="115" y="93"/>
      <point x="115" y="140" type="curve" smooth="yes"/>
      <point x="115" y="149" type="line" smooth="yes"/>
      <point x="115" y="209"/>
      <point x="156" y="242"/>
      <point x="224" y="254" type="curve" smooth="yes"/>
      <point x="378" y="279" type="line"/>
      <point x="378" y="134" type="line"/>
      <point x="359" y="103"/>
      <point x="314" y="50"/>
    </contour>
  </outline>
</glyph>
<glyph name="h" format="1">
  <advance width="528"/>
  <unicode hex="0068"/>
  <outline>
    <contour>
      <point x="136" y="800" type="line"/>
      <point x="66" y="800" type="line"/>
      <point x="66" y="0" type="line"/>
      <point x="136" y="0" type="line"/>
      <point x="136" y="396" type="line"/>
      <point x="158" y="431"/>
      <point x="199" y="478"/>
      <point x="282" y="478" type="curve" smooth="yes"/>
      <point x="352" y="478"/>
      <point x="397" y="441"/>
      <point x="397" y="361" type="curve" smooth="yes"/>
      <point x="397" y="0" type="line"/>
      <point x="467" y="0" type="line"/>
      <point x="467" y="371" type="line" smooth="yes"/>
      <point x="467" y="470"/>
      <point x="411" y="541"/>
      <point x="306" y="541" type="curve" smooth="yes"/>
      <point x="222" y="541"/>
      <point x="168" y="508"/>
      <point x="136" y="466" type="curve"/>
    </contour>
  </outline>
</glyph>
<glyph name="j" format="1">
  <advance width="216"/>
  <unicode hex="006A"/>
  <outline>
    <contour>
      <point x="73" y="-44" type="line" smooth="yes"/>
      <point x="73" y="-128"/>
      <point x="38" y="-148"/>
      <point x="-29" y="-148" type="curve" smooth="yes"/>
      <point x="-51" y="-148"/>
      <point x="-77" y="-143"/>
      <point x="-86" y="-139" type="curve"/>
      <point x="-86" y="-200" type="line"/>
      <point x="-78" y="-203"/>
      <point x="-54" y="-211"/>
      <point x="-12" y="-211" type="curve" smooth="yes"/>
      <point x="78" y="-211"/>
      <point x="143" y="-168"/>
      <point x="143" y="-53" type="curve" smooth="yes"/>
      <point x="143" y="530" type="line"/>
      <point x="73" y="530" type="line"/>
    </contour>
    <contour>
      <point x="153" y="745" type="line"/>
      <point x="63" y="745" type="line"/>
      <point x="63" y="655" type="line"/>
      <point x="153" y="655" type="line"/>
    </contour>
  </outline>
</glyph>
<glyph name="l" format="1">
  <advance width="216"/>
  <unicode hex="006C"/>
  <outline>
    <contour>
      <point x="73" y="0" type="line"/>
      <point x="143" y="0" type="line"/>
      <point x="143" y="800" type="line"/>
      <point x="73" y="800" type="line"/>
    </contour>
  </outline>
</glyph>
<glyph name="n" format="1">
  <advance width="528"/>
  <unicode hex="006E"/>
  <outline>
    <contour>
      <point x="467" y="0" type="line"/>
      <point x="467" y="371" type="line" smooth="yes"/>
      <point x="467" y="470"/>
      <point x="411" y="541"/>
      <point x="306" y="541" type="curve" smooth="yes"/>
      <point x="215" y="541"/>
      <point x="159" y="502"/>
      <point x="128" y="455" type="curve"/>
      <point x="118" y="530" type="line"/>
      <point x="60" y="530" type="line"/>
      <point x="66" y="380" type="line"/>
      <point x="66" y="0" type="line"/>
      <point x="136" y="0" type="line"/>
      <point x="136" y="396" type="line"/>
      <point x="158" y="431"/>
      <point x="199" y="478"/>
      <point x="282" y="478" type="curve" smooth="yes"/>
      <point x="352" y="478"/>
      <point x="397" y="441"/>
      <point x="397" y="361" type="curve" smooth="yes"/>
      <point x="397" y="0" type="line"/>
    </contour>
  </outline>
</glyph>
<glyph name="o" format="1">
  <advance width="544"/>
  <unicode hex="006F"/>
  <outline>
    <contour>
      <point x="272" y="-11" type="curve" smooth="yes"/>
      <point x="428" y="-11"/>
      <point x="495" y="106"/>
      <point x="495" y="253" type="curve" smooth="yes"/>
      <point x="495" y="277" type="line" smooth="yes"/>
      <point x="495" y="424"/>
      <point x="428" y="541"/>
      <point x="272" y="541" type="curve" smooth="yes"/>
      <point x="116" y="541"/>
      <point x="49" y="424"/>
      <point x="49" y="277" type="curve" smooth="yes"/>
      <point x="49" y="253" type="line" smooth="yes"/>
      <point x="49" y="106"/>
      <point x="116" y="-11"/>
    </contour>
    <contour>
      <point x="272" y="52" type="curve" smooth="yes"/>
      <point x="167" y="52"/>
      <point x="120" y="132"/>
      <point x="120" y="253" type="curve" smooth="yes"/>
      <point x="120" y="277" type="line" smooth="yes"/>
      <point x="120" y="398"/>
      <point x="167" y="478"/>
      <point x="272" y="478" type="curve" smooth="yes"/>
      <point x="377" y="478"/>
      <point x="424" y="398"/>
      <point x="424" y="277" type="curve" smooth="yes"/>
      <point x="424" y="253" type="line" smooth="yes"/>
      <point x="424" y="132"/>
      <point x="377" y="52"/>
    </contour>
  </outline>
</glyph>
<glyph name="p" format="1">
  <advance width="537"/>
  <unicode hex="0070"/>
  <outline>
    <contour>
      <point x="286" y="-11" type="curve" smooth="yes"/>
      <point x="431" y="-11"/>
      <point x="489" y="106"/>
      <point x="489" y="253" type="curve" smooth="yes"/>
      <point x="489" y="277" type="line" smooth="yes"/>
      <point x="489" y="424"/>
      <point x="431" y="541"/>
      <point x="286" y="541" type="curve" smooth="yes"/>
      <point x="205" y="541"/>
      <point x="156" y="503"/>
      <point x="128" y="458" type="curve"/>
      <point x="118" y="530" type="line"/>
      <point x="60" y="530" type="line"/>
      <point x="66" y="380" type="line"/>
      <point x="66" y="-200" type="line"/>
      <point x="136" y="-200" type="line"/>
      <point x="136" y="60" type="line"/>
      <point x="164" y="20"/>
      <point x="212" y="-11"/>
    </contour>
    <contour>
      <point x="136" y="396" type="line"/>
      <point x="157" y="431"/>
      <point x="198" y="478"/>
      <point x="270" y="478" type="curve" smooth="yes"/>
      <point x="370" y="478"/>
      <point x="417" y="400"/>
      <point x="417" y="277" type="curve" smooth="yes"/>
      <point x="417" y="253" type="line" smooth="yes"/>
      <point x="417" y="130"/>
      <point x="370" y="52"/>
      <point x="270" y="52" type="curve" smooth="yes"/>
      <point x="198" y="52"/>
      <point x="157" y="99"/>
      <point x="136" y="134" type="curve"/>
    </contour>
  </outline>
</glyph>
<glyph name="q" format="1">
  <advance width="539"/>
  <unicode hex="0071"/>
  <outline>
    <contour>
      <point x="403" y="-200" type="line"/>
      <point x="472" y="-200" type="line"/>
      <point x="472" y="380" type="line"/>
      <point x="479" y="530" type="line"/>
      <point x="420" y="530" type="line"/>
      <point x="410" y="457" type="line"/>
      <point x="382" y="503"/>
      <point x="333" y="541"/>
      <point x="252" y="541" type="curve" smooth="yes"/>
      <point x="107" y="541"/>
      <point x="49" y="424"/>
      <point x="49" y="277" type="curve" smooth="yes"/>
      <point x="49" y="253" type="line" smooth="yes"/>
      <point x="49" y="106"/>
      <point x="107" y="-11"/>
      <point x="252" y="-11" type="curve" smooth="yes"/>
      <point x="326" y="-11"/>
      <point x="374" y="21"/>
      <point x="403" y="62" type="curve"/>
    </contour>
    <contour>
      <point x="403" y="396" type="curve"/>
      <point x="403" y="134" type="line"/>
      <point x="381" y="99"/>
      <point x="340" y="52"/>
      <point x="268" y="52" type="curve" smooth="yes"/>
      <point x="168" y="52"/>
      <point x="121" y="130"/>
      <point x="121" y="253" type="curve" smooth="yes"/>
      <point x="121" y="277" type="line" smooth="yes"/>
      <point x="121" y="400"/>
      <point x="168" y="478"/>
      <point x="268" y="478" type="curve" smooth="yes"/>
      <point x="340" y="478"/>
      <point x="381" y="431"/>
    </contour>
  </outline>
</glyph>
<glyph name="r" format="1">
  <advance width="333"/>
  <unicode hex="0072"/>
  <outline>
    <contour>
      <point x="276" y="541" type="curve" smooth="yes"/>
      <point x="205" y="541"/>
      <point x="156" y="504"/>
      <point x="128" y="460" type="curve"/>
      <point x="118" y="530" type="line"/>
      <point x="60" y="530" type="line"/>
      <point x="66" y="380" type="line"/>
      <point x="66" y="0" type="line"/>
      <point x="136" y="0" type="line"/>
      <point x="136" y="393" type="line"/>
      <point x="158" y="428"/>
      <point x="197" y="473"/>
      <point x="277" y="473" type="curve" smooth="yes"/>
      <point x="291" y="473" type="line"/>
      <point x="291" y="540" type="line"/>
      <point x="290" y="540"/>
      <point x="283" y="541"/>
    </contour>
  </outline>
</glyph>
<glyph name="t" format="1">
  <advance width="400"/>
  <unicode hex="0074"/>
  <outline>
    <contour>
      <point x="185" y="530" type="line"/>
      <point x="185" y="680" type="line"/>
      <point x="115" y="680" type="line"/>
      <point x="115" y="530" type="line"/>
      <point x="31" y="530" type="line"/>
      <point x="31" y="467" type="line"/>
      <point x="115" y="467" type="line"/>
      <point x="115" y="147" type="line" smooth="yes"/>
      <point x="115" y="32"/>
      <point x="180" y="-11"/>
      <point x="270" y="-11" type="curve" smooth="yes"/>
      <point x="312" y="-11"/>
      <point x="336" y="-3"/>
      <point x="344" y="0" type="curve"/>
      <point x="344" y="61" type="line"/>
      <point x="336" y="57"/>
      <point x="309" y="52"/>
      <point x="287" y="52" type="curve" smooth="yes"/>
      <point x="220" y="52"/>
      <point x="185" y="72"/>
      <point x="185" y="156" type="curve" smooth="yes"/>
      <point x="185" y="467" type="line"/>
      <point x="354" y="467" type="line"/>
      <point x="354" y="530" type="line"/>
    </contour>
  </outline>
</glyph>
<glyph name="v" format="1">
  <advance width="512"/>
  <unicode hex="0076"/>
  <outline>
    <contour>
      <point x="210" y="0" type="line"/>
      <point x="302" y="0" type="line"/>
      <point x="488" y="530" type="line"/>
      <point x="413" y="530" type="line"/>
      <point x="256" y="66" type="line"/>
      <point x="100" y="530" type="line"/>
      <point x="25" y="530" type="line"/>
    </contour>
  </outline>
</glyph>
<glyph name="x" format="1">
  <advance width="485"/>
  <unicode hex="0078"/>
  <outline>
    <contour>
      <point x="23" y="530" type="line"/>
      <point x="189" y="268" type="line"/>
      <point x="23" y="0" type="line"/>
      <point x="106" y="0" type="line"/>
      <point x="242" y="223" type="line"/>
      <point x="379" y="0" type="line"/>
      <point x="462" y="0" type="line"/>
      <point x="295" y="268" type="line"/>
      <point x="462" y="530" type="line"/>
      <point x="379" y="530" type="line"/>
      <point x="242" y="313" type="line"/>
      <point x="106" y="530" type="line"/>
    </contour>
  </outline>
</glyph>
<glyph name="y" format="1">
  <advance width="484"/>
  <unicode hex="0079"/>
  <outline>
    <contour>
      <point x="249" y="97" type="line"/>
      <point x="98" y="530" type="line"/>
      <point x="23" y="530" type="line"/>
      <point x="213" y="20" type="line"/>
      <point x="130" y="-200" type="line"/>
      <point x="211" y="-200" type="line"/>
      <point x="286" y="20" type="line"/>
      <point x="476" y="530" type="line"/>
      <point x="401" y="530" type="line"/>
    </contour>
  </outline>
</glyph>
<glyph name="braceleft" format="1">
  <advance width="317"/>
  <unicode hex="007B"/>
  <outline>
    <contour>
      <point x="275" y="840" type="line"/>
      <point x="257" y="840" type="line" smooth="yes"/>
      <point x="184" y="840"/>
      <point x="111" y="810"/>
      <point x="111" y="701" type="curve" smooth="yes"/>
      <point x="111" y="481" type="line" smooth="yes"/>
      <point x="111" y="408"/>
      <point x="82" y="393"/>
      <point x="25" y="393" type="curve"/>
      <point x="25" y="327" type="line"/>
      <point x="82" y="327"/>
      <point x="111" y="312"/>
      <point x="111" y="239" type="curve" smooth="yes"/>
      <point x="111" y="19" type="line" smooth="yes"/>
      <point x="111" y="-90"/>
      <point x="184" y="-120"/>
      <point x="257" y="-120" type="curve" smooth="yes"/>
      <point x="275" y="-120" type="line"/>
      <point x="275" y="-54" type="line"/>
      <point x="216" y="-54"/>
      <point x="181" y="-33"/>
      <point x="181" y="49" type="curve" smooth="yes"/>
      <point x="181" y="257" type="line" smooth="yes"/>
      <point x="181" y="311"/>
      <point x="160" y="343"/>
      <point x="127" y="360" type="curve"/>
      <point x="160" y="376"/>
      <point x="181" y="408"/>
      <point x="181" y="463" type="curve" smooth="yes"/>
      <point x="181" y="671" type="line" smooth="yes"/>
      <point x="181" y="753"/>
      <point x="216" y="774"/>
      <point x="275" y="774" type="curve"/>
    </contour>
  </outline>
</glyph>
<glyph name="braceright" format="1">
  <advance width="317"/>
  <unicode hex="007D"/>
  <outline>
    <contour>
      <point x="42" y="-120" type="line"/>
      <point x="60" y="-120" type="line" smooth="yes"/>
      <point x="133" y="-120"/>
      <point x="206" y="-90"/>
      <point x="206" y="19" type="curve" smooth="yes"/>
      <point x="206" y="239" type="line" smooth="yes"/>
      <point x="206" y="312"/>
      <point x="235" y="327"/>
      <point x="292" y="327" type="curve"/>
      <point x="292" y="393" type="line"/>
      <point x="235" y="393"/>
      <point x="206" y="408"/>
      <point x="206" y="481" type="curve" smooth="yes"/>
      <point x="206" y="701" type="line" smooth="yes"/>
      <point x="206" y="810"/>
      <point x="133" y="840"/>
      <point x="60" y="840" type="curve" smooth="yes"/>
      <point x="42" y="840" type="line"/>
      <point x="42" y="774" type="line"/>
      <point x="101" y="774"/>
      <point x="136" y="753"/>
      <point x="136" y="671" type="curve" smooth="yes"/>
      <point x="136" y="463" type="line" smooth="yes"/>
      <point x="136" y="408"/>
      <point x="157" y="376"/>
      <point x="190" y="360" type="curve"/>
      <point x="157" y="343"/>
      <point x="136" y="311"/>
      <point x="136" y="257" type="curve" smooth="yes"/>
      <point x="136" y="49" type="line" smooth="yes"/>
      <point x="136" y="-33"/>
      <point x="101" y="-54"/>
      <point x="42" y="-54" type="curve"/>
    </contour>
  </outline>
</glyph>
<glyph name="asciitilde" format="1">
  <advance width="600"/>
  <unicode hex="007E"/>
  <outline>
    <contour>
      <point x="177" y="451" type="curve" smooth="yes"/>
      <point x="106" y="451"/>
      <point x="61" y="408"/>
      <point x="37" y="375" type="curve"/>
      <point x="77" y="335" type="line"/>
      <point x="95" y="358"/>
      <point x="131" y="391"/>
      <point x="175" y="391" type="curve" smooth="yes"/>
      <point x="264" y="391"/>
      <point x="317" y="320"/>
      <point x="423" y="320" type="curve" smooth="yes"/>
      <point x="494" y="320"/>
      <point x="539" y="364"/>
      <point x="563" y="396" type="curve"/>
      <point x="523" y="436" type="line"/>
      <point x="505" y="414"/>
      <point x="469" y="380"/>
      <point x="425" y="380" type="curve" smooth="yes"/>
      <point x="336" y="380"/>
      <point x="283" y="451"/>
    </contour>
  </outline>
</glyph>
<glyph name="exclamdown" format="1">
  <advance width="216"/>
  <unicode hex="00A1"/>
  <outline>
    <contour>
      <point x="151" y="-200" type="line"/>
      <point x="132" y="341" type="line"/>
      <point x="84" y="341" type="line"/>
      <point x="65" y="-200" type="line"/>
    </contour>
    <contour>
      <point x="63" y="440" type="line"/>
      <point x="153" y="440" type="line"/>
      <point x="153" y="530" type="line"/>
      <point x="63" y="530" type="line"/>
    </contour>
  </outline>
</glyph>
<glyph name="cent" format="1">
  <advance width="600"/>
  <unicode hex="00A2"/>
  <outline>
    <contour>
      <point x="434" y="840" type="line"/>
      <point x="372" y="840" type="line"/>
      <point x="344" y="725" type="line"/>
      <point x="334" y="726"/>
      <point x="324" y="727"/>
      <point x="313" y="727" type="curve" smooth="yes"/>
      <point x="146" y="727"/>
      <point x="62" y="614"/>
      <point x="62" y="404" type="curve" smooth="yes"/>
      <point x="62" y="376" type="line" smooth="yes"/>
      <point x="62" y="227"/>
      <point x="105" y="127"/>
      <point x="191" y="82" type="curve"/>
      <point x="157" y="-60" type="line"/>
      <point x="219" y="-60" type="line"/>
      <point x="248" y="61" type="line"/>
      <point x="268" y="57"/>
      <point x="289" y="55"/>
      <point x="313" y="55" type="curve" smooth="yes"/>
      <point x="469" y="55"/>
      <point x="538" y="144"/>
      <point x="538" y="269" type="curve" smooth="yes"/>
      <point x="538" y="282" type="line"/>
      <point x="467" y="282" type="line"/>
      <point x="467" y="186"/>
      <point x="425" y="120"/>
      <point x="316" y="120" type="curve" smooth="yes"/>
      <point x="313" y="120" type="line" smooth="yes"/>
      <point x="295" y="120"/>
      <point x="278" y="121"/>
      <point x="263" y="125" type="curve"/>
      <point x="388" y="648" type="line"/>
      <point x="443" y="623"/>
      <point x="467" y="566"/>
      <point x="467" y="477" type="curve"/>
      <point x="538" y="477" type="line"/>
      <point x="538" y="501" type="line" smooth="yes"/>
      <point x="538" y="604"/>
      <point x="496" y="684"/>
      <point x="404" y="714" type="curve"/>
    </contour>
    <contour>
      <point x="135" y="376" type="curve" smooth="yes"/>
      <point x="135" y="404" type="line" smooth="yes"/>
      <point x="135" y="575"/>
      <point x="196" y="661"/>
      <point x="313" y="661" type="curve" smooth="yes"/>
      <point x="316" y="661" type="line" smooth="yes"/>
      <point x="320" y="661"/>
      <point x="325" y="660"/>
      <point x="329" y="660" type="curve"/>
      <point x="208" y="153" type="line"/>
      <point x="159" y="193"/>
      <point x="135" y="267"/>
    </contour>
  </outline>
</glyph>
<glyph name="sterling" format="1">
  <advance width="600"/>
  <unicode hex="00A3"/>
  <outline>
    <contour>
      <point x="328" y="726" type="curve" smooth="yes"/>
      <point x="433" y="726"/>
      <point x="477" y="637"/>
      <point x="477" y="500" type="curve"/>
      <point x="548" y="500" type="line"/>
      <point x="548" y="512" type="line" smooth="yes"/>
      <point x="548" y="672"/>
      <point x="490" y="791"/>
      <point x="328" y="791" type="curve" smooth="yes"/>
      <point x="188" y="791"/>
      <point x="116" y="703"/>
      <point x="116" y="577" type="curve" smooth="yes"/>
      <point x="116" y="519"/>
      <point x="124" y="467"/>
      <point x="136" y="416" type="curve"/>
      <point x="56" y="416" type="line"/>
      <point x="56" y="351" type="line"/>
      <point x="154" y="351" type="line"/>
      <point x="180" y="259"/>
      <point x="213" y="170"/>
      <point x="221" y="66" type="curve"/>
      <point x="56" y="66" type="line"/>
      <point x="56" y="0" type="line"/>
      <point x="544" y="0" type="line"/>
      <point x="544" y="66" type="line"/>
      <point x="283" y="66" type="line"/>
      <point x="279" y="168"/>
      <point x="253" y="263"/>
      <point x="230" y="351" type="curve"/>
      <point x="413" y="351" type="line"/>
      <point x="413" y="416" type="line"/>
      <point x="212" y="416" type="line"/>
      <point x="199" y="470"/>
      <point x="189" y="522"/>
      <point x="189" y="570" type="curve" smooth="yes"/>
      <point x="189" y="665"/>
      <point x="232" y="726"/>
    </contour>
  </outline>
</glyph>
<glyph name="yen" format="1">
  <advance width="600"/>
  <unicode hex="00A5"/>
  <outline>
    <contour>
      <point x="44" y="414" type="line"/>
      <point x="189" y="414" type="line"/>
      <point x="252" y="280" type="line"/>
      <point x="44" y="280" type="line"/>
      <point x="44" y="214" type="line"/>
      <point x="264" y="214" type="line"/>
      <point x="264" y="0" type="line"/>
      <point x="336" y="0" type="line"/>
      <point x="336" y="214" type="line"/>
      <point x="556" y="214" type="line"/>
      <point x="556" y="280" type="line"/>
      <point x="347" y="280" type="line"/>
      <point x="410" y="414" type="line"/>
      <point x="556" y="414" type="line"/>
      <point x="556" y="480" type="line"/>
      <point x="441" y="480" type="line"/>
      <point x="583" y="780" type="line"/>
      <point x="504" y="780" type="line"/>
      <point x="300" y="338" type="line"/>
      <point x="96" y="780" type="line"/>
      <point x="17" y="780" type="line"/>
      <point x="158" y="480" type="line"/>
      <point x="44" y="480" type="line"/>
    </contour>
  </outline>
</glyph>
<glyph name="brokenbar" format="1">
  <advance width="201"/>
  <unicode hex="00A6"/>
  <outline>
    <contour>
      <point x="66" y="396" type="line"/>
      <point x="136" y="396" type="line"/>
      <point x="136" y="840" type="line"/>
      <point x="66" y="840" type="line"/>
    </contour>
    <contour>
      <point x="66" y="-120" type="line"/>
      <point x="136" y="-120" type="line"/>
      <point x="136" y="324" type="line"/>
      <point x="66" y="324" type="line"/>
    </contour>
  </outline>
</glyph>
<glyph name="section" format="1">
  <advance width="513"/>
  <unicode hex="00A7"/>
  <outline>
    <contour>
      <point x="471" y="389" type="curve" smooth="yes"/>
      <point x="471" y="395" type="line" smooth="yes"/>
      <point x="471" y="494"/>
      <point x="414" y="533"/>
      <point x="281" y="544" type="curve" smooth="yes"/>
      <point x="167" y="553"/>
      <point x="141" y="585"/>
      <point x="141" y="640" type="curve" smooth="yes"/>
      <point x="141" y="698"/>
      <point x="188" y="732"/>
      <point x="267" y="732" type="curve" smooth="yes"/>
      <point x="366" y="732"/>
      <point x="396" y="684"/>
      <point x="396" y="609" type="curve"/>
      <point x="466" y="609" type="line"/>
      <point x="466" y="613" type="line" smooth="yes"/>
      <point x="466" y="717"/>
      <point x="412" y="791"/>
      <point x="267" y="791" type="curve" smooth="yes"/>
      <point x="143" y="791"/>
      <point x="70" y="732"/>
      <point x="70" y="640" type="curve" smooth="yes"/>
      <point x="70" y="634" type="line" smooth="yes"/>
      <point x="70" y="585"/>
      <point x="86" y="545"/>
      <point x="132" y="520" type="curve"/>
      <point x="72" y="496"/>
      <point x="41" y="451"/>
      <point x="41" y="391" type="curve" smooth="yes"/>
      <point x="41" y="385" type="line" smooth="yes"/>
      <point x="41" y="286"/>
      <point x="99" y="247"/>
      <point x="232" y="236" type="curve" smooth="yes"/>
      <point x="346" y="227"/>
      <point x="372" y="195"/>
      <point x="372" y="140" type="curve" smooth="yes"/>
      <point x="372" y="82"/>
      <point x="325" y="48"/>
      <point x="245" y="48" type="curve" smooth="yes"/>
      <point x="147" y="48"/>
      <point x="117" y="96"/>
      <point x="117" y="171" type="curve"/>
      <point x="47" y="171" type="line"/>
      <point x="47" y="167" type="line" smooth="yes"/>
      <point x="47" y="63"/>
      <point x="100" y="-11"/>
      <point x="245" y="-11" type="curve" smooth="yes"/>
      <point x="370" y="-11"/>
      <point x="443" y="48"/>
      <point x="443" y="140" type="curve" smooth="yes"/>
      <point x="443" y="146" type="line" smooth="yes"/>
      <point x="443" y="195"/>
      <point x="426" y="234"/>
      <point x="380" y="260" type="curve"/>
      <point x="440" y="283"/>
      <point x="471" y="328"/>
    </contour>
    <contour>
      <point x="399" y="390" type="curve" smooth="yes"/>
      <point x="399" y="329"/>
      <point x="352" y="290"/>
      <point x="264" y="290" type="curve" smooth="yes"/>
      <point x="260" y="290" type="line"/>
      <point x="158" y="297"/>
      <point x="114" y="317"/>
      <point x="114" y="390" type="curve" smooth="yes"/>
      <point x="114" y="451"/>
      <point x="161" y="490"/>
      <point x="249" y="490" type="curve" smooth="yes"/>
      <point x="252" y="490" type="line"/>
      <point x="355" y="483"/>
      <point x="399" y="463"/>
    </contour>
  </outline>
</glyph>
<glyph name="dieresis" format="1">
  <advance width="500"/>
  <unicode hex="00A8"/>
  <outline>
    <contour>
      <point x="210" y="745" type="line"/>
      <point x="123" y="745" type="line"/>
      <point x="123" y="657" type="line"/>
      <point x="210" y="657" type="line"/>
    </contour>
    <contour>
      <point x="377" y="745" type="line"/>
      <point x="290" y="745" type="line"/>
      <point x="290" y="657" type="line"/>
      <point x="377" y="657" type="line"/>
    </contour>
  </outline>
</glyph>
<glyph name="copyright" format="1">
  <advance width="920"/>
  <unicode hex="00A9"/>
  <outline>
    <contour>
      <point x="59" y="390" type="curve" smooth="yes"/>
      <point x="59" y="169"/>
      <point x="239" y="-11"/>
      <point x="460" y="-11" type="curve" smooth="yes"/>
      <point x="681" y="-11"/>
      <point x="861" y="169"/>
      <point x="861" y="390" type="curve" smooth="yes"/>
      <point x="861" y="611"/>
      <point x="681" y="791"/>
      <point x="460" y="791" type="curve" smooth="yes"/>
      <point x="239" y="791"/>
      <point x="59" y="611"/>
    </contour>
    <contour>
      <point x="102" y="390" type="curve" smooth="yes"/>
      <point x="102" y="588"/>
      <point x="262" y="748"/>
      <point x="460" y="748" type="curve" smooth="yes"/>
      <point x="658" y="748"/>
      <point x="818" y="588"/>
      <point x="818" y="390" type="curve" smooth="yes"/>
      <point x="818" y="192"/>
      <point x="658" y="32"/>
      <point x="460" y="32" type="curve" smooth="yes"/>
      <point x="262" y="32"/>
      <point x="102" y="192"/>
    </contour>
    <contour>
      <point x="461" y="206" type="curve" smooth="yes"/>
      <point x="358" y="206"/>
      <point x="320" y="293"/>
      <point x="320" y="378" type="curve" smooth="yes"/>
      <point x="320" y="402" type="line" smooth="yes"/>
      <point x="320" y="487"/>
      <point x="358" y="574"/>
      <point x="461" y="574" type="curve" smooth="yes"/>
      <point x="556" y="574"/>
      <point x="586" y="516"/>
      <point x="586" y="459" type="curve"/>
      <point x="651" y="459" type="line"/>
      <point x="651" y="476" type="line" smooth="yes"/>
      <point x="651" y="539"/>
      <point x="603" y="636"/>
      <point x="460" y="636" type="curve" smooth="yes"/>
      <point x="309" y="636"/>
      <point x="252" y="512"/>
      <point x="252" y="402" type="curve" smooth="yes"/>
      <point x="252" y="378" type="line" smooth="yes"/>
      <point x="252" y="268"/>
      <point x="309" y="144"/>
      <point x="460" y="144" type="curve" smooth="yes"/>
      <point x="603" y="144"/>
      <point x="651" y="237"/>
      <point x="651" y="298" type="curve" smooth="yes"/>
      <point x="651" y="311" type="line"/>
      <point x="586" y="311" type="line"/>
      <point x="586" y="266"/>
      <point x="559" y="206"/>
    </contour>
  </outline>
</glyph>
<glyph name="ordfeminine" format="1">
  <advance width="390"/>
  <unicode hex="00AA"/>
  <outline>
    <contour>
      <point x="299" y="388" type="line"/>
      <point x="352" y="388" type="line"/>
      <point x="347" y="499" type="line"/>
      <point x="347" y="644" type="line" smooth="yes"/>
      <point x="347" y="732"/>
      <point x="313" y="791"/>
      <point x="200" y="791" type="curve" smooth="yes"/>
      <point x="82" y="791"/>
      <point x="53" y="720"/>
      <point x="53" y="659" type="curve" smooth="yes"/>
      <point x="53" y="652" type="line"/>
      <point x="114" y="652" type="line"/>
      <point x="114" y="699"/>
      <point x="130" y="739"/>
      <point x="199" y="739" type="curve" smooth="yes"/>
      <point x="264" y="739"/>
      <point x="284" y="706"/>
      <point x="284" y="644" type="curve" smooth="yes"/>
      <point x="284" y="635" type="line"/>
      <point x="170" y="618" type="line" smooth="yes"/>
      <point x="102" y="607"/>
      <point x="38" y="582"/>
      <point x="38" y="496" type="curve" smooth="yes"/>
      <point x="38" y="489" type="line" smooth="yes"/>
      <point x="38" y="425"/>
      <point x="79" y="379"/>
      <point x="154" y="379" type="curve" smooth="yes"/>
      <point x="221" y="379"/>
      <point x="264" y="407"/>
      <point x="290" y="441" type="curve"/>
    </contour>
    <contour>
      <point x="172" y="433" type="curve" smooth="yes"/>
      <point x="122" y="433"/>
      <point x="102" y="463"/>
      <point x="102" y="495" type="curve" smooth="yes"/>
      <point x="102" y="501" type="line" smooth="yes"/>
      <point x="102" y="543"/>
      <point x="131" y="567"/>
      <point x="178" y="575" type="curve" smooth="yes"/>
      <point x="284" y="592" type="line"/>
      <point x="284" y="488" type="line"/>
      <point x="269" y="467"/>
      <point x="236" y="433"/>
    </contour>
    <contour>
      <point x="352" y="212" type="line"/>
      <point x="352" y="269" type="line"/>
      <point x="47" y="269" type="line"/>
      <point x="47" y="212" type="line"/>
    </contour>
  </outline>
</glyph>
<glyph name="guillemotleft" format="1">
  <advance width="517"/>
  <unicode hex="00AB"/>
  <outline>
    <contour>
      <point x="254" y="524" type="line"/>
      <point x="50" y="371" type="line"/>
      <point x="50" y="309" type="line"/>
      <point x="254" y="156" type="line"/>
      <point x="254" y="226" type="line"/>
      <point x="105" y="340" type="line"/>
      <point x="254" y="454" type="line"/>
    </contour>
    <contour>
      <point x="467" y="524" type="line"/>
      <point x="263" y="371" type="line"/>
      <point x="263" y="309" type="line"/>
      <point x="467" y="156" type="line"/>
      <point x="467" y="226" type="line"/>
      <point x="317" y="340" type="line"/>
      <point x="467" y="454" type="line"/>
    </contour>
  </outline>
</glyph>
<glyph name="logicalnot" format="1">
  <advance width="600"/>
  <unicode hex="00AC"/>
  <outline>
    <contour>
      <point x="48" y="490" type="line"/>
      <point x="486" y="490" type="line"/>
      <point x="486" y="213" type="line"/>
      <point x="552" y="213" type="line"/>
      <point x="552" y="557" type="line"/>
      <point x="48" y="557" type="line"/>
    </contour>
  </outline>
</glyph>
<glyph name="uni00AD" format="1">
  <advance width="329"/>
  <unicode hex="00AD"/>
  <outline>
    <contour>
      <point x="40" y="318" type="line"/>
      <point x="289" y="318" type="line"/>
      <point x="289" y="382" type="line"/>
      <point x="40" y="382" type="line"/>
    </contour>
  </outline>
</glyph>
<glyph name="macron" format="1">
  <advance width="500"/>
  <unicode hex="00AF"/>
  <outline>
    <contour>
      <point x="133" y="664" type="line"/>
      <point x="367" y="664" type="line"/>
      <point x="367" y="730" type="line"/>
      <point x="133" y="730" type="line"/>
    </contour>
  </outline>
</glyph>
<glyph name="degree" format="1">
  <advance width="400"/>
  <unicode hex="00B0"/>
  <outline>
    <contour>
      <point x="300" y="634" type="line" smooth="yes"/>
      <point x="300" y="574"/>
      <point x="256" y="537"/>
      <point x="203" y="537" type="curve" smooth="yes"/>
      <point x="197" y="537" type="line" smooth="yes"/>
      <point x="144" y="537"/>
      <point x="100" y="574"/>
      <point x="100" y="634" type="curve" smooth="yes"/>
      <point x="100" y="641" type="line" smooth="yes"/>
      <point x="100" y="701"/>
      <point x="144" y="737"/>
      <point x="197" y="737" type="curve" smooth="yes"/>
      <point x="203" y="737" type="line" smooth="yes"/>
      <point x="256" y="737"/>
      <point x="300" y="701"/>
      <point x="300" y="641" type="curve" smooth="yes"/>
    </contour>
    <contour>
      <point x="353" y="639" type="line" smooth="yes"/>
      <point x="353" y="733"/>
      <point x="287" y="791"/>
      <point x="200" y="791" type="curve" smooth="yes"/>
      <point x="113" y="791"/>
      <point x="47" y="733"/>
      <point x="47" y="639" type="curve" smooth="yes"/>
      <point x="47" y="635" type="line" smooth="yes"/>
      <point x="47" y="541"/>
      <point x="113" y="484"/>
      <point x="200" y="484" type="curve" smooth="yes"/>
      <point x="287" y="484"/>
      <point x="353" y="541"/>
      <point x="353" y="635" type="curve" smooth="yes"/>
    </contour>
  </outline>
</glyph>
<glyph name="plusminus" format="1">
  <advance width="600"/>
  <unicode hex="00B1"/>
  <outline>
    <contour>
      <point x="267" y="649" type="line"/>
      <point x="267" y="510" type="line"/>
      <point x="48" y="510" type="line"/>
      <point x="48" y="443" type="line"/>
      <point x="267" y="443" type="line"/>
      <point x="267" y="304" type="line"/>
      <point x="333" y="304" type="line"/>
      <point x="333" y="443" type="line"/>
      <point x="552" y="443" type="line"/>
      <point x="552" y="510" type="line"/>
      <point x="333" y="510" type="line"/>
      <point x="333" y="649" type="line"/>
    </contour>
    <contour>
      <point x="48" y="161" type="line"/>
      <point x="552" y="161" type="line"/>
      <point x="552" y="227" type="line"/>
      <point x="48" y="227" type="line"/>
    </contour>
  </outline>
</glyph>
<glyph name="twosuperior" format="1">
  <advance width="300"/>
  <unicode hex="00B2"/>
  <outline>
    <contour>
      <point x="275" y="442" type="line"/>
      <point x="111" y="442" type="line"/>
      <point x="230" y="571" type="line" smooth="yes"/>
      <point x="262" y="606"/>
      <point x="275" y="629"/>
      <point x="275" y="672" type="curve" smooth="yes"/>
      <point x="275" y="679" type="line" smooth="yes"/>
      <point x="275" y="736"/>
      <point x="238" y="786"/>
      <point x="150" y="786" type="curve" smooth="yes"/>
      <point x="64" y="786"/>
      <point x="25" y="742"/>
      <point x="25" y="661" type="curve" smooth="yes"/>
      <point x="25" y="650" type="line"/>
      <point x="84" y="650" type="line"/>
      <point x="84" y="710"/>
      <point x="107" y="733"/>
      <point x="148" y="733" type="curve" smooth="yes"/>
      <point x="151" y="733" type="line" smooth="yes"/>
      <point x="189" y="733"/>
      <point x="215" y="710"/>
      <point x="215" y="669" type="curve" smooth="yes"/>
      <point x="215" y="664" type="line" smooth="yes"/>
      <point x="215" y="639"/>
      <point x="206" y="623"/>
      <point x="183" y="599" type="curve" smooth="yes"/>
      <point x="25" y="427" type="line"/>
      <point x="25" y="390" type="line"/>
      <point x="275" y="390" type="line"/>
    </contour>
  </outline>
</glyph>
<glyph name="threesuperior" format="1">
  <advance width="300"/>
  <unicode hex="00B3"/>
  <outline>
    <contour>
      <point x="82" y="515" type="curve"/>
      <point x="22" y="515" type="line"/>
      <point x="22" y="508" type="line" smooth="yes"/>
      <point x="22" y="430"/>
      <point x="64" y="383"/>
      <point x="150" y="383" type="curve" smooth="yes"/>
      <point x="234" y="383"/>
      <point x="277" y="437"/>
      <point x="277" y="492" type="curve" smooth="yes"/>
      <point x="277" y="501" type="line" smooth="yes"/>
      <point x="277" y="546"/>
      <point x="254" y="574"/>
      <point x="224" y="589" type="curve"/>
      <point x="253" y="603"/>
      <point x="275" y="630"/>
      <point x="275" y="674" type="curve" smooth="yes"/>
      <point x="275" y="682" type="line" smooth="yes"/>
      <point x="275" y="736"/>
      <point x="238" y="786"/>
      <point x="150" y="786" type="curve" smooth="yes"/>
      <point x="64" y="786"/>
      <point x="25" y="742"/>
      <point x="25" y="661" type="curve" smooth="yes"/>
      <point x="25" y="650" type="line"/>
      <point x="84" y="650" type="line"/>
      <point x="84" y="710"/>
      <point x="106" y="733"/>
      <point x="147" y="733" type="curve" smooth="yes"/>
      <point x="152" y="733" type="line" smooth="yes"/>
      <point x="189" y="733"/>
      <point x="215" y="710"/>
      <point x="215" y="675" type="curve" smooth="yes"/>
      <point x="215" y="671" type="line" smooth="yes"/>
      <point x="215" y="633"/>
      <point x="189" y="615"/>
      <point x="153" y="615" type="curve" smooth="yes"/>
      <point x="100" y="615" type="line"/>
      <point x="100" y="563" type="line"/>
      <point x="155" y="563" type="line" smooth="yes"/>
      <point x="192" y="563"/>
      <point x="218" y="543"/>
      <point x="218" y="504" type="curve" smooth="yes"/>
      <point x="218" y="497" type="line" smooth="yes"/>
      <point x="218" y="455"/>
      <point x="186" y="436"/>
      <point x="152" y="436" type="curve" smooth="yes"/>
      <point x="147" y="436" type="line" smooth="yes"/>
      <point x="108" y="436"/>
      <point x="82" y="459"/>
    </contour>
  </outline>
</glyph>
<glyph name="acute" format="1">
  <advance width="500"/>
  <unicode hex="00B4"/>
  <outline>
    <contour>
      <point x="304" y="780" type="line"/>
      <point x="214" y="614" type="line"/>
      <point x="286" y="614" type="line"/>
      <point x="380" y="780" type="line"/>
    </contour>
  </outline>
</glyph>
<glyph name="paragraph" format="1">
  <advance width="513"/>
  <unicode hex="00B6"/>
  <outline>
    <contour>
      <point x="375" y="0" type="line"/>
      <point x="447" y="0" type="line"/>
      <point x="447" y="780" type="line"/>
      <point x="275" y="780" type="line" smooth="yes"/>
      <point x="163" y="780"/>
      <point x="36" y="738"/>
      <point x="36" y="558" type="curve" smooth="yes"/>
      <point x="36" y="538" type="line" smooth="yes"/>
      <point x="36" y="364"/>
      <point x="155" y="319"/>
      <point x="265" y="317" type="curve"/>
      <point x="265" y="0" type="line"/>
      <point x="335" y="0" type="line"/>
      <point x="335" y="715" type="line"/>
      <point x="375" y="715" type="line"/>
    </contour>
    <contour>
      <point x="110" y="541" type="curve" smooth="yes"/>
      <point x="110" y="556" type="line" smooth="yes"/>
      <point x="110" y="685"/>
      <point x="198" y="713"/>
      <point x="265" y="715" type="curve"/>
      <point x="265" y="382" type="line"/>
      <point x="198" y="384"/>
      <point x="110" y="412"/>
    </contour>
  </outline>
</glyph>
<glyph name="periodcentered" format="1">
  <advance width="217"/>
  <unicode hex="00B7"/>
  <outline>
    <contour>
      <point x="152" y="394" type="line"/>
      <point x="65" y="394" type="line"/>
      <point x="65" y="306" type="line"/>
      <point x="152" y="306" type="line"/>
    </contour>
  </outline>
</glyph>
<glyph name="cedilla" format="1">
  <advance width="602"/>
  <unicode hex="00B8"/>
  <outline>
    <contour>
      <point x="162" y="-191" type="line"/>
      <point x="182" y="-204"/>
      <point x="217" y="-211"/>
      <point x="254" y="-211" type="curve" smooth="yes"/>
      <point x="315" y="-211"/>
      <point x="357" y="-189"/>
      <point x="357" y="-133" type="curve" smooth="yes"/>
      <point x="357" y="-77"/>
      <point x="306" y="-56"/>
      <point x="257" y="-56" type="curve" smooth="yes"/>
      <point x="253" y="-56" type="line"/>
      <point x="274" y="0" type="line"/>
      <point x="226" y="0" type="line"/>
      <point x="195" y="-80" type="line"/>
      <point x="214" y="-103" type="line"/>
      <point x="214" y="-103"/>
      <point x="228" y="-100"/>
      <point x="243" y="-100" type="curve" smooth="yes"/>
      <point x="281" y="-100"/>
      <point x="305" y="-108"/>
      <point x="305" y="-131" type="curve" smooth="yes"/>
      <point x="305" y="-155"/>
      <point x="286" y="-162"/>
      <point x="247" y="-162" type="curve" smooth="yes"/>
      <point x="221" y="-162"/>
      <point x="194" y="-156"/>
      <point x="177" y="-147" type="curve"/>
    </contour>
  </outline>
</glyph>
<glyph name="onesuperior" format="1">
  <advance width="300"/>
  <unicode hex="00B9"/>
  <outline>
    <contour>
      <point x="277" y="390" type="line"/>
      <point x="277" y="442" type="line"/>
      <point x="185" y="442" type="line"/>
      <point x="185" y="781" type="line"/>
      <point x="142" y="781" type="line"/>
      <point x="20" y="698" type="line"/>
      <point x="49" y="654" type="line"/>
      <point x="125" y="705" type="line"/>
      <point x="125" y="442" type="line"/>
      <point x="32" y="442" type="line"/>
      <point x="32" y="390" type="line"/>
    </contour>
  </outline>
</glyph>
<glyph name="ordmasculine" format="1">
  <advance width="418"/>
  <unicode hex="00BA"/>
  <outline>
    <contour>
      <point x="378" y="575" type="curve" smooth="yes"/>
      <point x="378" y="595" type="line" smooth="yes"/>
      <point x="378" y="706"/>
      <point x="327" y="791"/>
      <point x="209" y="791" type="curve" smooth="yes"/>
      <point x="92" y="791"/>
      <point x="40" y="706"/>
      <point x="40" y="595" type="curve" smooth="yes"/>
      <point x="40" y="575" type="line" smooth="yes"/>
      <point x="40" y="465"/>
      <point x="92" y="379"/>
      <point x="209" y="379" type="curve" smooth="yes"/>
      <point x="327" y="379"/>
      <point x="378" y="465"/>
    </contour>
    <contour>
      <point x="104" y="575" type="curve" smooth="yes"/>
      <point x="104" y="595" type="line" smooth="yes"/>
      <point x="104" y="680"/>
      <point x="136" y="735"/>
      <point x="209" y="735" type="curve" smooth="yes"/>
      <point x="282" y="735"/>
      <point x="314" y="680"/>
      <point x="314" y="595" type="curve" smooth="yes"/>
      <point x="314" y="575" type="line" smooth="yes"/>
      <point x="314" y="491"/>
      <point x="282" y="435"/>
      <point x="209" y="435" type="curve" smooth="yes"/>
      <point x="136" y="435"/>
      <point x="104" y="491"/>
    </contour>
    <contour>
      <point x="48" y="212" type="line"/>
      <point x="371" y="212" type="line"/>
      <point x="371" y="269" type="line"/>
      <point x="48" y="269" type="line"/>
    </contour>
  </outline>
</glyph>
<glyph name="guillemotright" format="1">
  <advance width="517"/>
  <unicode hex="00BB"/>
  <outline>
    <contour>
      <point x="263" y="454" type="line"/>
      <point x="411" y="340" type="line"/>
      <point x="263" y="226" type="line"/>
      <point x="263" y="156" type="line"/>
      <point x="467" y="309" type="line"/>
      <point x="467" y="371" type="line"/>
      <point x="263" y="524" type="line"/>
    </contour>
    <contour>
      <point x="50" y="454" type="line"/>
      <point x="199" y="340" type="line"/>
      <point x="50" y="226" type="line"/>
      <point x="50" y="156" type="line"/>
      <point x="254" y="309" type="line"/>
      <point x="254" y="371" type="line"/>
      <point x="50" y="524" type="line"/>
    </contour>
  </outline>
</glyph>
<glyph name="onequarter" format="1">
  <advance width="800"/>
  <unicode hex="00BC"/>
  <outline>
    <contour>
      <point x="733" y="0" type="line"/>
      <point x="733" y="93" type="line"/>
      <point x="785" y="93" type="line"/>
      <point x="785" y="146" type="line"/>
      <point x="733" y="146" type="line"/>
      <point x="733" y="390" type="line"/>
      <point x="675" y="390" type="line"/>
      <point x="514" y="134" type="line"/>
      <point x="514" y="93" type="line"/>
      <point x="673" y="93" type="line"/>
      <point x="673" y="0" type="line"/>
    </contour>
    <contour>
      <point x="144" y="0" type="line"/>
      <point x="720" y="780" type="line"/>
      <point x="656" y="780" type="line"/>
      <point x="80" y="0" type="line"/>
    </contour>
    <contour>
      <point x="277" y="390" type="line"/>
      <point x="277" y="442" type="line"/>
      <point x="185" y="442" type="line"/>
      <point x="185" y="781" type="line"/>
      <point x="142" y="781" type="line"/>
      <point x="20" y="698" type="line"/>
      <point x="49" y="654" type="line"/>
      <point x="125" y="705" type="line"/>
      <point x="125" y="442" type="line"/>
      <point x="32" y="442" type="line"/>
      <point x="32" y="390" type="line"/>
    </contour>
    <contour>
      <point x="674" y="293" type="line"/>
      <point x="673" y="254" type="line"/>
      <point x="673" y="146" type="line"/>
      <point x="614" y="146" type="line"/>
      <point x="580" y="145" type="line"/>
    </contour>
  </outline>
</glyph>
<glyph name="onehalf" format="1">
  <advance width="800"/>
  <unicode hex="00BD"/>
  <outline>
    <contour>
      <point x="144" y="0" type="line"/>
      <point x="720" y="780" type="line"/>
      <point x="656" y="780" type="line"/>
      <point x="80" y="0" type="line"/>
    </contour>
    <contour>
      <point x="775" y="52" type="line"/>
      <point x="611" y="52" type="line"/>
      <point x="730" y="181" type="line" smooth="yes"/>
      <point x="762" y="216"/>
      <point x="775" y="239"/>
      <point x="775" y="282" type="curve" smooth="yes"/>
      <point x="775" y="289" type="line" smooth="yes"/>
      <point x="775" y="346"/>
      <point x="738" y="396"/>
      <point x="650" y="396" type="curve" smooth="yes"/>
      <point x="564" y="396"/>
      <point x="525" y="352"/>
      <point x="525" y="271" type="curve" smooth="yes"/>
      <point x="525" y="260" type="line"/>
      <point x="584" y="260" type="line"/>
      <point x="584" y="320"/>
      <point x="607" y="343"/>
      <point x="648" y="343" type="curve" smooth="yes"/>
      <point x="651" y="343" type="line" smooth="yes"/>
      <point x="689" y="343"/>
      <point x="715" y="320"/>
      <point x="715" y="279" type="curve" smooth="yes"/>
      <point x="715" y="274" type="line" smooth="yes"/>
      <point x="715" y="249"/>
      <point x="706" y="233"/>
      <point x="683" y="209" type="curve" smooth="yes"/>
      <point x="525" y="37" type="line"/>
      <point x="525" y="0" type="line"/>
      <point x="775" y="0" type="line"/>
    </contour>
    <contour>
      <point x="277" y="390" type="line"/>
      <point x="277" y="442" type="line"/>
      <point x="185" y="442" type="line"/>
      <point x="185" y="781" type="line"/>
      <point x="142" y="781" type="line"/>
      <point x="20" y="698" type="line"/>
      <point x="49" y="654" type="line"/>
      <point x="125" y="705" type="line"/>
      <point x="125" y="442" type="line"/>
      <point x="32" y="442" type="line"/>
      <point x="32" y="390" type="line"/>
    </contour>
  </outline>
</glyph>
<glyph name="threequarters" format="1">
  <advance width="800"/>
  <unicode hex="00BE"/>
  <outline>
    <contour>
      <point x="733" y="0" type="line"/>
      <point x="733" y="93" type="line"/>
      <point x="785" y="93" type="line"/>
      <point x="785" y="146" type="line"/>
      <point x="733" y="146" type="line"/>
      <point x="733" y="390" type="line"/>
      <point x="675" y="390" type="line"/>
      <point x="514" y="134" type="line"/>
      <point x="514" y="93" type="line"/>
      <point x="673" y="93" type="line"/>
      <point x="673" y="0" type="line"/>
    </contour>
    <contour>
      <point x="82" y="515" type="curve"/>
      <point x="22" y="515" type="line"/>
      <point x="22" y="508" type="line" smooth="yes"/>
      <point x="22" y="430"/>
      <point x="64" y="383"/>
      <point x="150" y="383" type="curve" smooth="yes"/>
      <point x="234" y="383"/>
      <point x="277" y="437"/>
      <point x="277" y="492" type="curve" smooth="yes"/>
      <point x="277" y="501" type="line" smooth="yes"/>
      <point x="277" y="546"/>
      <point x="254" y="574"/>
      <point x="224" y="589" type="curve"/>
      <point x="253" y="603"/>
      <point x="275" y="630"/>
      <point x="275" y="674" type="curve" smooth="yes"/>
      <point x="275" y="682" type="line" smooth="yes"/>
      <point x="275" y="736"/>
      <point x="238" y="786"/>
      <point x="150" y="786" type="curve" smooth="yes"/>
      <point x="64" y="786"/>
      <point x="25" y="742"/>
      <point x="25" y="661" type="curve" smooth="yes"/>
      <point x="25" y="650" type="line"/>
      <point x="84" y="650" type="line"/>
      <point x="84" y="710"/>
      <point x="106" y="733"/>
      <point x="147" y="733" type="curve" smooth="yes"/>
      <point x="152" y="733" type="line" smooth="yes"/>
      <point x="189" y="733"/>
      <point x="215" y="710"/>
      <point x="215" y="675" type="curve" smooth="yes"/>
      <point x="215" y="671" type="line" smooth="yes"/>
      <point x="215" y="633"/>
      <point x="189" y="615"/>
      <point x="153" y="615" type="curve" smooth="yes"/>
      <point x="100" y="615" type="line"/>
      <point x="100" y="563" type="line"/>
      <point x="155" y="563" type="line" smooth="yes"/>
      <point x="192" y="563"/>
      <point x="218" y="543"/>
      <point x="218" y="504" type="curve" smooth="yes"/>
      <point x="218" y="497" type="line" smooth="yes"/>
      <point x="218" y="455"/>
      <point x="186" y="436"/>
      <point x="152" y="436" type="curve" smooth="yes"/>
      <point x="147" y="436" type="line" smooth="yes"/>
      <point x="108" y="436"/>
      <point x="82" y="459"/>
    </contour>
    <contour>
      <point x="144" y="0" type="line"/>
      <point x="720" y="780" type="line"/>
      <point x="656" y="780" type="line"/>
      <point x="80" y="0" type="line"/>
    </contour>
    <contour>
      <point x="674" y="293" type="line"/>
      <point x="673" y="254" type="line"/>
      <point x="673" y="146" type="line"/>
      <point x="614" y="146" type="line"/>
      <point x="580" y="145" type="line"/>
    </contour>
  </outline>
</glyph>
<glyph name="questiondown" format="1">
  <advance width="455"/>
  <unicode hex="00BF"/>
  <outline>
    <contour>
      <point x="224" y="-146" type="curve" smooth="yes"/>
      <point x="136" y="-146"/>
      <point x="101" y="-98"/>
      <point x="101" y="-22" type="curve" smooth="yes"/>
      <point x="101" y="116"/>
      <point x="259" y="165"/>
      <point x="252" y="341" type="curve"/>
      <point x="205" y="341" type="line"/>
      <point x="198" y="165"/>
      <point x="28" y="169"/>
      <point x="28" y="-29" type="curve" smooth="yes"/>
      <point x="28" y="-137"/>
      <point x="92" y="-211"/>
      <point x="224" y="-211" type="curve" smooth="yes"/>
      <point x="387" y="-211"/>
      <point x="429" y="-99"/>
      <point x="429" y="48" type="curve" smooth="yes"/>
      <point x="429" y="60" type="line"/>
      <point x="357" y="60" type="line"/>
      <point x="357" y="-68"/>
      <point x="329" y="-146"/>
    </contour>
    <contour>
      <point x="184" y="440" type="line"/>
      <point x="274" y="440" type="line"/>
      <point x="274" y="530" type="line"/>
      <point x="184" y="530" type="line"/>
    </contour>
  </outline>
</glyph>
<glyph name="Aacute" format="1">
  <advance width="611"/>
  <unicode hex="00C1"/>
  <outline>
    <contour>
      <point x="254" y="788" type="line"/>
      <point x="29" y="0" type="line"/>
      <point x="107" y="0" type="line"/>
      <point x="163" y="200" type="line"/>
      <point x="448" y="200" type="line"/>
      <point x="504" y="0" type="line"/>
      <point x="582" y="0" type="line"/>
      <point x="357" y="788" type="line"/>
    </contour>
    <contour>
      <point x="305" y="709" type="line"/>
      <point x="429" y="265" type="line"/>
      <point x="181" y="265" type="line"/>
    </contour>
    <contour>
      <point x="329" y="950" type="line"/>
      <point x="269" y="840" type="line"/>
      <point x="341" y="840" type="line"/>
      <point x="403" y="950" type="line"/>
    </contour>
  </outline>
</glyph>
<glyph name="Acircumflex" format="1">
  <advance width="611"/>
  <unicode hex="00C2"/>
  <outline>
    <contour>
      <point x="254" y="788" type="line"/>
      <point x="29" y="0" type="line"/>
      <point x="107" y="0" type="line"/>
      <point x="163" y="200" type="line"/>
      <point x="448" y="200" type="line"/>
      <point x="504" y="0" type="line"/>
      <point x="582" y="0" type="line"/>
      <point x="357" y="788" type="line"/>
    </contour>
    <contour>
      <point x="305" y="709" type="line"/>
      <point x="429" y="265" type="line"/>
      <point x="181" y="265" type="line"/>
    </contour>
    <contour>
      <point x="237" y="840" type="line"/>
      <point x="305" y="906" type="line"/>
      <point x="373" y="840" type="line"/>
      <point x="443" y="840" type="line"/>
      <point x="337" y="950" type="line"/>
      <point x="273" y="950" type="line"/>
      <point x="167" y="840" type="line"/>
    </contour>
  </outline>
</glyph>
<glyph name="Atilde" format="1">
  <advance width="611"/>
  <unicode hex="00C3"/>
  <outline>
    <contour>
      <point x="254" y="788" type="line"/>
      <point x="29" y="0" type="line"/>
      <point x="107" y="0" type="line"/>
      <point x="163" y="200" type="line"/>
      <point x="448" y="200" type="line"/>
      <point x="504" y="0" type="line"/>
      <point x="582" y="0" type="line"/>
      <point x="357" y="788" type="line"/>
    </contour>
    <contour>
      <point x="305" y="709" type="line"/>
      <point x="429" y="265" type="line"/>
      <point x="181" y="265" type="line"/>
    </contour>
    <contour>
      <point x="407" y="936" type="line"/>
      <point x="407" y="903"/>
      <point x="390" y="893"/>
      <point x="370" y="893" type="curve" smooth="yes"/>
      <point x="331" y="893"/>
      <point x="294" y="947"/>
      <point x="232" y="947" type="curve" smooth="yes"/>
      <point x="186" y="947"/>
      <point x="153" y="919"/>
      <point x="153" y="854" type="curve"/>
      <point x="203" y="854" type="line"/>
      <point x="203" y="887"/>
      <point x="220" y="897"/>
      <point x="240" y="897" type="curve" smooth="yes"/>
      <point x="279" y="897"/>
      <point x="316" y="843"/>
      <point x="378" y="843" type="curve" smooth="yes"/>
      <point x="424" y="843"/>
      <point x="457" y="871"/>
      <point x="457" y="936" type="curve"/>
    </contour>
  </outline>
</glyph>
<glyph name="Adieresis" format="1">
  <advance width="611"/>
  <unicode hex="00C4"/>
  <outline>
    <contour>
      <point x="254" y="788" type="line"/>
      <point x="29" y="0" type="line"/>
      <point x="107" y="0" type="line"/>
      <point x="163" y="200" type="line"/>
      <point x="448" y="200" type="line"/>
      <point x="504" y="0" type="line"/>
      <point x="582" y="0" type="line"/>
      <point x="357" y="788" type="line"/>
    </contour>
    <contour>
      <point x="305" y="709" type="line"/>
      <point x="429" y="265" type="line"/>
      <point x="181" y="265" type="line"/>
    </contour>
    <contour>
      <point x="266" y="930" type="line"/>
      <point x="187" y="930" type="line"/>
      <point x="187" y="860" type="line"/>
      <point x="266" y="860" type="line"/>
    </contour>
    <contour>
      <point x="423" y="930" type="line"/>
      <point x="344" y="930" type="line"/>
      <point x="344" y="860" type="line"/>
      <point x="423" y="860" type="line"/>
    </contour>
  </outline>
</glyph>
<glyph name="Aring" format="1">
  <advance width="611"/>
  <unicode hex="00C5"/>
  <outline>
    <contour>
      <point x="211" y="867" type="curve" smooth="yes"/>
      <point x="211" y="834"/>
      <point x="228" y="804"/>
      <point x="254" y="788" type="curve"/>
      <point x="29" y="0" type="line"/>
      <point x="107" y="0" type="line"/>
      <point x="163" y="200" type="line"/>
      <point x="448" y="200" type="line"/>
      <point x="504" y="0" type="line"/>
      <point x="582" y="0" type="line"/>
      <point x="357" y="788" type="line"/>
      <point x="356" y="788" type="line"/>
      <point x="382" y="804"/>
      <point x="399" y="834"/>
      <point x="399" y="867" type="curve" smooth="yes"/>
      <point x="399" y="919"/>
      <point x="357" y="961"/>
      <point x="305" y="961" type="curve" smooth="yes"/>
      <point x="253" y="961"/>
      <point x="211" y="919"/>
    </contour>
    <contour>
      <point x="305" y="709" type="line"/>
      <point x="429" y="265" type="line"/>
      <point x="181" y="265" type="line"/>
    </contour>
    <contour>
      <point x="249" y="867" type="curve" smooth="yes"/>
      <point x="249" y="898"/>
      <point x="274" y="923"/>
      <point x="305" y="923" type="curve" smooth="yes"/>
      <point x="336" y="923"/>
      <point x="361" y="898"/>
      <point x="361" y="867" type="curve" smooth="yes"/>
      <point x="361" y="836"/>
      <point x="336" y="811"/>
      <point x="305" y="811" type="curve" smooth="yes"/>
      <point x="274" y="811"/>
      <point x="249" y="836"/>
    </contour>
  </outline>
</glyph>
<glyph name="AE" format="1">
  <advance width="837"/>
  <unicode hex="00C6"/>
  <outline>
    <contour>
      <point x="309" y="780" type="line"/>
      <point x="20" y="0" type="line"/>
      <point x="97" y="0" type="line"/>
      <point x="172" y="208" type="line"/>
      <point x="419" y="208" type="line"/>
      <point x="448" y="0" type="line"/>
      <point x="797" y="0" type="line"/>
      <point x="797" y="65" type="line"/>
      <point x="514" y="65" type="line"/>
      <point x="470" y="366" type="line"/>
      <point x="747" y="366" type="line"/>
      <point x="747" y="430" type="line"/>
      <point x="461" y="430" type="line"/>
      <point x="419" y="715" type="line"/>
      <point x="797" y="715" type="line"/>
      <point x="797" y="780" type="line"/>
    </contour>
    <contour>
      <point x="350" y="703" type="line"/>
      <point x="410" y="272" type="line"/>
      <point x="195" y="272" type="line"/>
    </contour>
  </outline>
</glyph>
<glyph name="Ccedilla" format="1">
  <advance width="618"/>
  <unicode hex="00C7"/>
  <outline>
    <contour>
      <point x="240" y="-191" type="line"/>
      <point x="260" y="-204"/>
      <point x="295" y="-211"/>
      <point x="332" y="-211" type="curve" smooth="yes"/>
      <point x="393" y="-211"/>
      <point x="435" y="-189"/>
      <point x="435" y="-133" type="curve" smooth="yes"/>
      <point x="435" y="-77"/>
      <point x="384" y="-56"/>
      <point x="335" y="-56" type="curve" smooth="yes"/>
      <point x="331" y="-56" type="line"/>
      <point x="348" y="-10" type="line"/>
      <point x="496" y="-1"/>
      <point x="568" y="88"/>
      <point x="568" y="244" type="curve" smooth="yes"/>
      <point x="568" y="254" type="line"/>
      <point x="494" y="254" type="line"/>
      <point x="494" y="125"/>
      <point x="445" y="54"/>
      <point x="328" y="54" type="curve" smooth="yes"/>
      <point x="321" y="54" type="line" smooth="yes"/>
      <point x="190" y="54"/>
      <point x="131" y="148"/>
      <point x="131" y="370" type="curve" smooth="yes"/>
      <point x="131" y="410" type="line" smooth="yes"/>
      <point x="131" y="632"/>
      <point x="191" y="726"/>
      <point x="321" y="726" type="curve" smooth="yes"/>
      <point x="328" y="726" type="line" smooth="yes"/>
      <point x="445" y="726"/>
      <point x="494" y="657"/>
      <point x="494" y="496" type="curve"/>
      <point x="568" y="496" type="line"/>
      <point x="568" y="524" type="line" smooth="yes"/>
      <point x="568" y="700"/>
      <point x="488" y="791"/>
      <point x="322" y="791" type="curve" smooth="yes"/>
      <point x="143" y="791"/>
      <point x="57" y="680"/>
      <point x="57" y="410" type="curve" smooth="yes"/>
      <point x="57" y="370" type="line" smooth="yes"/>
      <point x="57" y="111"/>
      <point x="136" y="-1"/>
      <point x="300" y="-10" type="curve"/>
      <point x="273" y="-80" type="line"/>
      <point x="292" y="-103" type="line"/>
      <point x="292" y="-103"/>
      <point x="306" y="-100"/>
      <point x="321" y="-100" type="curve" smooth="yes"/>
      <point x="359" y="-100"/>
      <point x="383" y="-108"/>
      <point x="383" y="-131" type="curve" smooth="yes"/>
      <point x="383" y="-155"/>
      <point x="364" y="-162"/>
      <point x="325" y="-162" type="curve" smooth="yes"/>
      <point x="299" y="-162"/>
      <point x="272" y="-156"/>
      <point x="255" y="-147" type="curve"/>
    </contour>
  </outline>
</glyph>
<glyph name="Eacute" format="1">
  <advance width="549"/>
  <unicode hex="00C9"/>
  <outline>
    <contour>
      <point x="74" y="780" type="line"/>
      <point x="74" y="0" type="line"/>
      <point x="509" y="0" type="line"/>
      <point x="509" y="65" type="line"/>
      <point x="146" y="65" type="line"/>
      <point x="146" y="366" type="line"/>
      <point x="459" y="366" type="line"/>
      <point x="459" y="430" type="line"/>
      <point x="146" y="430" type="line"/>
      <point x="146" y="715" type="line"/>
      <point x="509" y="715" type="line"/>
      <point x="509" y="780" type="line"/>
    </contour>
    <contour>
      <point x="323" y="950" type="line"/>
      <point x="263" y="840" type="line"/>
      <point x="335" y="840" type="line"/>
      <point x="397" y="950" type="line"/>
    </contour>
  </outline>
</glyph>
<glyph name="Ecircumflex" format="1">
  <advance width="549"/>
  <unicode hex="00CA"/>
  <outline>
    <contour>
      <point x="74" y="780" type="line"/>
      <point x="74" y="0" type="line"/>
      <point x="509" y="0" type="line"/>
      <point x="509" y="65" type="line"/>
      <point x="146" y="65" type="line"/>
      <point x="146" y="366" type="line"/>
      <point x="459" y="366" type="line"/>
      <point x="459" y="430" type="line"/>
      <point x="146" y="430" type="line"/>
      <point x="146" y="715" type="line"/>
      <point x="509" y="715" type="line"/>
      <point x="509" y="780" type="line"/>
    </contour>
    <contour>
      <point x="231" y="840" type="line"/>
      <point x="299" y="906" type="line"/>
      <point x="367" y="840" type="line"/>
      <point x="437" y="840" type="line"/>
      <point x="331" y="950" type="line"/>
      <point x="267" y="950" type="line"/>
      <point x="161" y="840" type="line"/>
    </contour>
  </outline>
</glyph>
<glyph name="Edieresis" format="1">
  <advance width="549"/>
  <unicode hex="00CB"/>
  <outline>
    <contour>
      <point x="74" y="780" type="line"/>
      <point x="74" y="0" type="line"/>
      <point x="509" y="0" type="line"/>
      <point x="509" y="65" type="line"/>
      <point x="146" y="65" type="line"/>
      <point x="146" y="366" type="line"/>
      <point x="459" y="366" type="line"/>
      <point x="459" y="430" type="line"/>
      <point x="146" y="430" type="line"/>
      <point x="146" y="715" type="line"/>
      <point x="509" y="715" type="line"/>
      <point x="509" y="780" type="line"/>
    </contour>
    <contour>
      <point x="260" y="930" type="line"/>
      <point x="181" y="930" type="line"/>
      <point x="181" y="860" type="line"/>
      <point x="260" y="860" type="line"/>
    </contour>
    <contour>
      <point x="417" y="930" type="line"/>
      <point x="338" y="930" type="line"/>
      <point x="338" y="860" type="line"/>
      <point x="417" y="860" type="line"/>
    </contour>
  </outline>
</glyph>
<glyph name="Igrave" format="1">
  <advance width="229"/>
  <unicode hex="00CC"/>
  <outline>
    <contour>
      <point x="151" y="780" type="line"/>
      <point x="79" y="780" type="line"/>
      <point x="79" y="0" type="line"/>
      <point x="151" y="0" type="line"/>
    </contour>
    <contour>
      <point x="17" y="950" type="line"/>
      <point x="79" y="840" type="line"/>
      <point x="151" y="840" type="line"/>
      <point x="91" y="950" type="line"/>
    </contour>
  </outline>
</glyph>
<glyph name="Iacute" format="1">
  <advance width="229"/>
  <unicode hex="00CD"/>
  <outline>
    <contour>
      <point x="151" y="780" type="line"/>
      <point x="79" y="780" type="line"/>
      <point x="79" y="0" type="line"/>
      <point x="151" y="0" type="line"/>
    </contour>
    <contour>
      <point x="139" y="950" type="line"/>
      <point x="79" y="840" type="line"/>
      <point x="151" y="840" type="line"/>
      <point x="213" y="950" type="line"/>
    </contour>
  </outline>
</glyph>
<glyph name="Icircumflex" format="1">
  <advance width="229"/>
  <unicode hex="00CE"/>
  <outline>
    <contour>
      <point x="151" y="780" type="line"/>
      <point x="79" y="780" type="line"/>
      <point x="79" y="0" type="line"/>
      <point x="151" y="0" type="line"/>
    </contour>
    <contour>
      <point x="47" y="840" type="line"/>
      <point x="115" y="906" type="line"/>
      <point x="183" y="840" type="line"/>
      <point x="253" y="840" type="line"/>
      <point x="147" y="950" type="line"/>
      <point x="83" y="950" type="line"/>
      <point x="-23" y="840" type="line"/>
    </contour>
  </outline>
</glyph>
<glyph name="Idieresis" format="1">
  <advance width="229"/>
  <unicode hex="00CF"/>
  <outline>
    <contour>
      <point x="151" y="780" type="line"/>
      <point x="79" y="780" type="line"/>
      <point x="79" y="0" type="line"/>
      <point x="151" y="0" type="line"/>
    </contour>
    <contour>
      <point x="233" y="930" type="line"/>
      <point x="154" y="930" type="line"/>
      <point x="154" y="860" type="line"/>
      <point x="233" y="860" type="line"/>
    </contour>
    <contour>
      <point x="76" y="930" type="line"/>
      <point x="-3" y="930" type="line"/>
      <point x="-3" y="860" type="line"/>
      <point x="76" y="860" type="line"/>
    </contour>
  </outline>
</glyph>
<glyph name="Ntilde" format="1">
  <advance width="659"/>
  <unicode hex="00D1"/>
  <outline>
    <contour>
      <point x="585" y="780" type="line"/>
      <point x="517" y="780" type="line"/>
      <point x="517" y="303" type="line"/>
      <point x="520" y="122" type="line"/>
      <point x="152" y="780" type="line"/>
      <point x="74" y="780" type="line"/>
      <point x="74" y="0" type="line"/>
      <point x="142" y="0" type="line"/>
      <point x="142" y="477" type="line"/>
      <point x="138" y="658" type="line"/>
      <point x="507" y="0" type="line"/>
      <point x="585" y="0" type="line"/>
    </contour>
    <contour>
      <point x="431" y="936" type="line"/>
      <point x="431" y="903"/>
      <point x="414" y="893"/>
      <point x="394" y="893" type="curve" smooth="yes"/>
      <point x="355" y="893"/>
      <point x="318" y="947"/>
      <point x="256" y="947" type="curve" smooth="yes"/>
      <point x="210" y="947"/>
      <point x="177" y="919"/>
      <point x="177" y="854" type="curve"/>
      <point x="227" y="854" type="line"/>
      <point x="227" y="887"/>
      <point x="244" y="897"/>
      <point x="264" y="897" type="curve" smooth="yes"/>
      <point x="303" y="897"/>
      <point x="340" y="843"/>
      <point x="402" y="843" type="curve" smooth="yes"/>
      <point x="448" y="843"/>
      <point x="481" y="871"/>
      <point x="481" y="936" type="curve"/>
    </contour>
  </outline>
</glyph>
<glyph name="Otilde" format="1">
  <advance width="649"/>
  <unicode hex="00D5"/>
  <outline>
    <contour>
      <point x="324" y="-11" type="curve" smooth="yes"/>
      <point x="503" y="-11"/>
      <point x="592" y="100"/>
      <point x="592" y="370" type="curve" smooth="yes"/>
      <point x="592" y="410" type="line" smooth="yes"/>
      <point x="592" y="680"/>
      <point x="503" y="791"/>
      <point x="324" y="791" type="curve" smooth="yes"/>
      <point x="146" y="791"/>
      <point x="57" y="680"/>
      <point x="57" y="410" type="curve" smooth="yes"/>
      <point x="57" y="370" type="line" smooth="yes"/>
      <point x="57" y="100"/>
      <point x="146" y="-11"/>
    </contour>
    <contour>
      <point x="321" y="54" type="line" smooth="yes"/>
      <point x="190" y="54"/>
      <point x="131" y="148"/>
      <point x="131" y="370" type="curve" smooth="yes"/>
      <point x="131" y="410" type="line" smooth="yes"/>
      <point x="131" y="632"/>
      <point x="190" y="726"/>
      <point x="321" y="726" type="curve" smooth="yes"/>
      <point x="328" y="726" type="line" smooth="yes"/>
      <point x="459" y="726"/>
      <point x="518" y="632"/>
      <point x="518" y="410" type="curve" smooth="yes"/>
      <point x="518" y="370" type="line" smooth="yes"/>
      <point x="518" y="148"/>
      <point x="459" y="54"/>
      <point x="328" y="54" type="curve" smooth="yes"/>
    </contour>
    <contour>
      <point x="426" y="936" type="line"/>
      <point x="426" y="903"/>
      <point x="409" y="893"/>
      <point x="389" y="893" type="curve" smooth="yes"/>
      <point x="350" y="893"/>
      <point x="313" y="947"/>
      <point x="251" y="947" type="curve" smooth="yes"/>
      <point x="205" y="947"/>
      <point x="172" y="919"/>
      <point x="172" y="854" type="curve"/>
      <point x="222" y="854" type="line"/>
      <point x="222" y="887"/>
      <point x="239" y="897"/>
      <point x="259" y="897" type="curve" smooth="yes"/>
      <point x="298" y="897"/>
      <point x="335" y="843"/>
      <point x="397" y="843" type="curve" smooth="yes"/>
      <point x="443" y="843"/>
      <point x="476" y="871"/>
      <point x="476" y="936" type="curve"/>
    </contour>
  </outline>
</glyph>
<glyph name="multiply" format="1">
  <advance width="600"/>
  <unicode hex="00D7"/>
  <outline>
    <contour>
      <point x="83" y="126" type="line"/>
      <point x="300" y="343" type="line"/>
      <point x="517" y="126" type="line"/>
      <point x="564" y="173" type="line"/>
      <point x="347" y="390" type="line"/>
      <point x="564" y="607" type="line"/>
      <point x="517" y="654" type="line"/>
      <point x="300" y="437" type="line"/>
      <point x="83" y="654" type="line"/>
      <point x="36" y="607" type="line"/>
      <point x="253" y="390" type="line"/>
      <point x="36" y="173" type="line"/>
    </contour>
  </outline>
</glyph>
<glyph name="Oslash" format="1">
  <advance width="638"/>
  <unicode hex="00D8"/>
  <outline>
    <contour>
      <point x="57" y="410" type="curve" smooth="yes"/>
      <point x="57" y="370" type="line" smooth="yes"/>
      <point x="57" y="247"/>
      <point x="75" y="157"/>
      <point x="112" y="95" type="curve"/>
      <point x="54" y="0" type="line"/>
      <point x="112" y="0" type="line"/>
      <point x="144" y="54" type="line"/>
      <point x="188" y="9"/>
      <point x="248" y="-11"/>
      <point x="324" y="-11" type="curve" smooth="yes"/>
      <point x="503" y="-11"/>
      <point x="592" y="100"/>
      <point x="592" y="370" type="curve" smooth="yes"/>
      <point x="592" y="410" type="line" smooth="yes"/>
      <point x="592" y="537"/>
      <point x="572" y="630"/>
      <point x="532" y="691" type="curve"/>
      <point x="586" y="780" type="line"/>
      <point x="528" y="780" type="line"/>
      <point x="498" y="731" type="line"/>
      <point x="455" y="772"/>
      <point x="397" y="791"/>
      <point x="324" y="791" type="curve" smooth="yes"/>
      <point x="146" y="791"/>
      <point x="57" y="680"/>
    </contour>
    <contour>
      <point x="518" y="410" type="curve" smooth="yes"/>
      <point x="518" y="370" type="line" smooth="yes"/>
      <point x="518" y="148"/>
      <point x="459" y="54"/>
      <point x="328" y="54" type="curve" smooth="yes"/>
      <point x="321" y="54" type="line" smooth="yes"/>
      <point x="260" y="54"/>
      <point x="214" y="74"/>
      <point x="183" y="118" type="curve"/>
      <point x="488" y="619" type="line"/>
      <point x="508" y="569"/>
      <point x="518" y="500"/>
    </contour>
    <contour>
      <point x="131" y="370" type="curve" smooth="yes"/>
      <point x="131" y="410" type="line" smooth="yes"/>
      <point x="131" y="632"/>
      <point x="190" y="726"/>
      <point x="321" y="726" type="curve" smooth="yes"/>
      <point x="328" y="726" type="line" smooth="yes"/>
      <point x="385" y="726"/>
      <point x="429" y="708"/>
      <point x="460" y="668" type="curve"/>
      <point x="157" y="170" type="line"/>
      <point x="139" y="219"/>
      <point x="131" y="285"/>
    </contour>
  </outline>
</glyph>
<glyph name="Uacute" format="1">
  <advance width="639"/>
  <unicode hex="00DA"/>
  <outline>
    <contour>
      <point x="319" y="-11" type="curve" smooth="yes"/>
      <point x="485" y="-11"/>
      <point x="570" y="54"/>
      <point x="570" y="242" type="curve" smooth="yes"/>
      <point x="570" y="780" type="line"/>
      <point x="498" y="780" type="line"/>
      <point x="498" y="247" type="line" smooth="yes"/>
      <point x="498" y="99"/>
      <point x="439" y="54"/>
      <point x="319" y="54" type="curve" smooth="yes"/>
      <point x="199" y="54"/>
      <point x="141" y="99"/>
      <point x="141" y="247" type="curve" smooth="yes"/>
      <point x="141" y="780" type="line"/>
      <point x="69" y="780" type="line"/>
      <point x="69" y="242" type="line" smooth="yes"/>
      <point x="69" y="54"/>
      <point x="153" y="-11"/>
    </contour>
    <contour>
      <point x="343" y="950" type="line"/>
      <point x="283" y="840" type="line"/>
      <point x="355" y="840" type="line"/>
      <point x="417" y="950" type="line"/>
    </contour>
  </outline>
</glyph>
<glyph name="Ucircumflex" format="1">
  <advance width="639"/>
  <unicode hex="00DB"/>
  <outline>
    <contour>
      <point x="319" y="-11" type="curve" smooth="yes"/>
      <point x="485" y="-11"/>
      <point x="570" y="54"/>
      <point x="570" y="242" type="curve" smooth="yes"/>
      <point x="570" y="780" type="line"/>
      <point x="498" y="780" type="line"/>
      <point x="498" y="247" type="line" smooth="yes"/>
      <point x="498" y="99"/>
      <point x="439" y="54"/>
      <point x="319" y="54" type="curve" smooth="yes"/>
      <point x="199" y="54"/>
      <point x="141" y="99"/>
      <point x="141" y="247" type="curve" smooth="yes"/>
      <point x="141" y="780" type="line"/>
      <point x="69" y="780" type="line"/>
      <point x="69" y="242" type="line" smooth="yes"/>
      <point x="69" y="54"/>
      <point x="153" y="-11"/>
    </contour>
    <contour>
      <point x="251" y="840" type="line"/>
      <point x="319" y="906" type="line"/>
      <point x="387" y="840" type="line"/>
      <point x="457" y="840" type="line"/>
      <point x="351" y="950" type="line"/>
      <point x="287" y="950" type="line"/>
      <point x="181" y="840" type="line"/>
    </contour>
  </outline>
</glyph>
<glyph name="Udieresis" format="1">
  <advance width="639"/>
  <unicode hex="00DC"/>
  <outline>
    <contour>
      <point x="319" y="-11" type="curve" smooth="yes"/>
      <point x="485" y="-11"/>
      <point x="570" y="54"/>
      <point x="570" y="242" type="curve" smooth="yes"/>
      <point x="570" y="780" type="line"/>
      <point x="498" y="780" type="line"/>
      <point x="498" y="247" type="line" smooth="yes"/>
      <point x="498" y="99"/>
      <point x="439" y="54"/>
      <point x="319" y="54" type="curve" smooth="yes"/>
      <point x="199" y="54"/>
      <point x="141" y="99"/>
      <point x="141" y="247" type="curve" smooth="yes"/>
      <point x="141" y="780" type="line"/>
      <point x="69" y="780" type="line"/>
      <point x="69" y="242" type="line" smooth="yes"/>
      <point x="69" y="54"/>
      <point x="153" y="-11"/>
    </contour>
    <contour>
      <point x="280" y="930" type="line"/>
      <point x="201" y="930" type="line"/>
      <point x="201" y="860" type="line"/>
      <point x="280" y="860" type="line"/>
    </contour>
    <contour>
      <point x="437" y="930" type="line"/>
      <point x="358" y="930" type="line"/>
      <point x="358" y="860" type="line"/>
      <point x="437" y="860" type="line"/>
    </contour>
  </outline>
</glyph>
<glyph name="Thorn" format="1">
  <advance width="573"/>
  <unicode hex="00DE"/>
  <outline>
    <contour>
      <point x="146" y="780" type="line"/>
      <point x="74" y="780" type="line"/>
      <point x="74" y="0" type="line"/>
      <point x="146" y="0" type="line"/>
      <point x="146" y="158" type="line"/>
      <point x="290" y="158" type="line" smooth="yes"/>
      <point x="401" y="158"/>
      <point x="529" y="200"/>
      <point x="529" y="380" type="curve" smooth="yes"/>
      <point x="529" y="400" type="line" smooth="yes"/>
      <point x="529" y="580"/>
      <point x="401" y="622"/>
      <point x="290" y="622" type="curve" smooth="yes"/>
      <point x="146" y="622" type="line"/>
    </contour>
    <contour>
      <point x="146" y="223" type="line"/>
      <point x="146" y="557" type="line"/>
      <point x="292" y="557" type="line" smooth="yes"/>
      <point x="359" y="557"/>
      <point x="455" y="532"/>
      <point x="455" y="397" type="curve" smooth="yes"/>
      <point x="455" y="383" type="line" smooth="yes"/>
      <point x="455" y="248"/>
      <point x="359" y="223"/>
      <point x="292" y="223" type="curve" smooth="yes"/>
    </contour>
  </outline>
</glyph>
<glyph name="germandbls" format="1">
  <advance width="571"/>
  <unicode hex="00DF"/>
  <outline>
    <contour>
      <point x="262" y="370" type="line"/>
      <point x="339" y="319" type="line" smooth="yes"/>
      <point x="429" y="261"/>
      <point x="473" y="221"/>
      <point x="473" y="161" type="curve" smooth="yes"/>
      <point x="473" y="104"/>
      <point x="453" y="48"/>
      <point x="366" y="48" type="curve" smooth="yes"/>
      <point x="279" y="48"/>
      <point x="258" y="104"/>
      <point x="258" y="162" type="curve"/>
      <point x="196" y="162" type="line"/>
      <point x="196" y="157" type="line" smooth="yes"/>
      <point x="196" y="79"/>
      <point x="227" y="-11"/>
      <point x="369" y="-11" type="curve" smooth="yes"/>
      <point x="511" y="-11"/>
      <point x="543" y="80"/>
      <point x="543" y="159" type="curve" smooth="yes"/>
      <point x="543" y="164" type="line" smooth="yes"/>
      <point x="543" y="246"/>
      <point x="490" y="299"/>
      <point x="392" y="364" type="curve" smooth="yes"/>
      <point x="342" y="396" type="line"/>
      <point x="434" y="456"/>
      <point x="475" y="516"/>
      <point x="475" y="602" type="curve" smooth="yes"/>
      <point x="475" y="609" type="line" smooth="yes"/>
      <point x="475" y="726"/>
      <point x="410" y="811"/>
      <point x="270" y="811" type="curve" smooth="yes"/>
      <point x="126" y="811"/>
      <point x="65" y="728"/>
      <point x="65" y="609" type="curve" smooth="yes"/>
      <point x="65" y="0" type="line"/>
      <point x="135" y="0" type="line"/>
      <point x="135" y="604" type="line" smooth="yes"/>
      <point x="135" y="686"/>
      <point x="175" y="746"/>
      <point x="270" y="746" type="curve" smooth="yes"/>
      <point x="365" y="746"/>
      <point x="405" y="688"/>
      <point x="405" y="602" type="curve" smooth="yes"/>
      <point x="405" y="521"/>
      <point x="362" y="471"/>
      <point x="262" y="416" type="curve"/>
    </contour>
  </outline>
</glyph>
<glyph name="atilde" format="1">
  <advance width="512"/>
  <unicode hex="00E3"/>
  <outline>
    <contour>
      <point x="396" y="0" type="line"/>
      <point x="454" y="0" type="line"/>
      <point x="448" y="150" type="line"/>
      <point x="448" y="344" type="line" smooth="yes"/>
      <point x="448" y="461"/>
      <point x="403" y="541"/>
      <point x="256" y="541" type="curve" smooth="yes"/>
      <point x="100" y="541"/>
      <point x="65" y="444"/>
      <point x="65" y="364" type="curve" smooth="yes"/>
      <point x="65" y="355" type="line"/>
      <point x="132" y="355" type="line"/>
      <point x="132" y="424"/>
      <point x="155" y="482"/>
      <point x="255" y="482" type="curve" smooth="yes"/>
      <point x="349" y="482"/>
      <point x="378" y="435"/>
      <point x="378" y="344" type="curve" smooth="yes"/>
      <point x="378" y="330" type="line"/>
      <point x="218" y="305" type="line" smooth="yes"/>
      <point x="132" y="292"/>
      <point x="45" y="259"/>
      <point x="45" y="144" type="curve" smooth="yes"/>
      <point x="45" y="134" type="line" smooth="yes"/>
      <point x="45" y="49"/>
      <point x="101" y="-11"/>
      <point x="198" y="-11" type="curve" smooth="yes"/>
      <point x="290" y="-11"/>
      <point x="350" y="28"/>
      <point x="385" y="74" type="curve"/>
    </contour>
    <contour>
      <point x="216" y="50" type="curve" smooth="yes"/>
      <point x="145" y="50"/>
      <point x="115" y="93"/>
      <point x="115" y="140" type="curve" smooth="yes"/>
      <point x="115" y="149" type="line" smooth="yes"/>
      <point x="115" y="209"/>
      <point x="156" y="242"/>
      <point x="224" y="254" type="curve" smooth="yes"/>
      <point x="378" y="279" type="line"/>
      <point x="378" y="134" type="line"/>
      <point x="359" y="103"/>
      <point x="314" y="50"/>
    </contour>
    <contour>
      <point x="357" y="746" type="line"/>
      <point x="357" y="713"/>
      <point x="341" y="703"/>
      <point x="321" y="703" type="curve" smooth="yes"/>
      <point x="281" y="703"/>
      <point x="243" y="757"/>
      <point x="181" y="757" type="curve" smooth="yes"/>
      <point x="133" y="757"/>
      <point x="100" y="725"/>
      <point x="100" y="654" type="curve"/>
      <point x="155" y="654" type="line"/>
      <point x="155" y="687"/>
      <point x="171" y="697"/>
      <point x="191" y="697" type="curve" smooth="yes"/>
      <point x="231" y="697"/>
      <point x="269" y="643"/>
      <point x="331" y="643" type="curve" smooth="yes"/>
      <point x="379" y="643"/>
      <point x="412" y="675"/>
      <point x="412" y="746" type="curve"/>
    </contour>
  </outline>
</glyph>
<glyph name="ae" format="1">
  <advance width="871"/>
  <unicode hex="00E6"/>
  <outline>
    <contour>
      <point x="825" y="236" type="line"/>
      <point x="825" y="276" type="line" smooth="yes"/>
      <point x="825" y="423"/>
      <point x="757" y="541"/>
      <point x="602" y="541" type="curve" smooth="yes"/>
      <point x="514" y="541"/>
      <point x="457" y="502"/>
      <point x="424" y="442" type="curve"/>
      <point x="403" y="503"/>
      <point x="355" y="541"/>
      <point x="256" y="541" type="curve" smooth="yes"/>
      <point x="100" y="541"/>
      <point x="65" y="444"/>
      <point x="65" y="364" type="curve" smooth="yes"/>
      <point x="65" y="355" type="line"/>
      <point x="132" y="355" type="line"/>
      <point x="132" y="424"/>
      <point x="155" y="482"/>
      <point x="255" y="482" type="curve" smooth="yes"/>
      <point x="349" y="482"/>
      <point x="378" y="435"/>
      <point x="378" y="344" type="curve" smooth="yes"/>
      <point x="378" y="330" type="line"/>
      <point x="219" y="305" type="line" smooth="yes"/>
      <point x="133" y="292"/>
      <point x="45" y="259"/>
      <point x="45" y="144" type="curve" smooth="yes"/>
      <point x="45" y="134" type="line" smooth="yes"/>
      <point x="45" y="49"/>
      <point x="102" y="-11"/>
      <point x="201" y="-11" type="curve" smooth="yes"/>
      <point x="306" y="-11"/>
      <point x="377" y="39"/>
      <point x="415" y="92" type="curve"/>
      <point x="450" y="29"/>
      <point x="513" y="-11"/>
      <point x="607" y="-11" type="curve" smooth="yes"/>
      <point x="757" y="-11"/>
      <point x="825" y="84"/>
      <point x="825" y="166" type="curve" smooth="yes"/>
      <point x="825" y="170" type="line"/>
      <point x="757" y="170" type="line"/>
      <point x="757" y="113"/>
      <point x="713" y="48"/>
      <point x="608" y="48" type="curve" smooth="yes"/>
      <point x="501" y="48"/>
      <point x="452" y="120"/>
      <point x="449" y="236" type="curve"/>
    </contour>
    <contour>
      <point x="381" y="138" type="line"/>
      <point x="364" y="109"/>
      <point x="320" y="49"/>
      <point x="216" y="49" type="curve" smooth="yes"/>
      <point x="145" y="49"/>
      <point x="115" y="92"/>
      <point x="115" y="139" type="curve" smooth="yes"/>
      <point x="115" y="148" type="line" smooth="yes"/>
      <point x="115" y="208"/>
      <point x="156" y="241"/>
      <point x="225" y="253" type="curve" smooth="yes"/>
      <point x="378" y="278" type="line"/>
      <point x="378" y="254" type="line" smooth="yes"/>
      <point x="378" y="218"/>
      <point x="382" y="183"/>
      <point x="391" y="152" type="curve"/>
    </contour>
    <contour>
      <point x="601" y="482" type="curve" smooth="yes"/>
      <point x="702" y="482"/>
      <point x="749" y="409"/>
      <point x="753" y="294" type="curve"/>
      <point x="449" y="294" type="line"/>
      <point x="452" y="409"/>
      <point x="501" y="482"/>
    </contour>
  </outline>
</glyph>
<glyph name="ccedilla" format="1">
  <advance width="522"/>
  <unicode hex="00E7"/>
  <outline>
    <contour>
      <point x="188" y="-191" type="line"/>
      <point x="208" y="-204"/>
      <point x="243" y="-211"/>
      <point x="280" y="-211" type="curve" smooth="yes"/>
      <point x="341" y="-211"/>
      <point x="383" y="-189"/>
      <point x="383" y="-133" type="curve" smooth="yes"/>
      <point x="383" y="-77"/>
      <point x="332" y="-56"/>
      <point x="283" y="-56" type="curve" smooth="yes"/>
      <point x="279" y="-56" type="line"/>
      <point x="296" y="-10" type="line"/>
      <point x="423" y="1"/>
      <point x="473" y="89"/>
      <point x="473" y="168" type="curve" smooth="yes"/>
      <point x="473" y="184" type="line"/>
      <point x="406" y="184" type="line"/>
      <point x="406" y="115"/>
      <point x="370" y="52"/>
      <point x="271" y="52" type="curve" smooth="yes"/>
      <point x="166" y="52"/>
      <point x="120" y="132"/>
      <point x="120" y="253" type="curve" smooth="yes"/>
      <point x="120" y="277" type="line" smooth="yes"/>
      <point x="120" y="398"/>
      <point x="166" y="478"/>
      <point x="271" y="478" type="curve" smooth="yes"/>
      <point x="367" y="478"/>
      <point x="406" y="417"/>
      <point x="406" y="336" type="curve"/>
      <point x="473" y="336" type="line"/>
      <point x="473" y="356" type="line" smooth="yes"/>
      <point x="473" y="442"/>
      <point x="416" y="541"/>
      <point x="270" y="541" type="curve" smooth="yes"/>
      <point x="115" y="541"/>
      <point x="49" y="424"/>
      <point x="49" y="277" type="curve" smooth="yes"/>
      <point x="49" y="253" type="line" smooth="yes"/>
      <point x="49" y="113"/>
      <point x="109" y="0"/>
      <point x="248" y="-10" type="curve"/>
      <point x="221" y="-80" type="line"/>
      <point x="240" y="-103" type="line"/>
      <point x="240" y="-103"/>
      <point x="254" y="-100"/>
      <point x="269" y="-100" type="curve" smooth="yes"/>
      <point x="307" y="-100"/>
      <point x="331" y="-108"/>
      <point x="331" y="-131" type="curve" smooth="yes"/>
      <point x="331" y="-155"/>
      <point x="312" y="-162"/>
      <point x="273" y="-162" type="curve" smooth="yes"/>
      <point x="247" y="-162"/>
      <point x="220" y="-156"/>
      <point x="203" y="-147" type="curve"/>
    </contour>
  </outline>
</glyph>
<glyph name="igrave" format="1">
  <advance width="217"/>
  <unicode hex="00EC"/>
  <outline>
    <contour>
      <point x="73" y="0" type="line"/>
      <point x="143" y="0" type="line"/>
      <point x="143" y="530" type="line"/>
      <point x="73" y="530" type="line"/>
    </contour>
    <contour>
      <point x="-22" y="780" type="line"/>
      <point x="72" y="614" type="line"/>
      <point x="144" y="614" type="line"/>
      <point x="54" y="780" type="line"/>
    </contour>
  </outline>
</glyph>
<glyph name="iacute" format="1">
  <advance width="217"/>
  <unicode hex="00ED"/>
  <outline>
    <contour>
      <point x="73" y="0" type="line"/>
      <point x="143" y="0" type="line"/>
      <point x="143" y="530" type="line"/>
      <point x="73" y="530" type="line"/>
    </contour>
    <contour>
      <point x="162" y="780" type="line"/>
      <point x="72" y="614" type="line"/>
      <point x="144" y="614" type="line"/>
      <point x="238" y="780" type="line"/>
    </contour>
  </outline>
</glyph>
<glyph name="icircumflex" format="1">
  <advance width="217"/>
  <unicode hex="00EE"/>
  <outline>
    <contour>
      <point x="73" y="0" type="line"/>
      <point x="143" y="0" type="line"/>
      <point x="143" y="530" type="line"/>
      <point x="73" y="530" type="line"/>
    </contour>
    <contour>
      <point x="15" y="614" type="line"/>
      <point x="108" y="727" type="line"/>
      <point x="201" y="614" type="line"/>
      <point x="270" y="614" type="line"/>
      <point x="139" y="780" type="line"/>
      <point x="77" y="780" type="line"/>
      <point x="-54" y="614" type="line"/>
    </contour>
  </outline>
</glyph>
<glyph name="idieresis" format="1">
  <advance width="217"/>
  <unicode hex="00EF"/>
  <outline>
    <contour>
      <point x="73" y="0" type="line"/>
      <point x="143" y="0" type="line"/>
      <point x="143" y="530" type="line"/>
      <point x="73" y="530" type="line"/>
    </contour>
    <contour>
      <point x="68" y="745" type="line"/>
      <point x="-19" y="745" type="line"/>
      <point x="-19" y="657" type="line"/>
      <point x="68" y="657" type="line"/>
    </contour>
    <contour>
      <point x="235" y="745" type="line"/>
      <point x="148" y="745" type="line"/>
      <point x="148" y="657" type="line"/>
      <point x="235" y="657" type="line"/>
    </contour>
  </outline>
</glyph>
<glyph name="eth" format="1">
  <advance width="544"/>
  <unicode hex="00F0"/>
  <outline>
    <contour>
      <point x="49" y="747" type="line"/>
      <point x="106" y="740"/>
      <point x="160" y="727"/>
      <point x="210" y="703" type="curve"/>
      <point x="87" y="632" type="line"/>
      <point x="87" y="577" type="line"/>
      <point x="258" y="676" type="line"/>
      <point x="281" y="660"/>
      <point x="304" y="642"/>
      <point x="325" y="620" type="curve" smooth="yes"/>
      <point x="357" y="585"/>
      <point x="381" y="542"/>
      <point x="398" y="494" type="curve"/>
      <point x="366" y="523"/>
      <point x="322" y="541"/>
      <point x="266" y="541" type="curve" smooth="yes"/>
      <point x="116" y="541"/>
      <point x="49" y="424"/>
      <point x="49" y="277" type="curve" smooth="yes"/>
      <point x="49" y="253" type="line" smooth="yes"/>
      <point x="49" y="106"/>
      <point x="116" y="-11"/>
      <point x="272" y="-11" type="curve" smooth="yes"/>
      <point x="428" y="-11"/>
      <point x="495" y="106"/>
      <point x="495" y="253" type="curve" smooth="yes"/>
      <point x="495" y="277" type="line" smooth="yes"/>
      <point x="495" y="393"/>
      <point x="472" y="559"/>
      <point x="380" y="662" type="curve" smooth="yes"/>
      <point x="362" y="681"/>
      <point x="343" y="699"/>
      <point x="324" y="714" type="curve"/>
      <point x="398" y="756" type="line"/>
      <point x="398" y="811" type="line"/>
      <point x="281" y="743" type="line"/>
      <point x="211" y="785"/>
      <point x="133" y="804"/>
      <point x="49" y="811" type="curve"/>
    </contour>
    <contour>
      <point x="272" y="52" type="curve" smooth="yes"/>
      <point x="167" y="52"/>
      <point x="120" y="132"/>
      <point x="120" y="253" type="curve" smooth="yes"/>
      <point x="120" y="277" type="line" smooth="yes"/>
      <point x="120" y="398"/>
      <point x="167" y="478"/>
      <point x="272" y="478" type="curve" smooth="yes"/>
      <point x="377" y="478"/>
      <point x="424" y="398"/>
      <point x="424" y="277" type="curve" smooth="yes"/>
      <point x="424" y="253" type="line" smooth="yes"/>
      <point x="424" y="132"/>
      <point x="377" y="52"/>
    </contour>
  </outline>
</glyph>
<glyph name="ntilde" format="1">
  <advance width="528"/>
  <unicode hex="00F1"/>
  <outline>
    <contour>
      <point x="467" y="0" type="line"/>
      <point x="467" y="371" type="line" smooth="yes"/>
      <point x="467" y="470"/>
      <point x="411" y="541"/>
      <point x="306" y="541" type="curve" smooth="yes"/>
      <point x="215" y="541"/>
      <point x="159" y="502"/>
      <point x="128" y="455" type="curve"/>
      <point x="118" y="530" type="line"/>
      <point x="60" y="530" type="line"/>
      <point x="66" y="380" type="line"/>
      <point x="66" y="0" type="line"/>
      <point x="136" y="0" type="line"/>
      <point x="136" y="396" type="line"/>
      <point x="158" y="431"/>
      <point x="199" y="478"/>
      <point x="282" y="478" type="curve" smooth="yes"/>
      <point x="352" y="478"/>
      <point x="397" y="441"/>
      <point x="397" y="361" type="curve" smooth="yes"/>
      <point x="397" y="0" type="line"/>
    </contour>
    <contour>
      <point x="368" y="746" type="line"/>
      <point x="368" y="713"/>
      <point x="352" y="703"/>
      <point x="332" y="703" type="curve" smooth="yes"/>
      <point x="292" y="703"/>
      <point x="254" y="757"/>
      <point x="192" y="757" type="curve" smooth="yes"/>
      <point x="144" y="757"/>
      <point x="111" y="725"/>
      <point x="111" y="654" type="curve"/>
      <point x="166" y="654" type="line"/>
      <point x="166" y="687"/>
      <point x="182" y="697"/>
      <point x="202" y="697" type="curve" smooth="yes"/>
      <point x="242" y="697"/>
      <point x="280" y="643"/>
      <point x="342" y="643" type="curve" smooth="yes"/>
      <point x="390" y="643"/>
      <point x="423" y="675"/>
      <point x="423" y="746" type="curve"/>
    </contour>
  </outline>
</glyph>
<glyph name="ocircumflex" format="1">
  <advance width="544"/>
  <unicode hex="00F4"/>
  <outline>
    <contour>
      <point x="272" y="-11" type="curve" smooth="yes"/>
      <point x="428" y="-11"/>
      <point x="495" y="106"/>
      <point x="495" y="253" type="curve" smooth="yes"/>
      <point x="495" y="277" type="line" smooth="yes"/>
      <point x="495" y="424"/>
      <point x="428" y="541"/>
      <point x="272" y="541" type="curve" smooth="yes"/>
      <point x="116" y="541"/>
      <point x="49" y="424"/>
      <point x="49" y="277" type="curve" smooth="yes"/>
      <point x="49" y="253" type="line" smooth="yes"/>
      <point x="49" y="106"/>
      <point x="116" y="-11"/>
    </contour>
    <contour>
      <point x="272" y="52" type="curve" smooth="yes"/>
      <point x="167" y="52"/>
      <point x="120" y="132"/>
      <point x="120" y="253" type="curve" smooth="yes"/>
      <point x="120" y="277" type="line" smooth="yes"/>
      <point x="120" y="398"/>
      <point x="167" y="478"/>
      <point x="272" y="478" type="curve" smooth="yes"/>
      <point x="377" y="478"/>
      <point x="424" y="398"/>
      <point x="424" y="277" type="curve" smooth="yes"/>
      <point x="424" y="253" type="line" smooth="yes"/>
      <point x="424" y="132"/>
      <point x="377" y="52"/>
    </contour>
    <contour>
      <point x="179" y="614" type="line"/>
      <point x="272" y="727" type="line"/>
      <point x="365" y="614" type="line"/>
      <point x="434" y="614" type="line"/>
      <point x="303" y="780" type="line"/>
      <point x="241" y="780" type="line"/>
      <point x="110" y="614" type="line"/>
    </contour>
  </outline>
</glyph>
<glyph name="otilde" format="1">
  <advance width="544"/>
  <unicode hex="00F5"/>
  <outline>
    <contour>
      <point x="272" y="-11" type="curve" smooth="yes"/>
      <point x="428" y="-11"/>
      <point x="495" y="106"/>
      <point x="495" y="253" type="curve" smooth="yes"/>
      <point x="495" y="277" type="line" smooth="yes"/>
      <point x="495" y="424"/>
      <point x="428" y="541"/>
      <point x="272" y="541" type="curve" smooth="yes"/>
      <point x="116" y="541"/>
      <point x="49" y="424"/>
      <point x="49" y="277" type="curve" smooth="yes"/>
      <point x="49" y="253" type="line" smooth="yes"/>
      <point x="49" y="106"/>
      <point x="116" y="-11"/>
    </contour>
    <contour>
      <point x="272" y="52" type="curve" smooth="yes"/>
      <point x="167" y="52"/>
      <point x="120" y="132"/>
      <point x="120" y="253" type="curve" smooth="yes"/>
      <point x="120" y="277" type="line" smooth="yes"/>
      <point x="120" y="398"/>
      <point x="167" y="478"/>
      <point x="272" y="478" type="curve" smooth="yes"/>
      <point x="377" y="478"/>
      <point x="424" y="398"/>
      <point x="424" y="277" type="curve" smooth="yes"/>
      <point x="424" y="253" type="line" smooth="yes"/>
      <point x="424" y="132"/>
      <point x="377" y="52"/>
    </contour>
    <contour>
      <point x="373" y="746" type="line"/>
      <point x="373" y="713"/>
      <point x="357" y="703"/>
      <point x="337" y="703" type="curve" smooth="yes"/>
      <point x="297" y="703"/>
      <point x="259" y="757"/>
      <point x="197" y="757" type="curve" smooth="yes"/>
      <point x="149" y="757"/>
      <point x="116" y="725"/>
      <point x="116" y="654" type="curve"/>
      <point x="171" y="654" type="line"/>
      <point x="171" y="687"/>
      <point x="187" y="697"/>
      <point x="207" y="697" type="curve" smooth="yes"/>
      <point x="247" y="697"/>
      <point x="285" y="643"/>
      <point x="347" y="643" type="curve" smooth="yes"/>
      <point x="395" y="643"/>
      <point x="428" y="675"/>
      <point x="428" y="746" type="curve"/>
    </contour>
  </outline>
</glyph>
<glyph name="odieresis" format="1">
  <advance width="544"/>
  <unicode hex="00F6"/>
  <outline>
    <contour>
      <point x="272" y="-11" type="curve" smooth="yes"/>
      <point x="428" y="-11"/>
      <point x="495" y="106"/>
      <point x="495" y="253" type="curve" smooth="yes"/>
      <point x="495" y="277" type="line" smooth="yes"/>
      <point x="495" y="424"/>
      <point x="428" y="541"/>
      <point x="272" y="541" type="curve" smooth="yes"/>
      <point x="116" y="541"/>
      <point x="49" y="424"/>
      <point x="49" y="277" type="curve" smooth="yes"/>
      <point x="49" y="253" type="line" smooth="yes"/>
      <point x="49" y="106"/>
      <point x="116" y="-11"/>
    </contour>
    <contour>
      <point x="272" y="52" type="curve" smooth="yes"/>
      <point x="167" y="52"/>
      <point x="120" y="132"/>
      <point x="120" y="253" type="curve" smooth="yes"/>
      <point x="120" y="277" type="line" smooth="yes"/>
      <point x="120" y="398"/>
      <point x="167" y="478"/>
      <point x="272" y="478" type="curve" smooth="yes"/>
      <point x="377" y="478"/>
      <point x="424" y="398"/>
      <point x="424" y="277" type="curve" smooth="yes"/>
      <point x="424" y="253" type="line" smooth="yes"/>
      <point x="424" y="132"/>
      <point x="377" y="52"/>
    </contour>
    <contour>
      <point x="232" y="745" type="line"/>
      <point x="145" y="745" type="line"/>
      <point x="145" y="657" type="line"/>
      <point x="232" y="657" type="line"/>
    </contour>
    <contour>
      <point x="399" y="745" type="line"/>
      <point x="312" y="745" type="line"/>
      <point x="312" y="657" type="line"/>
      <point x="399" y="657" type="line"/>
    </contour>
  </outline>
</glyph>
<glyph name="divide" format="1">
  <advance width="600"/>
  <unicode hex="00F7"/>
  <outline>
    <contour>
      <point x="48" y="357" type="line"/>
      <point x="552" y="357" type="line"/>
      <point x="552" y="423" type="line"/>
      <point x="48" y="423" type="line"/>
    </contour>
    <contour>
      <point x="344" y="217" type="line"/>
      <point x="256" y="217" type="line"/>
      <point x="256" y="129" type="line"/>
      <point x="344" y="129" type="line"/>
    </contour>
    <contour>
      <point x="344" y="651" type="line"/>
      <point x="256" y="651" type="line"/>
      <point x="256" y="563" type="line"/>
      <point x="344" y="563" type="line"/>
    </contour>
  </outline>
</glyph>
<glyph name="oslash" format="1">
  <advance width="544"/>
  <unicode hex="00F8"/>
  <outline>
    <contour>
      <point x="495" y="530" type="line"/>
      <point x="442" y="530" type="line"/>
      <point x="414" y="493" type="line"/>
      <point x="379" y="523"/>
      <point x="332" y="541"/>
      <point x="272" y="541" type="curve" smooth="yes"/>
      <point x="116" y="541"/>
      <point x="49" y="424"/>
      <point x="49" y="277" type="curve" smooth="yes"/>
      <point x="49" y="253" type="line" smooth="yes"/>
      <point x="49" y="181"/>
      <point x="65" y="116"/>
      <point x="100" y="68" type="curve"/>
      <point x="49" y="0" type="line"/>
      <point x="102" y="0" type="line"/>
      <point x="129" y="37" type="line"/>
      <point x="164" y="7"/>
      <point x="211" y="-11"/>
      <point x="272" y="-11" type="curve" smooth="yes"/>
      <point x="428" y="-11"/>
      <point x="495" y="106"/>
      <point x="495" y="253" type="curve" smooth="yes"/>
      <point x="495" y="277" type="line" smooth="yes"/>
      <point x="495" y="349"/>
      <point x="479" y="414"/>
      <point x="444" y="461" type="curve"/>
    </contour>
    <contour>
      <point x="120" y="253" type="curve" smooth="yes"/>
      <point x="120" y="277" type="line" smooth="yes"/>
      <point x="120" y="398"/>
      <point x="167" y="478"/>
      <point x="272" y="478" type="curve" smooth="yes"/>
      <point x="316" y="478"/>
      <point x="350" y="464"/>
      <point x="374" y="438" type="curve"/>
      <point x="144" y="128" type="line"/>
      <point x="128" y="161"/>
      <point x="120" y="204"/>
    </contour>
    <contour>
      <point x="424" y="277" type="curve" smooth="yes"/>
      <point x="424" y="253" type="line" smooth="yes"/>
      <point x="424" y="132"/>
      <point x="377" y="52"/>
      <point x="272" y="52" type="curve" smooth="yes"/>
      <point x="228" y="52"/>
      <point x="194" y="66"/>
      <point x="169" y="91" type="curve"/>
      <point x="399" y="401" type="line"/>
      <point x="416" y="368"/>
      <point x="424" y="326"/>
    </contour>
  </outline>
</glyph>
<glyph name="ugrave" format="1">
  <advance width="528"/>
  <unicode hex="00F9"/>
  <outline>
    <contour>
      <point x="61" y="530" type="line"/>
      <point x="61" y="159" type="line" smooth="yes"/>
      <point x="61" y="60"/>
      <point x="116" y="-11"/>
      <point x="222" y="-11" type="curve" smooth="yes"/>
      <point x="312" y="-11"/>
      <point x="369" y="27"/>
      <point x="399" y="74" type="curve"/>
      <point x="410" y="0" type="line"/>
      <point x="468" y="0" type="line"/>
      <point x="462" y="150" type="line"/>
      <point x="462" y="530" type="line"/>
      <point x="392" y="530" type="line"/>
      <point x="392" y="134" type="line"/>
      <point x="370" y="99"/>
      <point x="329" y="52"/>
      <point x="245" y="52" type="curve" smooth="yes"/>
      <point x="175" y="52"/>
      <point x="130" y="89"/>
      <point x="130" y="169" type="curve" smooth="yes"/>
      <point x="130" y="530" type="line"/>
    </contour>
    <contour>
      <point x="131" y="780" type="line"/>
      <point x="225" y="614" type="line"/>
      <point x="297" y="614" type="line"/>
      <point x="207" y="780" type="line"/>
    </contour>
  </outline>
</glyph>
<glyph name="yacute" format="1">
  <advance width="484"/>
  <unicode hex="00FD"/>
  <outline>
    <contour>
      <point x="249" y="97" type="line"/>
      <point x="98" y="530" type="line"/>
      <point x="23" y="530" type="line"/>
      <point x="213" y="20" type="line"/>
      <point x="130" y="-200" type="line"/>
      <point x="211" y="-200" type="line"/>
      <point x="286" y="20" type="line"/>
      <point x="476" y="530" type="line"/>
      <point x="401" y="530" type="line"/>
    </contour>
    <contour>
      <point x="303" y="780" type="line"/>
      <point x="213" y="614" type="line"/>
      <point x="285" y="614" type="line"/>
      <point x="379" y="780" type="line"/>
    </contour>
  </outline>
</glyph>
<glyph name="thorn" format="1">
  <advance width="537"/>
  <unicode hex="00FE"/>
  <outline>
    <contour>
      <point x="65" y="800" type="line"/>
      <point x="65" y="-200" type="line"/>
      <point x="135" y="-200" type="line"/>
      <point x="135" y="62" type="line"/>
      <point x="163" y="21"/>
      <point x="211" y="-11"/>
      <point x="286" y="-11" type="curve" smooth="yes"/>
      <point x="431" y="-11"/>
      <point x="489" y="106"/>
      <point x="489" y="253" type="curve" smooth="yes"/>
      <point x="489" y="277" type="line" smooth="yes"/>
      <point x="489" y="424"/>
      <point x="431" y="541"/>
      <point x="286" y="541" type="curve" smooth="yes"/>
      <point x="211" y="541"/>
      <point x="163" y="509"/>
      <point x="135" y="468" type="curve"/>
      <point x="135" y="800" type="line"/>
    </contour>
    <contour>
      <point x="136" y="134" type="curve"/>
      <point x="136" y="396" type="line"/>
      <point x="157" y="431"/>
      <point x="198" y="478"/>
      <point x="270" y="478" type="curve" smooth="yes"/>
      <point x="370" y="478"/>
      <point x="417" y="400"/>
      <point x="417" y="277" type="curve" smooth="yes"/>
      <point x="417" y="253" type="line" smooth="yes"/>
      <point x="417" y="130"/>
      <point x="370" y="52"/>
      <point x="270" y="52" type="curve" smooth="yes"/>
      <point x="198" y="52"/>
      <point x="157" y="99"/>
    </contour>
  </outline>
</glyph>
<glyph name="ydieresis" format="1">
  <advance width="484"/>
  <unicode hex="00FF"/>
  <outline>
    <contour>
      <point x="249" y="97" type="line"/>
      <point x="98" y="530" type="line"/>
      <point x="23" y="530" type="line"/>
      <point x="213" y="20" type="line"/>
      <point x="130" y="-200" type="line"/>
      <point x="211" y="-200" type="line"/>
      <point x="286" y="20" type="line"/>
      <point x="476" y="530" type="line"/>
      <point x="401" y="530" type="line"/>
    </contour>
    <contour>
      <point x="376" y="745" type="line"/>
      <point x="289" y="745" type="line"/>
      <point x="289" y="657" type="line"/>
      <point x="376" y="657" type="line"/>
    </contour>
    <contour>
      <point x="209" y="745" type="line"/>
      <point x="122" y="745" type="line"/>
      <point x="122" y="657" type="line"/>
      <point x="209" y="657" type="line"/>
    </contour>
  </outline>
</glyph>
<glyph name="Amacron" format="1">
  <advance width="611"/>
  <unicode hex="0100"/>
  <outline>
    <contour>
      <point x="254" y="788" type="line"/>
      <point x="29" y="0" type="line"/>
      <point x="107" y="0" type="line"/>
      <point x="163" y="200" type="line"/>
      <point x="448" y="200" type="line"/>
      <point x="504" y="0" type="line"/>
      <point x="582" y="0" type="line"/>
      <point x="357" y="788" type="line"/>
    </contour>
    <contour>
      <point x="305" y="709" type="line"/>
      <point x="429" y="265" type="line"/>
      <point x="181" y="265" type="line"/>
    </contour>
    <contour>
      <point x="192" y="868" type="line"/>
      <point x="418" y="868" type="line"/>
      <point x="418" y="922" type="line"/>
      <point x="192" y="922" type="line"/>
    </contour>
  </outline>
</glyph>
<glyph name="Abreve" format="1">
  <advance width="611"/>
  <unicode hex="0102"/>
  <outline>
    <contour>
      <point x="254" y="788" type="line"/>
      <point x="29" y="0" type="line"/>
      <point x="107" y="0" type="line"/>
      <point x="163" y="200" type="line"/>
      <point x="448" y="200" type="line"/>
      <point x="504" y="0" type="line"/>
      <point x="582" y="0" type="line"/>
      <point x="357" y="788" type="line"/>
    </contour>
    <contour>
      <point x="305" y="709" type="line"/>
      <point x="429" y="265" type="line"/>
      <point x="181" y="265" type="line"/>
    </contour>
    <contour>
      <point x="305" y="829" type="curve" smooth="yes"/>
      <point x="410" y="829"/>
      <point x="450" y="881"/>
      <point x="450" y="950" type="curve"/>
      <point x="394" y="950" type="line"/>
      <point x="394" y="906"/>
      <point x="367" y="879"/>
      <point x="305" y="879" type="curve" smooth="yes"/>
      <point x="243" y="879"/>
      <point x="216" y="906"/>
      <point x="216" y="950" type="curve"/>
      <point x="160" y="950" type="line"/>
      <point x="160" y="881"/>
      <point x="200" y="829"/>
    </contour>
  </outline>
</glyph>
<glyph name="Aogonek" format="1">
  <advance width="611"/>
  <unicode hex="0104"/>
  <outline>
    <contour>
      <point x="499" y="-103" type="curve" smooth="yes"/>
      <point x="499" y="-52"/>
      <point x="538" y="-19"/>
      <point x="582" y="0" type="curve"/>
      <point x="357" y="788" type="line"/>
      <point x="254" y="788" type="line"/>
      <point x="29" y="0" type="line"/>
      <point x="107" y="0" type="line"/>
      <point x="163" y="200" type="line"/>
      <point x="448" y="200" type="line"/>
      <point x="502" y="7" type="line"/>
      <point x="466" y="-20"/>
      <point x="439" y="-61"/>
      <point x="439" y="-113" type="curve" smooth="yes"/>
      <point x="439" y="-182"/>
      <point x="483" y="-211"/>
      <point x="548" y="-211" type="curve" smooth="yes"/>
      <point x="580" y="-211"/>
      <point x="616" y="-204"/>
      <point x="637" y="-191" type="curve"/>
      <point x="618" y="-139" type="line"/>
      <point x="603" y="-147"/>
      <point x="579" y="-153"/>
      <point x="555" y="-153" type="curve" smooth="yes"/>
      <point x="519" y="-153"/>
      <point x="499" y="-132"/>
    </contour>
    <contour>
      <point x="305" y="709" type="line"/>
      <point x="429" y="265" type="line"/>
      <point x="181" y="265" type="line"/>
    </contour>
  </outline>
</glyph>
<glyph name="aogonek" format="1">
  <advance width="512"/>
  <unicode hex="0105"/>
  <outline>
    <contour>
      <point x="371" y="-103" type="curve" smooth="yes"/>
      <point x="371" y="-52"/>
      <point x="410" y="-19"/>
      <point x="454" y="0" type="curve"/>
      <point x="448" y="150" type="line"/>
      <point x="448" y="344" type="line" smooth="yes"/>
      <point x="448" y="461"/>
      <point x="403" y="541"/>
      <point x="256" y="541" type="curve" smooth="yes"/>
      <point x="100" y="541"/>
      <point x="65" y="444"/>
      <point x="65" y="364" type="curve" smooth="yes"/>
      <point x="65" y="355" type="line"/>
      <point x="132" y="355" type="line"/>
      <point x="132" y="424"/>
      <point x="155" y="482"/>
      <point x="255" y="482" type="curve" smooth="yes"/>
      <point x="349" y="482"/>
      <point x="378" y="435"/>
      <point x="378" y="344" type="curve" smooth="yes"/>
      <point x="378" y="330" type="line"/>
      <point x="218" y="305" type="line" smooth="yes"/>
      <point x="132" y="292"/>
      <point x="45" y="259"/>
      <point x="45" y="144" type="curve" smooth="yes"/>
      <point x="45" y="134" type="line" smooth="yes"/>
      <point x="45" y="49"/>
      <point x="101" y="-11"/>
      <point x="198" y="-11" type="curve" smooth="yes"/>
      <point x="290" y="-11"/>
      <point x="350" y="28"/>
      <point x="385" y="74" type="curve"/>
      <point x="393" y="21" type="line"/>
      <point x="347" y="-7"/>
      <point x="311" y="-52"/>
      <point x="311" y="-113" type="curve" smooth="yes"/>
      <point x="311" y="-182"/>
      <point x="355" y="-211"/>
      <point x="420" y="-211" type="curve" smooth="yes"/>
      <point x="452" y="-211"/>
      <point x="488" y="-204"/>
      <point x="509" y="-191" type="curve"/>
      <point x="490" y="-139" type="line"/>
      <point x="475" y="-147"/>
      <point x="451" y="-153"/>
      <point x="427" y="-153" type="curve" smooth="yes"/>
      <point x="391" y="-153"/>
      <point x="371" y="-132"/>
    </contour>
    <contour>
      <point x="216" y="50" type="curve" smooth="yes"/>
      <point x="145" y="50"/>
      <point x="115" y="93"/>
      <point x="115" y="140" type="curve" smooth="yes"/>
      <point x="115" y="149" type="line" smooth="yes"/>
      <point x="115" y="209"/>
      <point x="156" y="242"/>
      <point x="224" y="254" type="curve" smooth="yes"/>
      <point x="378" y="279" type="line"/>
      <point x="378" y="134" type="line"/>
      <point x="359" y="103"/>
      <point x="314" y="50"/>
    </contour>
  </outline>
</glyph>
<glyph name="cdotaccent" format="1">
  <advance width="522"/>
  <unicode hex="010B"/>
  <outline>
    <contour>
      <point x="120" y="253" type="curve" smooth="yes"/>
      <point x="120" y="277" type="line" smooth="yes"/>
      <point x="120" y="398"/>
      <point x="166" y="478"/>
      <point x="271" y="478" type="curve" smooth="yes"/>
      <point x="367" y="478"/>
      <point x="406" y="417"/>
      <point x="406" y="336" type="curve"/>
      <point x="473" y="336" type="line"/>
      <point x="473" y="356" type="line" smooth="yes"/>
      <point x="473" y="442"/>
      <point x="416" y="541"/>
      <point x="270" y="541" type="curve" smooth="yes"/>
      <point x="115" y="541"/>
      <point x="49" y="424"/>
      <point x="49" y="277" type="curve" smooth="yes"/>
      <point x="49" y="253" type="line" smooth="yes"/>
      <point x="49" y="106"/>
      <point x="115" y="-11"/>
      <point x="270" y="-11" type="curve" smooth="yes"/>
      <point x="416" y="-11"/>
      <point x="473" y="84"/>
      <point x="473" y="168" type="curve" smooth="yes"/>
      <point x="473" y="184" type="line"/>
      <point x="406" y="184" type="line"/>
      <point x="406" y="115"/>
      <point x="370" y="52"/>
      <point x="271" y="52" type="curve" smooth="yes"/>
      <point x="166" y="52"/>
      <point x="120" y="132"/>
    </contour>
    <contour>
      <point x="314" y="745" type="line"/>
      <point x="226" y="745" type="line"/>
      <point x="226" y="657" type="line"/>
      <point x="314" y="657" type="line"/>
    </contour>
  </outline>
</glyph>
<glyph name="Ccaron" format="1">
  <advance width="618"/>
  <unicode hex="010C"/>
  <outline>
    <contour>
      <point x="131" y="370" type="curve" smooth="yes"/>
      <point x="131" y="410" type="line" smooth="yes"/>
      <point x="131" y="632"/>
      <point x="191" y="726"/>
      <point x="321" y="726" type="curve" smooth="yes"/>
      <point x="328" y="726" type="line" smooth="yes"/>
      <point x="445" y="726"/>
      <point x="494" y="657"/>
      <point x="494" y="496" type="curve"/>
      <point x="568" y="496" type="line"/>
      <point x="568" y="524" type="line" smooth="yes"/>
      <point x="568" y="700"/>
      <point x="488" y="791"/>
      <point x="322" y="791" type="curve" smooth="yes"/>
      <point x="143" y="791"/>
      <point x="57" y="680"/>
      <point x="57" y="410" type="curve" smooth="yes"/>
      <point x="57" y="370" type="line" smooth="yes"/>
      <point x="57" y="100"/>
      <point x="143" y="-11"/>
      <point x="322" y="-11" type="curve" smooth="yes"/>
      <point x="488" y="-11"/>
      <point x="568" y="80"/>
      <point x="568" y="244" type="curve" smooth="yes"/>
      <point x="568" y="254" type="line"/>
      <point x="494" y="254" type="line"/>
      <point x="494" y="125"/>
      <point x="445" y="54"/>
      <point x="328" y="54" type="curve" smooth="yes"/>
      <point x="321" y="54" type="line" smooth="yes"/>
      <point x="190" y="54"/>
      <point x="131" y="148"/>
    </contour>
    <contour>
      <point x="184" y="950" type="line"/>
      <point x="290" y="840" type="line"/>
      <point x="354" y="840" type="line"/>
      <point x="460" y="950" type="line"/>
      <point x="390" y="950" type="line"/>
      <point x="322" y="883" type="line"/>
      <point x="254" y="950" type="line"/>
    </contour>
  </outline>
</glyph>
<glyph name="ccaron" format="1">
  <advance width="522"/>
  <unicode hex="010D"/>
  <outline>
    <contour>
      <point x="120" y="253" type="curve" smooth="yes"/>
      <point x="120" y="277" type="line" smooth="yes"/>
      <point x="120" y="398"/>
      <point x="166" y="478"/>
      <point x="271" y="478" type="curve" smooth="yes"/>
      <point x="367" y="478"/>
      <point x="406" y="417"/>
      <point x="406" y="336" type="curve"/>
      <point x="473" y="336" type="line"/>
      <point x="473" y="356" type="line" smooth="yes"/>
      <point x="473" y="442"/>
      <point x="416" y="541"/>
      <point x="270" y="541" type="curve" smooth="yes"/>
      <point x="115" y="541"/>
      <point x="49" y="424"/>
      <point x="49" y="277" type="curve" smooth="yes"/>
      <point x="49" y="253" type="line" smooth="yes"/>
      <point x="49" y="106"/>
      <point x="115" y="-11"/>
      <point x="270" y="-11" type="curve" smooth="yes"/>
      <point x="416" y="-11"/>
      <point x="473" y="84"/>
      <point x="473" y="168" type="curve" smooth="yes"/>
      <point x="473" y="184" type="line"/>
      <point x="406" y="184" type="line"/>
      <point x="406" y="115"/>
      <point x="370" y="52"/>
      <point x="271" y="52" type="curve" smooth="yes"/>
      <point x="166" y="52"/>
      <point x="120" y="132"/>
    </contour>
    <contour>
      <point x="108" y="780" type="line"/>
      <point x="239" y="614" type="line"/>
      <point x="301" y="614" type="line"/>
      <point x="432" y="780" type="line"/>
      <point x="363" y="780" type="line"/>
      <point x="270" y="666" type="line"/>
      <point x="177" y="780" type="line"/>
    </contour>
  </outline>
</glyph>
<glyph name="Dcaron" format="1">
  <advance width="639"/>
  <unicode hex="010E"/>
  <outline>
    <contour>
      <point x="582" y="370" type="curve" smooth="yes"/>
      <point x="582" y="410" type="line" smooth="yes"/>
      <point x="582" y="680"/>
      <point x="470" y="780"/>
      <point x="280" y="780" type="curve" smooth="yes"/>
      <point x="74" y="780" type="line"/>
      <point x="74" y="0" type="line"/>
      <point x="280" y="0" type="line" smooth="yes"/>
      <point x="470" y="0"/>
      <point x="582" y="100"/>
    </contour>
    <contour>
      <point x="146" y="65" type="line"/>
      <point x="146" y="715" type="line"/>
      <point x="274" y="715" type="line" smooth="yes"/>
      <point x="424" y="715"/>
      <point x="508" y="632"/>
      <point x="508" y="410" type="curve" smooth="yes"/>
      <point x="508" y="370" type="line" smooth="yes"/>
      <point x="508" y="148"/>
      <point x="424" y="65"/>
      <point x="274" y="65" type="curve" smooth="yes"/>
    </contour>
    <contour>
      <point x="154" y="950" type="line"/>
      <point x="260" y="840" type="line"/>
      <point x="324" y="840" type="line"/>
      <point x="430" y="950" type="line"/>
      <point x="360" y="950" type="line"/>
      <point x="292" y="883" type="line"/>
      <point x="224" y="950" type="line"/>
    </contour>
  </outline>
</glyph>
<glyph name="dcaron" format="1">
  <advance width="540"/>
  <unicode hex="010F"/>
  <outline>
    <contour>
      <point x="254" y="541" type="curve" smooth="yes"/>
      <point x="109" y="541"/>
      <point x="51" y="424"/>
      <point x="51" y="277" type="curve" smooth="yes"/>
      <point x="51" y="253" type="line" smooth="yes"/>
      <point x="51" y="106"/>
      <point x="109" y="-11"/>
      <point x="254" y="-11" type="curve" smooth="yes"/>
      <point x="334" y="-11"/>
      <point x="384" y="26"/>
      <point x="411" y="71" type="curve"/>
      <point x="421" y="0" type="line"/>
      <point x="480" y="0" type="line"/>
      <point x="474" y="150" type="line"/>
      <point x="474" y="800" type="line"/>
      <point x="404" y="800" type="line"/>
      <point x="404" y="469" type="line"/>
      <point x="375" y="509"/>
      <point x="328" y="541"/>
    </contour>
    <contour>
      <point x="269" y="52" type="curve" smooth="yes"/>
      <point x="169" y="52"/>
      <point x="122" y="130"/>
      <point x="122" y="253" type="curve" smooth="yes"/>
      <point x="122" y="277" type="line" smooth="yes"/>
      <point x="122" y="400"/>
      <point x="169" y="478"/>
      <point x="269" y="478" type="curve" smooth="yes"/>
      <point x="341" y="478"/>
      <point x="382" y="431"/>
      <point x="404" y="396" type="curve"/>
      <point x="404" y="134" type="line"/>
      <point x="382" y="99"/>
      <point x="341" y="52"/>
    </contour>
    <contour>
      <point x="548" y="800" type="line"/>
      <point x="548" y="614" type="line"/>
      <point x="588" y="614" type="line"/>
      <point x="607" y="800" type="line"/>
    </contour>
  </outline>
</glyph>
<glyph name="Dcroat" format="1">
  <advance width="699"/>
  <unicode hex="0110"/>
  <outline>
    <contour>
      <point x="18" y="369" type="line"/>
      <point x="134" y="369" type="line"/>
      <point x="134" y="0" type="line"/>
      <point x="340" y="0" type="line" smooth="yes"/>
      <point x="530" y="0"/>
      <point x="642" y="100"/>
      <point x="642" y="370" type="curve" smooth="yes"/>
      <point x="642" y="410" type="line" smooth="yes"/>
      <point x="642" y="680"/>
      <point x="530" y="780"/>
      <point x="340" y="780" type="curve" smooth="yes"/>
      <point x="134" y="780" type="line"/>
      <point x="134" y="428" type="line"/>
      <point x="18" y="428" type="line"/>
    </contour>
    <contour>
      <point x="206" y="715" type="line"/>
      <point x="334" y="715" type="line" smooth="yes"/>
      <point x="484" y="715"/>
      <point x="568" y="632"/>
      <point x="568" y="410" type="curve" smooth="yes"/>
      <point x="568" y="370" type="line" smooth="yes"/>
      <point x="568" y="148"/>
      <point x="484" y="65"/>
      <point x="334" y="65" type="curve" smooth="yes"/>
      <point x="206" y="65" type="line"/>
      <point x="206" y="369" type="line"/>
      <point x="419" y="369" type="line"/>
      <point x="419" y="428" type="line"/>
      <point x="206" y="428" type="line"/>
    </contour>
  </outline>
</glyph>
<glyph name="Ebreve" format="1">
  <advance width="549"/>
  <unicode hex="0114"/>
  <outline>
    <contour>
      <point x="299" y="829" type="curve" smooth="yes"/>
      <point x="404" y="829"/>
      <point x="444" y="881"/>
      <point x="444" y="950" type="curve"/>
      <point x="388" y="950" type="line"/>
      <point x="388" y="906"/>
      <point x="361" y="879"/>
      <point x="299" y="879" type="curve" smooth="yes"/>
      <point x="237" y="879"/>
      <point x="210" y="906"/>
      <point x="210" y="950" type="curve"/>
      <point x="154" y="950" type="line"/>
      <point x="154" y="881"/>
      <point x="194" y="829"/>
    </contour>
    <contour>
      <point x="74" y="780" type="line"/>
      <point x="74" y="0" type="line"/>
      <point x="509" y="0" type="line"/>
      <point x="509" y="65" type="line"/>
      <point x="146" y="65" type="line"/>
      <point x="146" y="366" type="line"/>
      <point x="459" y="366" type="line"/>
      <point x="459" y="430" type="line"/>
      <point x="146" y="430" type="line"/>
      <point x="146" y="715" type="line"/>
      <point x="509" y="715" type="line"/>
      <point x="509" y="780" type="line"/>
    </contour>
  </outline>
</glyph>
<glyph name="ebreve" format="1">
  <advance width="544"/>
  <unicode hex="0115"/>
  <outline>
    <contour>
      <point x="495" y="236" type="line"/>
      <point x="495" y="276" type="line" smooth="yes"/>
      <point x="495" y="423"/>
      <point x="428" y="541"/>
      <point x="273" y="541" type="curve" smooth="yes"/>
      <point x="118" y="541"/>
      <point x="49" y="423"/>
      <point x="49" y="276" type="curve" smooth="yes"/>
      <point x="49" y="254" type="line" smooth="yes"/>
      <point x="49" y="107"/>
      <point x="118" y="-11"/>
      <point x="278" y="-11" type="curve" smooth="yes"/>
      <point x="427" y="-11"/>
      <point x="495" y="84"/>
      <point x="495" y="166" type="curve" smooth="yes"/>
      <point x="495" y="170" type="line"/>
      <point x="428" y="170" type="line"/>
      <point x="428" y="113"/>
      <point x="384" y="48"/>
      <point x="278" y="48" type="curve" smooth="yes"/>
      <point x="172" y="48"/>
      <point x="123" y="120"/>
      <point x="120" y="236" type="curve"/>
    </contour>
    <contour>
      <point x="272" y="482" type="curve" smooth="yes"/>
      <point x="373" y="482"/>
      <point x="420" y="409"/>
      <point x="424" y="294" type="curve"/>
      <point x="120" y="294" type="line"/>
      <point x="123" y="409"/>
      <point x="172" y="482"/>
    </contour>
    <contour>
      <point x="273" y="603" type="curve" smooth="yes"/>
      <point x="387" y="603"/>
      <point x="435" y="676"/>
      <point x="434" y="780" type="curve"/>
      <point x="377" y="780" type="line"/>
      <point x="377" y="709"/>
      <point x="347" y="662"/>
      <point x="273" y="662" type="curve" smooth="yes"/>
      <point x="199" y="662"/>
      <point x="169" y="709"/>
      <point x="169" y="780" type="curve"/>
      <point x="112" y="780" type="line"/>
      <point x="111" y="676"/>
      <point x="159" y="603"/>
    </contour>
  </outline>
</glyph>
<glyph name="Edotaccent" format="1">
  <advance width="549"/>
  <unicode hex="0116"/>
  <outline>
    <contour>
      <point x="74" y="780" type="line"/>
      <point x="74" y="0" type="line"/>
      <point x="509" y="0" type="line"/>
      <point x="509" y="65" type="line"/>
      <point x="146" y="65" type="line"/>
      <point x="146" y="366" type="line"/>
      <point x="459" y="366" type="line"/>
      <point x="459" y="430" type="line"/>
      <point x="146" y="430" type="line"/>
      <point x="146" y="715" type="line"/>
      <point x="509" y="715" type="line"/>
      <point x="509" y="780" type="line"/>
    </contour>
    <contour>
      <point x="339" y="930" type="line"/>
      <point x="259" y="930" type="line"/>
      <point x="259" y="860" type="line"/>
      <point x="339" y="860" type="line"/>
    </contour>
  </outline>
</glyph>
<glyph name="Eogonek" format="1">
  <advance width="549"/>
  <unicode hex="0118"/>
  <outline>
    <contour>
      <point x="74" y="780" type="line"/>
      <point x="74" y="0" type="line"/>
      <point x="419" y="0" type="line"/>
      <point x="387" y="-27"/>
      <point x="365" y="-65"/>
      <point x="365" y="-113" type="curve" smooth="yes"/>
      <point x="365" y="-182"/>
      <point x="409" y="-211"/>
      <point x="474" y="-211" type="curve" smooth="yes"/>
      <point x="506" y="-211"/>
      <point x="542" y="-204"/>
      <point x="563" y="-191" type="curve"/>
      <point x="544" y="-139" type="line"/>
      <point x="529" y="-147"/>
      <point x="505" y="-153"/>
      <point x="481" y="-153" type="curve" smooth="yes"/>
      <point x="445" y="-153"/>
      <point x="425" y="-132"/>
      <point x="425" y="-103" type="curve" smooth="yes"/>
      <point x="425" y="-52"/>
      <point x="464" y="-19"/>
      <point x="508" y="0" type="curve"/>
      <point x="509" y="0" type="line"/>
      <point x="509" y="65" type="line"/>
      <point x="146" y="65" type="line"/>
      <point x="146" y="366" type="line"/>
      <point x="459" y="366" type="line"/>
      <point x="459" y="430" type="line"/>
      <point x="146" y="430" type="line"/>
      <point x="146" y="715" type="line"/>
      <point x="509" y="715" type="line"/>
      <point x="509" y="780" type="line"/>
    </contour>
  </outline>
</glyph>
<glyph name="eogonek" format="1">
  <advance width="544"/>
  <unicode hex="0119"/>
  <outline>
    <contour>
      <point x="495" y="236" type="line"/>
      <point x="495" y="276" type="line" smooth="yes"/>
      <point x="495" y="423"/>
      <point x="428" y="541"/>
      <point x="273" y="541" type="curve" smooth="yes"/>
      <point x="118" y="541"/>
      <point x="49" y="423"/>
      <point x="49" y="276" type="curve" smooth="yes"/>
      <point x="49" y="254" type="line" smooth="yes"/>
      <point x="49" y="113"/>
      <point x="112" y="-1"/>
      <point x="259" y="-10" type="curve"/>
      <point x="233" y="-37"/>
      <point x="216" y="-71"/>
      <point x="216" y="-113" type="curve" smooth="yes"/>
      <point x="216" y="-182"/>
      <point x="260" y="-211"/>
      <point x="325" y="-211" type="curve" smooth="yes"/>
      <point x="357" y="-211"/>
      <point x="393" y="-204"/>
      <point x="414" y="-191" type="curve"/>
      <point x="395" y="-139" type="line"/>
      <point x="380" y="-147"/>
      <point x="356" y="-153"/>
      <point x="332" y="-153" type="curve" smooth="yes"/>
      <point x="296" y="-153"/>
      <point x="276" y="-132"/>
      <point x="276" y="-103" type="curve" smooth="yes"/>
      <point x="276" y="-52"/>
      <point x="316" y="-12"/>
      <point x="358" y="0" type="curve" smooth="yes"/>
      <point x="453" y="27"/>
      <point x="495" y="100"/>
      <point x="495" y="166" type="curve" smooth="yes"/>
      <point x="495" y="170" type="line"/>
      <point x="428" y="170" type="line"/>
      <point x="428" y="113"/>
      <point x="384" y="48"/>
      <point x="278" y="48" type="curve" smooth="yes"/>
      <point x="172" y="48"/>
      <point x="123" y="120"/>
      <point x="120" y="236" type="curve"/>
    </contour>
    <contour>
      <point x="272" y="482" type="curve" smooth="yes"/>
      <point x="373" y="482"/>
      <point x="420" y="409"/>
      <point x="424" y="294" type="curve"/>
      <point x="120" y="294" type="line"/>
      <point x="123" y="409"/>
      <point x="172" y="482"/>
    </contour>
  </outline>
</glyph>
<glyph name="Ecaron" format="1">
  <advance width="549"/>
  <unicode hex="011A"/>
  <outline>
    <contour>
      <point x="74" y="780" type="line"/>
      <point x="74" y="0" type="line"/>
      <point x="509" y="0" type="line"/>
      <point x="509" y="65" type="line"/>
      <point x="146" y="65" type="line"/>
      <point x="146" y="366" type="line"/>
      <point x="459" y="366" type="line"/>
      <point x="459" y="430" type="line"/>
      <point x="146" y="430" type="line"/>
      <point x="146" y="715" type="line"/>
      <point x="509" y="715" type="line"/>
      <point x="509" y="780" type="line"/>
    </contour>
    <contour>
      <point x="161" y="950" type="line"/>
      <point x="267" y="840" type="line"/>
      <point x="331" y="840" type="line"/>
      <point x="437" y="950" type="line"/>
      <point x="367" y="950" type="line"/>
      <point x="299" y="883" type="line"/>
      <point x="231" y="950" type="line"/>
    </contour>
  </outline>
</glyph>
<glyph name="ecaron" format="1">
  <advance width="544"/>
  <unicode hex="011B"/>
  <outline>
    <contour>
      <point x="495" y="236" type="line"/>
      <point x="495" y="276" type="line" smooth="yes"/>
      <point x="495" y="423"/>
      <point x="428" y="541"/>
      <point x="273" y="541" type="curve" smooth="yes"/>
      <point x="118" y="541"/>
      <point x="49" y="423"/>
      <point x="49" y="276" type="curve" smooth="yes"/>
      <point x="49" y="254" type="line" smooth="yes"/>
      <point x="49" y="107"/>
      <point x="118" y="-11"/>
      <point x="278" y="-11" type="curve" smooth="yes"/>
      <point x="427" y="-11"/>
      <point x="495" y="84"/>
      <point x="495" y="166" type="curve" smooth="yes"/>
      <point x="495" y="170" type="line"/>
      <point x="428" y="170" type="line"/>
      <point x="428" y="113"/>
      <point x="384" y="48"/>
      <point x="278" y="48" type="curve" smooth="yes"/>
      <point x="172" y="48"/>
      <point x="123" y="120"/>
      <point x="120" y="236" type="curve"/>
    </contour>
    <contour>
      <point x="272" y="482" type="curve" smooth="yes"/>
      <point x="373" y="482"/>
      <point x="420" y="409"/>
      <point x="424" y="294" type="curve"/>
      <point x="120" y="294" type="line"/>
      <point x="123" y="409"/>
      <point x="172" y="482"/>
    </contour>
    <contour>
      <point x="111" y="780" type="line"/>
      <point x="242" y="614" type="line"/>
      <point x="304" y="614" type="line"/>
      <point x="435" y="780" type="line"/>
      <point x="366" y="780" type="line"/>
      <point x="273" y="666" type="line"/>
      <point x="180" y="780" type="line"/>
    </contour>
  </outline>
</glyph>
<glyph name="Gbreve" format="1">
  <advance width="648"/>
  <unicode hex="011E"/>
  <outline>
    <contour>
      <point x="341" y="-11" type="curve" smooth="yes"/>
      <point x="465" y="-11"/>
      <point x="537" y="35"/>
      <point x="579" y="79" type="curve"/>
      <point x="579" y="384" type="line"/>
      <point x="373" y="384" type="line"/>
      <point x="373" y="320" type="line"/>
      <point x="507" y="320" type="line"/>
      <point x="507" y="114" type="line"/>
      <point x="479" y="84"/>
      <point x="425" y="54"/>
      <point x="346" y="54" type="curve" smooth="yes"/>
      <point x="339" y="54" type="line" smooth="yes"/>
      <point x="196" y="54"/>
      <point x="132" y="148"/>
      <point x="132" y="370" type="curve" smooth="yes"/>
      <point x="132" y="410" type="line" smooth="yes"/>
      <point x="132" y="632"/>
      <point x="199" y="726"/>
      <point x="331" y="726" type="curve" smooth="yes"/>
      <point x="337" y="726" type="line" smooth="yes"/>
      <point x="457" y="726"/>
      <point x="506" y="657"/>
      <point x="506" y="496" type="curve"/>
      <point x="579" y="496" type="line"/>
      <point x="579" y="524" type="line" smooth="yes"/>
      <point x="579" y="700"/>
      <point x="498" y="791"/>
      <point x="331" y="791" type="curve" smooth="yes"/>
      <point x="153" y="791"/>
      <point x="57" y="680"/>
      <point x="57" y="410" type="curve" smooth="yes"/>
      <point x="57" y="370" type="line" smooth="yes"/>
      <point x="57" y="100"/>
      <point x="153" y="-11"/>
    </contour>
    <contour>
      <point x="331" y="829" type="curve" smooth="yes"/>
      <point x="436" y="829"/>
      <point x="476" y="881"/>
      <point x="476" y="950" type="curve"/>
      <point x="420" y="950" type="line"/>
      <point x="420" y="906"/>
      <point x="393" y="879"/>
      <point x="331" y="879" type="curve" smooth="yes"/>
      <point x="269" y="879"/>
      <point x="242" y="906"/>
      <point x="242" y="950" type="curve"/>
      <point x="186" y="950" type="line"/>
      <point x="186" y="881"/>
      <point x="226" y="829"/>
    </contour>
  </outline>
</glyph>
<glyph name="gdotaccent" format="1">
  <advance width="537"/>
  <unicode hex="0121"/>
  <outline>
    <contour>
      <point x="402" y="-1" type="line" smooth="yes"/>
      <point x="402" y="-98"/>
      <point x="365" y="-150"/>
      <point x="263" y="-150" type="curve" smooth="yes"/>
      <point x="164" y="-150"/>
      <point x="126" y="-100"/>
      <point x="126" y="0" type="curve"/>
      <point x="59" y="0" type="line"/>
      <point x="59" y="-13" type="line" smooth="yes"/>
      <point x="59" y="-122"/>
      <point x="111" y="-211"/>
      <point x="264" y="-211" type="curve" smooth="yes"/>
      <point x="415" y="-211"/>
      <point x="472" y="-124"/>
      <point x="472" y="-5" type="curve" smooth="yes"/>
      <point x="472" y="380" type="line"/>
      <point x="478" y="530" type="line"/>
      <point x="420" y="530" type="line"/>
      <point x="410" y="459" type="line"/>
      <point x="382" y="504"/>
      <point x="333" y="541"/>
      <point x="252" y="541" type="curve" smooth="yes"/>
      <point x="108" y="541"/>
      <point x="49" y="428"/>
      <point x="49" y="295" type="curve" smooth="yes"/>
      <point x="49" y="273" type="line" smooth="yes"/>
      <point x="49" y="138"/>
      <point x="108" y="27"/>
      <point x="252" y="27" type="curve" smooth="yes"/>
      <point x="326" y="27"/>
      <point x="373" y="57"/>
      <point x="402" y="97" type="curve"/>
    </contour>
    <contour>
      <point x="402" y="396" type="curve"/>
      <point x="402" y="171" type="line"/>
      <point x="380" y="137"/>
      <point x="340" y="90"/>
      <point x="267" y="90" type="curve" smooth="yes"/>
      <point x="168" y="90"/>
      <point x="120" y="162"/>
      <point x="120" y="273" type="curve" smooth="yes"/>
      <point x="120" y="295" type="line" smooth="yes"/>
      <point x="120" y="404"/>
      <point x="168" y="478"/>
      <point x="267" y="478" type="curve" smooth="yes"/>
      <point x="340" y="478"/>
      <point x="380" y="431"/>
    </contour>
    <contour>
      <point x="308" y="745" type="line"/>
      <point x="220" y="745" type="line"/>
      <point x="220" y="657" type="line"/>
      <point x="308" y="657" type="line"/>
    </contour>
  </outline>
</glyph>
<glyph name="Gcommaaccent" format="1">
  <advance width="648"/>
  <unicode hex="0122"/>
  <outline>
    <contour>
      <point x="341" y="-11" type="curve" smooth="yes"/>
      <point x="465" y="-11"/>
      <point x="537" y="35"/>
      <point x="579" y="79" type="curve"/>
      <point x="579" y="384" type="line"/>
      <point x="373" y="384" type="line"/>
      <point x="373" y="320" type="line"/>
      <point x="507" y="320" type="line"/>
      <point x="507" y="114" type="line"/>
      <point x="479" y="84"/>
      <point x="425" y="54"/>
      <point x="346" y="54" type="curve" smooth="yes"/>
      <point x="339" y="54" type="line" smooth="yes"/>
      <point x="196" y="54"/>
      <point x="132" y="148"/>
      <point x="132" y="370" type="curve" smooth="yes"/>
      <point x="132" y="410" type="line" smooth="yes"/>
      <point x="132" y="632"/>
      <point x="199" y="726"/>
      <point x="331" y="726" type="curve" smooth="yes"/>
      <point x="337" y="726" type="line" smooth="yes"/>
      <point x="457" y="726"/>
      <point x="506" y="657"/>
      <point x="506" y="496" type="curve"/>
      <point x="579" y="496" type="line"/>
      <point x="579" y="524" type="line" smooth="yes"/>
      <point x="579" y="700"/>
      <point x="498" y="791"/>
      <point x="331" y="791" type="curve" smooth="yes"/>
      <point x="153" y="791"/>
      <point x="57" y="680"/>
      <point x="57" y="410" type="curve" smooth="yes"/>
      <point x="57" y="370" type="line" smooth="yes"/>
      <point x="57" y="100"/>
      <point x="153" y="-11"/>
    </contour>
    <contour>
      <point x="382" y="-56" type="line"/>
      <point x="300" y="-56" type="line"/>
      <point x="300" y="-124" type="line"/>
      <point x="344" y="-124" type="line"/>
      <point x="338" y="-163"/>
      <point x="313" y="-178"/>
      <point x="277" y="-178" type="curve"/>
      <point x="277" y="-214" type="line"/>
      <point x="343" y="-214"/>
      <point x="382" y="-175"/>
      <point x="382" y="-106" type="curve" smooth="yes"/>
    </contour>
  </outline>
</glyph>
<glyph name="Hcircumflex" format="1">
  <advance width="639"/>
  <unicode hex="0124"/>
  <outline>
    <contour>
      <point x="493" y="780" type="line"/>
      <point x="493" y="430" type="line"/>
      <point x="146" y="430" type="line"/>
      <point x="146" y="780" type="line"/>
      <point x="74" y="780" type="line"/>
      <point x="74" y="0" type="line"/>
      <point x="146" y="0" type="line"/>
      <point x="146" y="366" type="line"/>
      <point x="493" y="366" type="line"/>
      <point x="493" y="0" type="line"/>
      <point x="565" y="0" type="line"/>
      <point x="565" y="780" type="line"/>
    </contour>
    <contour>
      <point x="251" y="840" type="line"/>
      <point x="319" y="906" type="line"/>
      <point x="387" y="840" type="line"/>
      <point x="457" y="840" type="line"/>
      <point x="351" y="950" type="line"/>
      <point x="287" y="950" type="line"/>
      <point x="181" y="840" type="line"/>
    </contour>
  </outline>
</glyph>
<glyph name="hcircumflex" format="1">
  <advance width="528"/>
  <unicode hex="0125"/>
  <outline>
    <contour>
      <point x="136" y="800" type="line"/>
      <point x="66" y="800" type="line"/>
      <point x="66" y="0" type="line"/>
      <point x="136" y="0" type="line"/>
      <point x="136" y="396" type="line"/>
      <point x="158" y="431"/>
      <point x="199" y="478"/>
      <point x="282" y="478" type="curve" smooth="yes"/>
      <point x="352" y="478"/>
      <point x="397" y="441"/>
      <point x="397" y="361" type="curve" smooth="yes"/>
      <point x="397" y="0" type="line"/>
      <point x="467" y="0" type="line"/>
      <point x="467" y="371" type="line" smooth="yes"/>
      <point x="467" y="470"/>
      <point x="411" y="541"/>
      <point x="306" y="541" type="curve" smooth="yes"/>
      <point x="222" y="541"/>
      <point x="168" y="508"/>
      <point x="136" y="466" type="curve"/>
    </contour>
    <contour>
      <point x="33" y="840" type="line"/>
      <point x="101" y="906" type="line"/>
      <point x="169" y="840" type="line"/>
      <point x="239" y="840" type="line"/>
      <point x="133" y="950" type="line"/>
      <point x="69" y="950" type="line"/>
      <point x="-37" y="840" type="line"/>
    </contour>
  </outline>
</glyph>
<glyph name="Hbar" format="1">
  <advance width="639"/>
  <unicode hex="0126"/>
  <outline>
    <contour>
      <point x="493" y="780" type="line"/>
      <point x="493" y="636" type="line"/>
      <point x="146" y="636" type="line"/>
      <point x="146" y="780" type="line"/>
      <point x="74" y="780" type="line"/>
      <point x="74" y="0" type="line"/>
      <point x="146" y="0" type="line"/>
      <point x="146" y="366" type="line"/>
      <point x="493" y="366" type="line"/>
      <point x="493" y="0" type="line"/>
      <point x="565" y="0" type="line"/>
      <point x="565" y="780" type="line"/>
    </contour>
    <contour>
      <point x="146" y="430" type="line"/>
      <point x="146" y="577" type="line"/>
      <point x="493" y="577" type="line"/>
      <point x="493" y="430" type="line"/>
    </contour>
  </outline>
</glyph>
<glyph name="hbar" format="1">
  <advance width="528"/>
  <unicode hex="0127"/>
  <outline>
    <contour>
      <point x="136" y="800" type="line"/>
      <point x="66" y="800" type="line"/>
      <point x="66" y="694" type="line"/>
      <point x="-26" y="694" type="line"/>
      <point x="-26" y="636" type="line"/>
      <point x="66" y="636" type="line"/>
      <point x="66" y="0" type="line"/>
      <point x="136" y="0" type="line"/>
      <point x="136" y="396" type="line"/>
      <point x="158" y="431"/>
      <point x="199" y="478"/>
      <point x="282" y="478" type="curve" smooth="yes"/>
      <point x="352" y="478"/>
      <point x="397" y="441"/>
      <point x="397" y="361" type="curve" smooth="yes"/>
      <point x="397" y="0" type="line"/>
      <point x="467" y="0" type="line"/>
      <point x="467" y="371" type="line" smooth="yes"/>
      <point x="467" y="470"/>
      <point x="411" y="541"/>
      <point x="306" y="541" type="curve" smooth="yes"/>
      <point x="222" y="541"/>
      <point x="168" y="508"/>
      <point x="136" y="466" type="curve"/>
      <point x="136" y="636" type="line"/>
      <point x="269" y="636" type="line"/>
      <point x="269" y="694" type="line"/>
      <point x="136" y="694" type="line"/>
    </contour>
  </outline>
</glyph>
<glyph name="Itilde" format="1">
  <advance width="229"/>
  <unicode hex="0128"/>
  <outline>
    <contour>
      <point x="151" y="780" type="line"/>
      <point x="79" y="780" type="line"/>
      <point x="79" y="0" type="line"/>
      <point x="151" y="0" type="line"/>
    </contour>
    <contour>
      <point x="217" y="936" type="line"/>
      <point x="217" y="903"/>
      <point x="200" y="893"/>
      <point x="180" y="893" type="curve" smooth="yes"/>
      <point x="141" y="893"/>
      <point x="104" y="947"/>
      <point x="42" y="947" type="curve" smooth="yes"/>
      <point x="-4" y="947"/>
      <point x="-37" y="919"/>
      <point x="-37" y="854" type="curve"/>
      <point x="13" y="854" type="line"/>
      <point x="13" y="887"/>
      <point x="30" y="897"/>
      <point x="50" y="897" type="curve" smooth="yes"/>
      <point x="89" y="897"/>
      <point x="126" y="843"/>
      <point x="188" y="843" type="curve" smooth="yes"/>
      <point x="234" y="843"/>
      <point x="267" y="871"/>
      <point x="267" y="936" type="curve"/>
    </contour>
  </outline>
</glyph>
<glyph name="itilde" format="1">
  <advance width="217"/>
  <unicode hex="0129"/>
  <outline>
    <contour>
      <point x="73" y="0" type="line"/>
      <point x="143" y="0" type="line"/>
      <point x="143" y="530" type="line"/>
      <point x="73" y="530" type="line"/>
    </contour>
    <contour>
      <point x="209" y="746" type="line"/>
      <point x="209" y="713"/>
      <point x="193" y="703"/>
      <point x="173" y="703" type="curve" smooth="yes"/>
      <point x="133" y="703"/>
      <point x="95" y="757"/>
      <point x="33" y="757" type="curve" smooth="yes"/>
      <point x="-15" y="757"/>
      <point x="-48" y="725"/>
      <point x="-48" y="654" type="curve"/>
      <point x="7" y="654" type="line"/>
      <point x="7" y="687"/>
      <point x="23" y="697"/>
      <point x="43" y="697" type="curve" smooth="yes"/>
      <point x="83" y="697"/>
      <point x="121" y="643"/>
      <point x="183" y="643" type="curve" smooth="yes"/>
      <point x="231" y="643"/>
      <point x="264" y="675"/>
      <point x="264" y="746" type="curve"/>
    </contour>
  </outline>
</glyph>
<glyph name="Imacron" format="1">
  <advance width="229"/>
  <unicode hex="012A"/>
  <outline>
    <contour>
      <point x="151" y="780" type="line"/>
      <point x="79" y="780" type="line"/>
      <point x="79" y="0" type="line"/>
      <point x="151" y="0" type="line"/>
    </contour>
    <contour>
      <point x="2" y="868" type="line"/>
      <point x="228" y="868" type="line"/>
      <point x="228" y="922" type="line"/>
      <point x="2" y="922" type="line"/>
    </contour>
  </outline>
</glyph>
